<?xml version="1.0" encoding="UTF-8"?>
<svg version="1.1" viewBox="0 0 852 852" width="213" height="213" xmlns="http://www.w3.org/2000/svg">
<path transform="translate(401,10)" d="m0 0h46l34 3 24 4 30 7 26 8 19 7 30 13 29 16 19 12 19 14 16 13 15 13 15 14 14 15 9 11 13 16 13 19 9 14 14 24 12 25 9 23 10 30 7 28 6 37 1 12v76l-3 26-6 31-7 26-9 27-11 26-9 19-16 27-10 15-10 14-10 13-3 4h-2l-2 4-14 15-28 28-11 9-15 12-30 20-21 12-21 11-29 12-30 10-27 7-27 5-27 3h-77l-36-5-27-6-30-9-24-9-27-12-24-13-21-13-14-10-12-9-13-11-8-7-7-7-8-7-8-8v-2l-4-2-7-8-11-12-13-17-12-17-13-21-10-18-12-25-10-26-7-21-7-26-6-32-3-27v-9l-1-4v-43l1-3 1-21 5-33 6-26 9-30 10-26 12-27 12-22 14-22 13-18 11-14 12-14 12-13 14-14 8-7 13-11 17-13 18-13 22-13 24-13 30-13 25-9 34-9 24-5 22-3 17-1z" fill="#FBFBFB"/>
<path transform="translate(411,159)" d="m0 0h30l21 2 16 3 22 5 24 8 31 15 21 13 16 12 13 11 12 11 12 13 11 14 10 14 13 22 10 21 7 19 5 17 5 26 2 15v53l-3 21-5 23-9 27-12 26-13 22-10 14-13 16-15 16-12 11-17 13-21 14-20 11-27 11-24 7-31 6-8 1h-52l-26-4-25-6-23-8-20-9-18-10-12-8-11-8-14-11-13-12-10-10-7-8-14-18-7-11-12-21-9-19-7-19-6-21-4-20-3-27v-28l2-23 3-19 6-24 9-25 11-23 10-17 11-16 13-16 11-12 12-12 11-9 13-10 22-14 23-12 20-8 23-7 23-5 15-2z" fill="#3F3E3E"/>
<path transform="translate(267,284)" d="m0 0h35l31 4 24 5 27 9 25 12 12 8 4 1 20-12 19-9 27-9 23-5 32-4h35l1 1v226l-1 1-37 2-30 4-25 6-17 6-14 6 35 1h71l16-1 8-6 4-5 2-8 1-201 4-4h7l4 4 1 31v130l-1 62-3 7-6 7-6 3-70 1h-62l-9 1-7 8-5 4-12 5h-13l-12-5-10-9-1-4h-124l-18-1-8-5-5-6-2-6-1-48v-80l1-96 3-3h10l4 4 1 202 3 9 7 7 5 2 11 1 109-1-19-8-23-7-20-4-23-3-37-2-1-1z" fill="#FCFCFC"/>
<path transform="translate(280,297)" d="m0 0h17l32 4 24 5 24 8 20 9 17 10 3 3v198l-16-8-15-7-19-7-23-6-23-4-21-2-19-1-1-1z" fill="#403F3F"/>
<path transform="translate(551,297)" d="m0 0h16l1 1v201l-41 3-27 5-22 6-25 10-17 9-5 2v-198l10-7 23-12 19-7 21-6 23-4z" fill="#403F3F"/>
<path transform="translate(401,10)" d="m0 0h46l34 3 24 4 30 7 26 8 19 7 30 13 29 16 19 12 19 14 16 13 15 13 15 14 14 15 9 11 13 16 13 19 9 14 14 24 12 25 9 23 10 30 7 28 6 37 1 12v76l-3 26-6 31-7 26-9 27-11 26-9 19-16 27-10 15-10 14-10 13-3 4h-2l-2 4-14 15-28 28-11 9-15 12-30 20-21 12-21 11-29 12-30 10-27 7-27 5-27 3h-77l-36-5-27-6-30-9-24-9-27-12-24-13-21-13-14-10-12-9-13-11-8-7-7-7-8-7-8-8v-2l-4-2-7-8-11-12-13-17-12-17-13-21-10-18-12-25-10-26-7-21-7-26-6-32-3-27v-9l-1-4v-43l1-3 1-21 5-33 6-26 9-30 10-26 12-27 12-22 14-22 13-18 11-14 12-14 12-13 14-14 8-7 13-11 17-13 18-13 22-13 24-13 30-13 25-9 34-9 24-5 22-3 17-1zm13 4-31 2-24 3-22 4-31 8-24 8-22 9-27 13-24 14-21 14-12 9-10 8-11 9-12 11-7 6-7 8-9 9-7 8-13 16-12 17-11 17-14 24-11 21-13 32-8 24-6 23-5 22-3 21-2 30v52l4 36 6 29 8 29 8 23 11 26 13 26 12 20 8 12 10 14 7 9 12 14 9 11 7 7 3 4h2l2 4h2l2 4 8 7 12 11 14 11 13 10 15 10 26 15 15 8 21 9 11 5 20 7 16 5 22 6 27 5 31 3h75l24-3 31-6 32-9 22-8 23-10 21-10 22-13 16-10 11-8 10-8 11-9 14-12 28-28 9-11 11-13 13-18 11-17 10-17 12-23 11-25 9-25 8-28 6-28 3-22 1-12v-72l-2-21-4-26-8-32-12-36-11-25-13-26-9-15-7-11-12-17-10-13-12-14-7-8-27-27-11-9-14-12-14-10-21-14-22-13-30-15-26-10-24-8-24-6-22-4-21-3-37-2z" fill="#4D4C4C"/>
<path transform="translate(542,27)" d="m0 0 6 1 30 10 32 14 29 16 19 12 19 14 16 13 15 13 15 14 14 15 9 11 13 16 13 19 9 14 14 24 12 25 9 23 10 30 7 28 6 37 1 12v76l-3 26-6 31-7 26-9 27-11 26-9 19-16 27-10 15-10 14-10 13-3 4h-2l-2 4-14 15-28 28-11 9-15 12-30 20-21 12-21 11-29 12-30 10-27 7-27 5-7 1h-13l-1-3 30-4 27-6 29-8 22-8 23-10 21-10 22-13 16-10 11-8 10-8 11-9 14-12 27-27 9-11 11-13 13-18 11-17 10-17 12-23 11-25 9-25 8-28 6-28 3-22 1-12v-72l-2-21-4-26-8-32-12-36-11-25-13-26-9-15-7-11-12-17-10-13-12-14-7-8-26-26-11-9-14-12-14-10-21-14-22-13-30-15-26-10-24-8v-2z" fill="#1E1D1D"/>
<path transform="translate(678,147)" d="m0 0 4 1 13 13 7 8 7 9 3 6 1 11-3 11-7 10-7 6-12 6-4 1h-10l-10-4-10-9-16-16-4-5 2-4 8-8 8-7 16-16 8-7z" fill="#070606"/>
<path transform="translate(90,252)" d="m0 0 19 2 50 6 4 2-6 12-2 2-14-1-8 15-4 9 1 5 7 7-1 6-5 9-4-2-11-11v-2l-3-1-7-8-26-26-1-3 9-19z" fill="#090809"/>
<path transform="translate(13,450)" d="m0 0 2 3 2 13 4 32 6 27 8 28 7 20 11 26 13 26 12 20 8 12 10 14 7 9 12 14 9 11 7 7 6 7 8 7 9 9 11 9 16 13 13 9 19 12 27 15 25 11 11 5 20 7 16 5 22 6 27 5 31 3h76l1 2 5 1v1l-12 1h-77l-36-5-27-6-30-9-24-9-27-12-24-13-21-13-14-10-12-9-13-11-8-7-7-7-8-7-8-8v-2l-4-2-7-8-11-12-13-17-12-17-13-21-10-18-12-25-10-26-7-21-7-26-6-32-1-16z" fill="#383737"/>
<path transform="translate(382,52)" d="m0 0h16l11 4 6 7 2 4v4l-9 2h-6l-3-4v-2l-7-2h-8l-7 3-2 3 1 6 1 2 3 1 24 1 9 3 5 5 3 7v11l-3 7-8 7-8 3-6 1h-16l-8-3-6-4-5-8-1-6 7-2 7-1 3 5 4 5 3 1h10l9-3 1-2v-8l-5-3-26-2-7-3-6-7-2-6v-7l3-7 5-6 10-5z" fill="#090809"/>
<path transform="translate(578,83)" d="m0 0 5 1 9 4 1 3-13 25-8 16v9l4 5 9 4h6l6-4 12-22 10-19 5 1 9 5 1 2-15 29-8 13-4 5-9 5h-13l-11-4-10-7-7-8-2-4v-14l10-21 11-20z" fill="#080708"/>
<path transform="translate(753,237)" d="m0 0h3l5 9 2 6-6 8-9 11-7 8-1 3 4-1h34l6 12v4h-57l-12 6h-5l-6-12 1-3 12-5 6-4 8-10 13-19 8-11z" fill="#080708"/>
<path transform="translate(821,548)" d="m0 0h1l-1 8-7 20-10 24-9 19-16 27-10 15-10 14-10 13-3 4h-2l-2 4-14 15-28 28-11 9-15 12-30 20-21 12-21 11-29 12-30 10-27 7-27 5-7 1h-13l-1-3 30-4 27-6 29-8 22-8 23-10 21-10 22-13 16-10 11-8 10-8 11-9 14-12 27-27 9-11 11-13 13-18 11-17 10-17 12-23 11-25 9-25 1-3z" fill="#1D1C1D"/>
<path transform="translate(468,53)" d="m0 0 16 2 36 7 7 1 1 5-1 7-1 1-14-1-8-1-10 51-1 3-10-1-5-1v-7l8-43 1-5-6-2-14-3-1-1 1-11z" fill="#090808"/>
<path transform="translate(143,177)" d="m0 0 4 1v2l4 2 11 11 8 7 7 7 10 8 2-4 7-7 7-8 4-3 4 1 5 5-1 4-11 12-8 8-7 8-4 4-4-1-11-11-8-7-8-8-8-7-12-11 1-5 4-2 2-4z" fill="#090809"/>
<path transform="translate(744,366)" d="m0 0 4 2 4 5 8 7 6 7 8 7 9 9 3 5 11 11-2 4-4 3 5-2 7-3-1 4-10 10-5 1-55-55 1-4 5-5z" fill="#080708"/>
<path transform="translate(216,114)" d="m0 0h5l11 18 12 19 5 8 5-1 17-11 7-3 5 8v4l-28 17-9 6h-5l-9-15-11-18-10-16-5-9z" fill="#0A0909"/>
<path transform="translate(105,162)" d="m0 0 3 2-12 16-11 16-13 21-11 19-11 23-11 28-7 21-6 23-5 22-3 21-2 30-1 49h-1v26h-1l-2-19v-9l-1-4v-43l1-3 1-21 5-33 6-26 9-30 10-26 12-27 12-22 14-22 13-18 8-10h2z" fill="#4B4A4A"/>
<path transform="translate(680,167)" d="m0 0 4 2 9 9 4 7v10l-5 8-7 7-10 4-8-1-6-4-10-10-1-3 10-10 8-7z" fill="#FCFCFC"/>
<path transform="translate(292,411)" d="m0 0 13 1 26 4 25 6 21 7 18 8 5 5-3 6-6-1-10-5-19-7-26-7-34-6-10-1-1-1v-7z" fill="#FCFCFC"/>
<path transform="translate(292,327)" d="m0 0 19 2 28 5 26 7 16 6 17 8 2 4-3 5-6-1-21-9-26-8-31-6-21-3-1-1z" fill="#FCFCFC"/>
<path transform="translate(292,453)" d="m0 0 15 1 24 4 25 6 24 8 17 8 2 2v6l-2 2-5-1-21-9-18-6-27-6-23-4-10-1-2-2z" fill="#FCFCFC"/>
<path transform="translate(550,411)" d="m0 0h7l1 2v7l-1 1-23 3-26 5-25 7-16 6-11 6-5-1-1-7 17-9 19-7 23-6 32-6z" fill="#FCFCFC"/>
<path transform="translate(292,369)" d="m0 0 13 1 30 5 24 6 20 7 19 9 1 1v6l-4 3-16-8-27-9-27-6-33-5z" fill="#FCFCFC"/>
<path transform="translate(213,780)" d="m0 0 5 1 26 14 21 9 11 5 20 7 16 5 22 6 27 5 31 3h76l1 2 5 1v1l-12 1h-77l-36-5-27-6-30-9-24-9-27-12-24-13-4-4z" fill="#5C5B5B"/>
<path transform="translate(551,369)" d="m0 0h6l1 9-1 1-34 5-27 6-24 8-16 8-5-1-1-6 5-4 17-8 21-7 26-6z" fill="#FCFCFC"/>
<path transform="translate(553,327)" d="m0 0 5 2v7l-1 1-38 6-22 5-27 9-14 7h-4l-2-3v-5l16-8 15-6 25-7 31-6z" fill="#FCFCFC"/>
<path transform="translate(550,453)" d="m0 0h7l1 9-1 1-24 3-34 7-16 5-16 6-12 6-4-1-1-6 5-4 19-9 19-6 30-7z" fill="#FCFCFC"/>
<path transform="translate(820,301)" d="m0 0h3l8 30 5 25 3 20 1 12v76l-3 26-6 31-7 26-2 3h-3l2-10 7-28 3-15 3-22 1-12v-72l-2-21-4-26-8-32-2-9z" fill="#464646"/>
<path transform="translate(105,376)" d="m0 0 5 1 5 6-2 5-17 16-21 21-7 5-11 4-1-2 5-12 3-2 5 6h2l-4-4-1-4 8-8 2-4 16-16 8-7z" fill="#080708"/>
<path transform="translate(726,139)" d="m0 0h2l7 8 12 14 11 14 13 18 13 21 12 21 11 23 9 23 6 17v3h-2l-1 2-4-10-7-19-10-23-13-26-9-15-7-11-12-17-10-13-12-14-7-8-4-4v-2h2z" fill="#191819"/>
<path transform="translate(484,167)" d="m0 0h9l19 6 16 6 25 12 20 12 14 10 17 14 13 12 12 13 11 14 10 14 13 22 4 8v4h-2l-2-8h-2l-3-6-3-5-2-3-6-10v-3l-4-2-4-6v-3l-3-1-7-9-6-7-15-15-7-6v-2l-4-2-10-9-2-1v-2l-4-1-6-4-4-3v-2l-7-2-10-6-12-7-6-3-12-5-8-3v-2l-7-1-6-1v-2l-14-2-5-2z" fill="#0E0D0E"/>
<path transform="translate(664,663)" d="m0 0h7l4 5 2 3 6 3 3 5-1 7-9 9-5-1-16-16-2-3 1-4 5-5z" fill="#1A191A"/>
<path transform="translate(193,554)" d="m0 0 3 1 1 5h2l4 7v3h2l3 5 3 4v3h2l4 5v3l3 1 3 4v2l3 1 1 4h2l7 8 14 14 4 2 3 3 2 1v2l5 2 6 5v2l5 1 7 5v2l6 1 5 3 6 3v2l6 2 4 2v2l5 1 16 7 16 5 4 2 12 2 2 3-15-2-23-8-20-9-18-10-12-8-11-8-14-11-13-12-10-10-7-8-14-18-7-11-7-12z" fill="#100F10"/>
<path transform="translate(205,73)" d="m0 0 3 1-2 4-18 12-12 9-10 8-11 9-12 11-6 5-7 8-9 9-7 8-5 6-4-1 6-8 7-8 10-11 14-14 8-7 13-11 17-13 18-13z" fill="#393838"/>
<path transform="translate(821,548)" d="m0 0h1l-1 8-7 20-10 24-9 19-16 27-10 15-3 3-3-1 2-5 10-15 10-17 12-23 11-25 9-25 1-3z" fill="#272627"/>
<path transform="translate(744,366)" d="m0 0 4 2 4 5 8 7 6 7 8 7 9 9 3 5 11 11-2 4-3 1-1-4-8-7-3-3-7 1v-2l2-1-1-4-10-10-7 1 1-3h3v-3l-4-2-10-10-7 1 1-3h-2l-1-3z" fill="#535252"/>
<path transform="translate(213,780)" d="m0 0 5 1 26 14 21 9 11 5 20 7 16 5 12 4v2l-5 1-27-8-24-9-27-12-24-13-4-4z" fill="#4A4949"/>
<path transform="translate(305,739)" d="m0 0 10 3 5 5 1 6-2 5-6 3v14l-5-1-1-14-6-1-5 10h-2l1-7 7-20z" fill="#1C1B1C"/>
<path transform="translate(208,692)" d="m0 0h7l5 3 3 5-1 9-5 6-4 2-8-1-5-5-1-2v-7l4-7z" fill="#FCFCFC"/>
<path transform="translate(542,27)" d="m0 0 6 1 30 10 32 14 29 16-3 2-6-1-14-8-26-13-26-10-24-8v-2z" fill="#2C2B2C"/>
<path transform="translate(547,742)" d="m0 0 7 1 5 5 1 3v10l-5 5-3 2-5-1-4-8-4-11 1-4z" fill="#FCFCFC"/>
<path transform="translate(728,577)" d="m0 0h6v3l-8 4-3 4-1 5 3 6 6 4h9l5-5 1-2v-6l-3-3v-2l-3 3-2 3h-3l1-4 3-6 3-1 10 6 2 3-4 10-4 6-5 3-8 1-9-4-6-8v-9l4-7z" fill="#1F1E1F"/>
<path transform="translate(599,625)" d="m0 0h3l-2 4-17 13-21 14-20 11-27 11-16 5h-8l2-2 11-3 6-2 7-3 9-3 5-1v-2l5-2h3v-2l4-2h4l1-3 6-2 5-4 6-3h2v-2l10-5 8-6 5-3 1-2 5-3 3-1z" fill="#0D0C0D"/>
<path transform="translate(207,688)" d="m0 0h9l6 4 5 6v10l-6 9-8 4h-7l-6-4-4-4-1-3v-8l3-7 7-6zm1 4-6 4-3 6v7l4 6 5 2 7-1 6-5 2-5v-6l-4-6-4-2z" fill="#2F2E2F"/>
<path transform="translate(13,450)" d="m0 0 2 3 2 13 4 32 6 27v9l5 18v2h-2l-7-23-6-27-3-17-1-16z" fill="#2D2C2C"/>
<path transform="translate(754,490)" d="m0 0 28 6 2 1-1 4-5 3-18 6-1 2 17 4 4 1v3l-11-1-19-4-1-4 5-3 20-8-4-2-15-4-2-1z" fill="#212020"/>
<path transform="translate(97,268)" d="m0 0 24 3 6 1-1 5-7 15h-2l-7-8-14-14z" fill="#FCFCFC"/>
<path transform="translate(544,739)" d="m0 0h11l6 4 3 7v12l-5 6-9 4h-5l-3-4-7-19-1-5 4-3zm3 3-8 3 1 6 6 15 2 2 6-1 5-4 1-2v-10l-4-7-4-2z" fill="#313030"/>
<path transform="translate(790,226)" d="m0 0 4 5 13 27 9 23 6 17v3h-2l-1 2-4-10-7-19-10-23-11-22z" fill="#272627"/>
<path transform="translate(27,529)" d="m0 0 2 4 9 29 11 28 9 19-2 4-4-8v-2h-3l-11-26-7-19-1-10-4-14z" fill="#333233"/>
<path transform="translate(503,752)" d="m0 0 4 2 3 15v11l-4 4-5 2h-8l-4-4-3-7-3-17 1-2h3l5 21 2 4 5 1 6-3v-8l-3-15z" fill="#393838"/>
<path transform="translate(257,716)" d="m0 0h2l-1 6-8 16 1 6 4 3 7-1 11-21 3 1-1 6-8 15-4 4-8 1-8-5-2-4 1-9 9-16z" fill="#1E1D1E"/>
<path transform="translate(543,820)" d="m0 0h3v2l-3 3-27 7-27 5-7 1h-13l-1-3 30-4 27-6z" fill="#2E2D2E"/>
<path transform="translate(390,760)" d="m0 0h9l5 3 1 4-2 4-2-6h-10l-2 3 6 5 8 5 1 1v9l-3 3-2 1h-9l-6-4-1-7h3l4 6 7 1 2-1 1-5-4-4-8-4-3-4 1-7z" fill="#171616"/>
<path transform="translate(267,41)" d="m0 0 3 1-1 3-30 14-20 11-11 7h-2v-4l5-4 29-16z" fill="#434242"/>
<path transform="translate(762,663)" d="m0 0h4l-2 5-9 12-7 9-2 3h-2l-2 4-11 12-4 1-4 5h-2l-2 4-9 9-3-1 24-24 9-11 11-13z" fill="#1B1A1B"/>
<path transform="translate(50,603)" d="m0 0h2l4 8h3l11 21 15 24 4 5v2h-5l-10-15-12-20-12-23z" fill="#2E2D2E"/>
<path transform="translate(105,536)" d="m0 0h5l5 16-1 3-5-8-2-6-4 1-4 2 2 13-3 1-3-12-10 2 1 7 2 5v4h-3l-6-17 4-3z" fill="#212021"/>
<path transform="translate(147,733)" d="m0 0 4 2 9 8 5 3 5 2 15 12 12 8 18 11-1 2 1 1-3 1-19-12-18-13-11-9-13-11z" fill="#343333"/>
<path transform="translate(698,622)" d="m0 0 2 2-6 8-1 1v5l4 2 5-1 5-6 3-1v3l-6 7 1 5 4 3h4l2-4 5-6h3l-2 4-8 11h-5l-11-9-10-7 1-5 8-10z" fill="#181717"/>
<path transform="translate(193,554)" d="m0 0 3 1 1 5h2l4 7v3h2l3 5 3 4v3h2l4 5v3l3 1 3 4v2l3 1 1 4h2l7 8 14 14 4 2 2 5-5-3-13-12-10-10-7-8-14-18-7-11-7-12z" fill="#141314"/>
<path transform="translate(762,182)" d="m0 0 5 5 11 17 12 20-1 4-3-1-10-17-7-11-10-14v-2z" fill="#2C2B2B"/>
<path transform="translate(790,617)" d="m0 0h2v7l-13 22-10 15-3 3-3-1 2-5 10-15 10-17z" fill="#161516"/>
<path transform="translate(595,801)" d="m0 0 3 1-5 5-23 9-24 8-4-1 4-1v-3l20-6z" fill="#0F0E0F"/>
<path transform="translate(643,775)" d="m0 0h2l1 4-23 13-21 11-6 2 1-5 17-8 20-11z" fill="#212020"/>
<path transform="translate(119,703)" d="m0 0 4 1 8 8 6 7 8 7 9 9 11 9v3l-9-6-7-7-5-3-12-11-6-6v-2l-4-2z" fill="#3C3B3B"/>
<path transform="translate(173,648)" d="m0 0 3 1-2 8-4 9 12-3 5-1 2 3-3 2-16 4-9 7h-3l2-5 5-5 5-13z" fill="#111011"/>
<path transform="translate(447,760)" d="m0 0h8l1 3-9 1 1 13v15h-4l-1-7-1-20-9-1v-3z" fill="#403F3F"/>
<path transform="translate(542,27)" d="m0 0 6 1 30 10 14 6-3 3-9-3-27-10-13-4v-2z" fill="#403F3F"/>
<path transform="translate(124,579)" d="m0 0 4 1 9 16v3h-4l-3-6-5 2-15 8-6 1 1-4 20-11h2l-1-5-2-2z" fill="#1D1C1C"/>
<path transform="translate(600,712)" d="m0 0h2l2 21 4 9v3l-4-2-4-6-10-7-8-6 1-3 10 5 7 6-1-7v-12z" fill="#2F2E2E"/>
<path transform="translate(630,256)" d="m0 0 4 2 12 16 10 16 9 16 2 4v4h-2l-2-8h-2l-3-6-3-5-2-3-6-10v-3l-4-2-4-6v-3l-3-1-7-9z" fill="#121111"/>
<path transform="translate(90,491)" d="m0 0h6l-1 4-22 5h-2l1 16-3-2-4-16 8-3z" fill="#1C1B1C"/>
<path transform="translate(557,741)" d="m0 0 4 2 3 7v12l-5 6-9 4h-5l-2-2 1-4 8 1 6-4 1-2v-10l-2-4z" fill="#201F20"/>
<path transform="translate(633,69)" d="m0 0h7l15 9 11 8 1 4 2 4-36-24z" fill="#232223"/>
<path transform="translate(656,669)" d="m0 0h4l-1 6 5 4v2h2v3l4 2 5 4 4-1-2 5-5 1-17-17-2-3 1-4z" fill="#161515"/>
<path transform="translate(317,748)" d="m0 0 4 1-1 8-5 3-2 1v14l-5-1-1-14-4-1v-3h10l2-1z" fill="#151415"/>
<path transform="translate(675,675)" d="m0 0 5 2 3 4-2 4-4 5-3 1-7-7 1-4z" fill="#FCFCFC"/>
<path transform="translate(757,507)" d="m0 0 2 1 1 2-1 2 17 4 4 1v3l-11-1-19-4-1-4 5-3z" fill="#3E3D3D"/>
<path transform="translate(411,159)" d="m0 0h30l14 1v2l-11 1h-53v-1l18-2z" fill="#131213"/>
<path transform="translate(804,588)" d="m0 0 2 1-1 9-10 21-3 3-1-5 2-6z" fill="#252424"/>
<path transform="translate(305,744)" d="m0 0h6l5 4 1 3-2 5-2 1-9-1-1-5z" fill="#FCFCFC"/>
<path transform="translate(27,529)" d="m0 0 2 4 9 29 4 11-1 2-2-1-2-7-2 2-4-11-1-10-4-14z" fill="#353434"/>
<path transform="translate(666,87)" d="m0 0 4 2 12 9 5 4v4l4 2 5 5-2 1-25-20-4-6z" fill="#2A2A2A"/>
<path transform="translate(666,666)" d="m0 0 5 2 2 4-6 8-5-1-4-4 1-4 5-4z" fill="#FCFCFC"/>
<path transform="translate(543,820)" d="m0 0h3v2l-3 3-22 6h-18v-1l26-6z" fill="#2D2C2C"/>
<path transform="translate(63,418)" d="m0 0 5 5 3 1 1-2 3 3-7 5-11 4-1-2 5-12z" fill="#1D1C1C"/>
<path transform="translate(50,603)" d="m0 0h2l4 8h3l11 21-2 2-4-2-14-27z" fill="#272627"/>
<path transform="translate(92,541)" d="m0 0h5v3l-3 2-9 2 1 7 2 5v4h-3l-6-17 4-3z" fill="#272626"/>
<path transform="translate(811,270)" d="m0 0 2 3 9 25v3h-2l-1 2-4-10-5-14z" fill="#353434"/>
<path transform="translate(484,167)" d="m0 0h9l19 6 16 6 9 4v1l-9-1-8-4-4-1v-2l-7-1-6-1v-2l-14-2-5-2z" fill="#171616"/>
<path transform="translate(196,698)" d="m0 0 2 3 3 10 4 4 8 1 2 1 1 1v2l-3 1h-7l-6-4-4-4-1-3v-8z" fill="#333232"/>
<path transform="translate(205,73)" d="m0 0 3 1-2 4-18 12-9 3 2-4 19-13z" fill="#282727"/>
<path transform="translate(738,543)" d="m0 0 7 1 21 8 2 1v3l-7-1-21-8-2-1z" fill="#171616"/>
<path transform="translate(257,716)" d="m0 0h2l-1 6-8 16v6l-4 1-1-2 1-9 9-16z" fill="#232223"/>
<path transform="translate(22,512)" d="m0 0 2 1 3 12v9l5 18v2h-2l-7-23-2-9v-7z" fill="#353434"/>
<path transform="translate(392,689)" d="m0 0h32l13 1-2 2h-35l-8-1z" fill="#100F10"/>
<path transform="translate(390,760)" d="m0 0h9l5 3 1 4-2 4-2-6h-10l-2 3 3 4-5 1-2-3 1-7z" fill="#1E1D1E"/>
<path transform="translate(207,688)" d="m0 0h9l4 2-1 3h-11l-5 3-4 7-2-2v-5l8-7z" fill="#1F1E1F"/>
<path transform="translate(220,595)" d="m0 0 6 3 1 4h2l7 8 14 14 4 2 2 5-5-3-13-12-10-10-7-8z" fill="#181718"/>
<path transform="translate(570,811)" d="m0 0h3l-1 3-4 1-3 3-19 6-4-1 4-1v-3l20-6z" fill="#1D1C1D"/>
<path transform="translate(728,577)" d="m0 0h6v3l-8 4-3 4-1 7-4 2v-9l4-7z" fill="#313030"/>
<path transform="translate(535,184)" d="m0 0 6 1 21 11 6 4v2l-5-1-21-12-6-3z" fill="#0C0B0C"/>
<path transform="translate(778,496)" d="m0 0 6 1-1 4-5 3-15 5h-5l4-4 10-4 7-1z" fill="#171616"/>
<path transform="translate(300,819)" d="m0 0 8 1 16 5v2l-5 1-21-6-1-2z" fill="#454444"/>
<path transform="translate(790,226)" d="m0 0 4 5 7 15-2 3-5-6-7-15z" fill="#393838"/>
<path transform="translate(182,91)" d="m0 0 3 1-18 14-7 5 1-4 10-10 6-5z" fill="#403F3F"/>
<path transform="translate(329,672)" d="m0 0 20 6 14 4 1 2-15-2-23-8z" fill="#1E1D1D"/>
<path transform="translate(195,768)" d="m0 0 5 2 15 9-1 2 1 1-3 1-17-11z" fill="#2B2A2B"/>
<path transform="translate(147,733)" d="m0 0 4 2 9 8 5 3 5 2 7 6-2 1-1 2-10-8-13-11z" fill="#252425"/>
<path transform="translate(762,663)" d="m0 0h4l-2 5-9 12-4 4-1-3 3-6z" fill="#131213"/>
<path transform="translate(484,756)" d="m0 0h3l4 17v4l-4 1-3-12-1-9z" fill="#403F3F"/>
<path transform="translate(544,739)" d="m0 0h11l2 1v5l-5-2-9 1-6 2-2 3-1-5 4-3z" fill="#373636"/>
<path transform="translate(776,205)" d="m0 0 4 2 10 17-1 4-3-1-7-12v-7h-2z" fill="#1C1B1B"/>
<path transform="translate(739,580)" d="m0 0 5 1 8 5-1 2h-2l-2 3-4-4v-2l-3 3-2 3h-3l1-4 3-6z" fill="#1B1A1A"/>
<path transform="translate(185,662)" d="m0 0 4 2-3 3-16 4h-3l1-5 7-1z" fill="#2F2E2E"/>
<path transform="translate(256,629)" d="m0 0 3 1v2l5 2 6 5v2l5 1 7 5v3l-5-2-12-9-9-7z" fill="#131212"/>
<path transform="translate(599,625)" d="m0 0h3l-2 4-17 13-4 3h-2l2-4 6-5 5-3 1-2 5-3 3-1z" fill="#131213"/>
<path transform="translate(707,123)" d="m0 0 4 2 5 2 11 11-1 3-4-2-15-15z" fill="#3C3B3B"/>
<path transform="translate(582,721)" d="m0 0 7 3 6 4 3 3v2h2v2l-4-1-13-9z" fill="#282727"/>
<path transform="translate(826,530)" d="m0 0h1v7l-4 13h-3l-1-3 4-13 3-1z" fill="#373737"/>
<path transform="translate(542,27)" d="m0 0 6 1 13 4-2 1v2l-10-2-9-3v-2z" fill="#414141"/>
<path transform="translate(655,80)" d="m0 0 4 1 7 5 1 4 2 4-9-6-7-5v-2z" fill="#1C1B1B"/>
<path transform="translate(622,60)" d="m0 0 6 2 11 6-3 2-6-1-10-6v-2z" fill="#2E2D2D"/>
<path transform="translate(118,593)" d="m0 0 3 1-2 4-12 6h-3l1-4z" fill="#1D1C1D"/>
<path transform="translate(97,539)" d="m0 0 7 1-3 3-2 1 2 13-3 1-4-13 3-3-3-2z" fill="#313031"/>
<path transform="translate(728,707)" d="m0 0 2 2-25 25-2-2 16-15 2-3h2l2-4z" fill="#403F3F"/>
<path transform="translate(750,679)" d="m0 0 3 1-2 2-1 5-4 5h-2l-1 2h-3v-3z" fill="#242424"/>
<path transform="translate(216,66)" d="m0 0 5 1v2l-13 8h-2v-4l5-4z" fill="#403F3F"/>
<path transform="translate(86,662)" d="m0 0 5 2 6 8v2h-3l-1 2-8-11z" fill="#454444"/>
<path transform="translate(66,497)" d="m0 0 3 1h-2v2l6-1-2 1 1 16-3-2-4-16z" fill="#363535"/>
<path transform="translate(662,763)" d="m0 0m-2 1 2 1-3 3-1 3-11 7-2-1v-3l14-9z" fill="#191819"/>
<path transform="translate(741,692)" d="m0 0 2 1-2 4-8 9-4-2 8-9z" fill="#161516"/>
<path transform="translate(19,492)" d="m0 0h1l3 15-1 8-2 4-1-9-1-15z" fill="#424141"/>
<path transform="translate(655,291)" d="m0 0 4 4 8 15v4h-2l-2-8h-2l-3-6-3-5z" fill="#141313"/>
<path transform="translate(751,168)" d="m0 0 5 5 6 8-1 3-5-3-4-7z" fill="#181718"/>
<path transform="translate(796,244)" d="m0 0 3 3h3l4 9v2h-2v2h-2l-6-13z" fill="#212021"/>
<path transform="translate(307,760)" d="m0 0 3 3 1-3 2 1v14l-5-1z" fill="#252424"/>
<path transform="translate(167,662)" d="m0 0h1l1 8-8 8h-3l2-5 5-5z" fill="#1F1E1E"/>
<path transform="translate(749,587)" d="m0 0 5 1-4 11-3 1-1-4z" fill="#3A3939"/>
<path transform="translate(821,548)" d="m0 0h1l-1 8-2 7h-4l1-7 2-6z" fill="#1A191A"/>
<path transform="translate(79,651)" d="m0 0h3l7 10v2h-5l-5-7z" fill="#343334"/>
<path transform="translate(680,99)" d="m0 0 5 1 2 2v4l4 2 5 5-2 1-10-8-2-2v-3h-2z" fill="#3D3C3C"/>
<path transform="translate(610,53)" d="m0 0 6 2 7 4-3 3-6-2-4-3-1-3z" fill="#3C3B3C"/>
<path transform="translate(772,197)" d="m0 0 5 5 1 3-1 3h2l1 4-2 1-8-13v-2z" fill="#292829"/>
<path transform="translate(207,193)" d="m0 0 3 1-8 7-14 14v-3l8-8 7-8z" fill="#292829"/>
<path transform="translate(576,39)" d="m0 0 6 1 10 4-3 3-12-4z" fill="#3A3939"/>
<path transform="translate(370,685)" d="m0 0h12l9 3v1h-12l-9-2z" fill="#151414"/>
<path transform="translate(687,103)" d="m0 0 5 3 10 9-2 3-4-2-3-5-6-5z" fill="#181718"/>
<path transform="translate(773,650)" d="m0 0 2 2-8 12-4-1 2-5 5-4z" fill="#292828"/>
<path transform="translate(248,730)" d="m0 0 1 3h2l-1 11-4 1-1-2 1-9z" fill="#383737"/>
<path transform="translate(207,688)" d="m0 0h9l4 2-1 3-14-1z" fill="#181717"/>
<path transform="translate(510,676)" d="m0 0 5 1-4 2-12 4h-8l2-2 11-3z" fill="#191819"/>
<path transform="translate(205,73)" d="m0 0 3 1-2 4-8 5-3-1 3-5z" fill="#171616"/>
<path transform="translate(503,752)" d="m0 0 4 2v9l-2 4-2-6-1-8z" fill="#252424"/>
<path transform="translate(601,728)" d="m0 0 2 3 5 11v3l-4-2-3-4z" fill="#181718"/>
<path transform="translate(709,632)" d="m0 0 2 2-7 8-2 4-1-2-4-2 4-2 6-7z" fill="#292828"/>
<path transform="translate(26,528)" d="m0 0 1 4 3 14 2 8h-2l-6-19v-6z" fill="#1F1E1F"/>
<path transform="translate(383,781)" d="m0 0h3l4 6 6 2v1l-8 1-5-5z" fill="#353434"/>
<path transform="translate(220,691)" d="m0 0 6 5 1 2v6l-2-4h-3l-3-5-4-3z" fill="#3A3939"/>
<path transform="translate(595,801)" d="m0 0 2 1-8 5-10 4h-6l3-2z" fill="#403F3F"/>
<path transform="translate(667,759)" d="m0 0 4 1-1 3-11 7v-3l5-6z" fill="#1D1C1D"/>
<path transform="translate(165,102)" d="m0 0 2 1-6 5-1 4-4 3-4-1 5-6z" fill="#1B1A1A"/>
<path transform="translate(719,594)" d="m0 0 4 1 3 5 5 4h-8l-4-5z" fill="#171617"/>
<path transform="translate(516,827)" d="m0 0 7 1 1 2-5 1h-16v-1z" fill="#403F3F"/>
<path transform="translate(109,693)" d="m0 0 5 5h4l3 5v4h-2l-7-8-3-4z" fill="#252425"/>
<path transform="translate(73,407)" d="m0 0 2 1-8 8v4l4 2 1 3-4-1-4-5 2-5z" fill="#909090"/>
<path transform="translate(744,366)" d="m0 0 3 1-2 5-1 3-3 1-3-3z" fill="#2F2E2E"/>
<path transform="translate(554,817)" d="m0 0 3 1-4 4-7 2-4-1 4-1v-3z" fill="#171616"/>
<path transform="translate(36,559)" d="m0 0 2 3 4 11-1 2-2-1-2-7-2 2-1-6z" fill="#414040"/>
<path transform="translate(744,162)" d="m0 0 6 3 2 3 1 6-3-1-7-9z" fill="#333232"/>
<path transform="translate(447,760)" d="m0 0h8l1 3-12 2-1-3z" fill="#2A2929"/>
<path transform="translate(311,741)" d="m0 0 5 2 4 4-1 2-2-1-1 2-5-5-6-1v-1z" fill="#2E2D2D"/>
<path transform="translate(50,603)" d="m0 0h2l4 8h3v6l1 4h-2l-8-16z" fill="#131213"/>
<path transform="translate(769,502)" d="m0 0 3 1v3l-9 3h-5l4-4z" fill="#212021"/>
<path transform="translate(71,640)" d="m0 0 5 5 3 1 2 6-1 2-3-1-6-10z" fill="#1F1E1F"/>
<path transform="translate(205,775)" d="m0 0 5 1 5 3-1 2 1 1-3 1-8-5z" fill="#232222"/>
<path transform="translate(790,617)" d="m0 0h2v7l-4 5-3-1 2-6z" fill="#1B1A1B"/>
<path transform="translate(795,610)" d="m0 0 2 1-1 6-4 5-1-5 2-6z" fill="#2C2B2C"/>
<path transform="translate(635,587)" d="m0 0h2l-1 4-9 11h-2l2-6 4-3v-2l3-1z" fill="#111010"/>
<path transform="translate(484,756)" d="m0 0h3v15l-2-1-2-13z" fill="#171617"/>
<path transform="translate(211,582)" d="m0 0h2l4 5v3l3 1 3 4-1 2-5-4-6-8z" fill="#111011"/>
<path transform="translate(647,279)" d="m0 0 3 1 6 10-3 2-6-10z" fill="#131212"/>
<path transform="translate(389,771)" d="m0 0 10 4 1 3-7-1-5-3z" fill="#161516"/>
<path transform="translate(528,669)" d="m0 0m-2 1h2v3l-11 4h-5l5-4z" fill="#111011"/>
<path transform="translate(698,622)" d="m0 0 2 2-6 8-5 2 2-4z" fill="#262525"/>
<path transform="translate(814,562)" d="m0 0 4 1-3 11-4-2z" fill="#302F2F"/>
<path transform="translate(802,421)" d="m0 0 1 3-4 3h-3l-4 2-1 3h-2v-6l6-1 5-3z" fill="#3E3D3D"/>
<path transform="translate(484,167)" d="m0 0h9l10 3v2l-14-2-5-2z" fill="#181717"/>
<path transform="translate(514,830)" d="m0 0h5l-3 2-9 2h-8v-2z" fill="#131213"/>
<path transform="translate(605,796)" d="m0 0 2 1-3 5-8 3 1-5z" fill="#2A292A"/>
<path transform="translate(387,762)" d="m0 0 1 2 3 1-2 3 3 4-5 1-2-3 1-7z" fill="#393838"/>
<path transform="translate(685,679)" d="m0 0 1 4-3 5-5 4v-5l5-6z" fill="#272626"/>
<path transform="translate(785,630)" d="m0 0 2 3-8 13-2-1 1-4h2l1-4z" fill="#363535"/>
<path transform="translate(719,585)" d="m0 0h3l1 3-1 7-4 2v-9z" fill="#403F3F"/>
<path transform="translate(201,569)" d="m0 0 4 1 3 5 3 4v5l-4-4-6-9z" fill="#1C1B1B"/>
<path transform="translate(59,613)" d="m0 0 3 4 3 6-1 3-2-1v-2h-3l-1-8z" fill="#323131"/>
<path transform="translate(543,820)" d="m0 0h3v2l-3 3-10 1 1-2h3v-2z" fill="#272627"/>
<path transform="translate(462,163)" d="m0 0h13l4 2v1h-11l-6-2z" fill="#111011"/>
<path transform="translate(543,766)" d="m0 0 5 1v2h4v2l-7 1-2-2z" fill="#171616"/>
<path transform="translate(706,727)" d="m0 0 2 1-4 5-2 4-5 1v-3z" fill="#212021"/>
<path transform="translate(591,727)" d="m0 0 4 1 3 3v2h2v2l-4-1-6-4z" fill="#171616"/>
<path transform="translate(185,662)" d="m0 0 4 2-3 3h-9l1-2z" fill="#1E1D1D"/>
<path transform="translate(196,698)" d="m0 0 2 3 2 10-3-2-2 1v-8z" fill="#403F3F"/>
<path transform="translate(738,543)" d="m0 0 7 1 3 2-1 3-9-3z" fill="#222122"/>
<path transform="translate(213,780)" d="m0 0 5 1 3 3 2 4-6-2-4-4z" fill="#3A3939"/>
<path transform="translate(488,776)" d="m0 0 4 1 3 5v2h-5l-2-4z" fill="#181718"/>
<path transform="translate(399,776)" d="m0 0 4 2 1 1v9l-3 3-2-1 3-3 1-7h-2l-1 2-3-4z" fill="#3C3B3B"/>
<path transform="translate(762,663)" d="m0 0h4l-2 5-3 3-3-1 2-4z" fill="#121112"/>
<path transform="translate(809,582)" d="m0 0 1 4-3 7-2-2v-6l1-2z" fill="#201F1F"/>
<path transform="translate(36,566)" d="m0 0 2 2 1 6 4 1v4h-4l-3-7z" fill="#292829"/>
<path transform="translate(754,490)" d="m0 0 15 3-3 2h-2v-2l-9 1-2-1z" fill="#2F2E2E"/>
<path transform="translate(182,91)" d="m0 0 3 1-7 5-5-1 4-4z" fill="#4A4949"/>
<path transform="translate(446,778)" d="m0 0h1v13h-3v-8z" fill="#060506"/>
<path transform="translate(664,663)" d="m0 0 3 1-2 1 1 2-6 3-4-2z" fill="#2F2E2E"/>
<path transform="translate(109,598)" d="m0 0h2v2l2 1-6 3h-3l1-4z" fill="#2F2E2E"/>
<path transform="translate(124,579)" d="m0 0 4 1 3 5v2l-4-1-3-4z" fill="#252424"/>
<path transform="translate(111,542)" d="m0 0 2 4 2 9-4-4-2-4 1-3z" fill="#2D2C2C"/>
<path transform="translate(784,218)" d="m0 0 3 1 3 5-1 4-3-1-1-7z" fill="#141314"/>
<path transform="translate(167,100)" d="m0 0 3 1-3 5-7 5 1-4 5-5z" fill="#313030"/>
<path transform="translate(601,50)" d="m0 0 9 3 1 4-5-1-6-3z" fill="#2B2A2A"/>
<path transform="translate(538,741)" d="m0 0 5 1v2l-6 2-2 3-1-5z" fill="#403F3F"/>
<path transform="translate(680,674)" d="m0 0 4 1 1 7-3-1-3-4z" fill="#131212"/>
<path transform="translate(804,588)" d="m0 0 2 1-1 9-2 2-1-7z" fill="#3B3A3B"/>
<path transform="translate(350,680)" d="m0 0 12 1 2 3-11-1v-2z" fill="#080708"/>
<path transform="translate(173,648)" d="m0 0 3 1-2 8h-3l-1-2z" fill="#232222"/>
<path transform="translate(660,302)" d="m0 0h3l4 8v4h-2l-2-8h-2z" fill="#151415"/>
<path transform="translate(537,745)" d="m0 0h2v8l1 5-3-3-1-9z" fill="#0D0C0D"/>
<path transform="translate(80,546)" d="m0 0 4 1v9h-2l-3-9z" fill="#121111"/>
<path transform="translate(599,48)" d="m0 0 9 3 2 2-6-1h-3l-5-1z" fill="#474646"/>
<path transform="translate(257,716)" d="m0 0h2l-1 6-5 2 1-4z" fill="#212020"/>
<path transform="translate(786,627)" d="m0 0 2 1-1 4-2-1-3 6h-2l2-6z" fill="#121112"/>
<path transform="translate(815,288)" d="m0 0 2 2 3 10-1 3-4-10z" fill="#171617"/>
<path transform="translate(623,249)" d="m0 0 4 1 4 6-5-1-3-4z" fill="#0D0C0D"/>
<path transform="translate(699,116)" d="m0 0h5l4 5-3 1-3-3h-3z" fill="#3B3A3A"/>
</svg>
