<?xml version="1.0" encoding="UTF-8"?>
<svg version="1.1" viewBox="0 0 1097 1600" width="360" height="525" xmlns="http://www.w3.org/2000/svg">
<path transform="translate(0)" d="m0 0h1097v1600h-1097z" fill="#F8FCFC"/>
<path transform="translate(231,1144)" d="m0 0h299l8 9 1 33 1 101 2-15 9-1 2 1-1 16-3 5-5 5h19l4 5 1 12 2 5 1 7v11l-1 6h-3l-1-8-3-1v2h-2v22l-1 30h139l1-4h-8l2-4h2v2l8-1v-2l-4-1-6-3v-3l6-1 2-5 3-1 12-1 9-1 2-4 2 1v4h4v-2l3-2-1-7-1-5v-8l-4-1v-4l-1-5-5-1-2-7 2-5h3v2h5l2 2 7-1 5 6 2 1v2l3-1-5-6-4-7-5-4-1-2v-36l-2-3-2-26-7-3-5-7v-2l-12-3-1-1v-7l2-9 15-1-17-1-12-9 1-3 32 1 7 1-3-11v-14l4-9 4-4 3-1 24-1 3-1 58-4h25l14 2 75 1 33 3 18 2 4 2 18 1 7 2 1 3-7 1v5l-1 1v21l3 4 3 1-1 3-9-1v2h2v18l-1 2h-3l-1 2 6 2 2 2 1 20 10 3 30 11 16 6 23 1v324h-1097v-330h41l20 2 3-16 4-94 2-10 8-7z" fill="#CDBFAF"/>
<path transform="translate(231,1144)" d="m0 0h299l8 9 1 39v261l-3 1-46 2-1 6-3 2 1-6 1-2-28 1-5 1h28v16l-1 1h-21l-4-3-2 3h-23l-1-4-4 1-1-2-4-1 1 2 4 2-1 2h-21v-3h-3v3l-2 1h-22l-1-3-3-1 1 3-1 1-97 1h-69l-2-1 2-5v-2l-5 7h-32l1-4h-3v4h-25v-4h-2l-1 4-24 1-1-2 1-3-2 1-2 4h-23v-3l13-13 5-3-4 1-4 2-1 2v-2h-2l-1-2-27-2-11-2-1-1 1-43 5-118 2-62 3-69 2-10 8-7z" fill="#010100"/>
<path transform="translate(829,1156)" d="m0 0h25l14 2 75 1 33 3 18 2 4 2 18 1 7 2 1 3-7 1v5l-1 1v21l3 4 3 1-1 3-9-1v2h2v18l-1 2h-3l-1 2 6 2 2 2 1 20 10 3 30 11 16 6 23 1v231h-64l-63-1h-35l-18-1-77-1h-53l-26-1-20-3-7-2-8-1v-1l-7-2v-2l-7-2-6-3 2-7 5-2-3-5 12 1v-3h5l1-3 5 2 6-2 2-2 4-1-13-2-10-9-3-3 2 8-2 1h-6v-5h-3v5l-9-1-5-3v-2l-3-1v-2l8-2v-2h-7l-1-1v-5l1 4 12-2 2-3-4 1v-2l-4-1h4v-16l3-5h-59l-2 5-1-2 3-5 4-1 54 1 20 1-4-4-15-1v-2l-3-1-1-2-1-10h-6l-1 4 6 7-1 2-4-4v-2h-3l-1-6-7 1-17 7-5 1 3-3 23-10 10-4 1-4h-8l2-4h2v2l8-1v-2l-4-1-6-3v-3l6-1 2-5 3-1 12-1 9-1 2-4 2 1v4h4v-2l3-2-1-7-1-5v-8l-4-1v-4l-1-5-5-1-2-7 2-5h3v2h5l2 2 7-1 5 6 2 1v2l3-1-5-6-4-7-5-4-1-2v-36l-2-3-2-26-7-3-5-7v-2l-12-3-1-1v-7l2-9 15-1-17-1-12-9 1-3 32 1 7 1-3-11v-14l4-9 4-4 3-1 24-1 3-1z" fill="#BCBDBF"/>
<path transform="translate(538,1192)" d="m0 0h1l1 95 2-15 9-1 2 1-1 16-3 5-5 5h19l4 5 1 12 2 5 1 7v11l-1 6h-3l-1-8-3-1v2h-2v52l1 11 2 5 1 7 9 4 2 2-1 4v2h10l13 2 8 4 1 4-1 6v4l2 1v1l9 1-1 3-2 1-21 2-1 2-19 3-3 1-5 5-4 2-3 3-3 1-3 6 3 1 11 1 1 2-11 3 2 6h2l1 3v11h-2l1 8-7 5-5 3-1 1-7 1-42 1-20 1 1 3-4 1-35 1-19 1h-1v-5l16-1-3-1h-172l-4 1h-8l-2-1h-47l-13 1h-89l-41 1-1 1-9 1h-47v-256h41l20 2 2-13h1v34l-5 118-1 43 11 2 27 2 1 3 5-1 3-3h21v1l-18 1-8 6-10 10 1 1h22l2-4h2v4h24l1-4h2v4h25v-4h3l-1 4 32-1 4-6h3l-4 7h84l84-1v-3l4 1v3l24-1v-3h3v3l21-1-4-3v-2l5 1 4 1 1 4 23-1 3-3 3 3h21l1-16-28 1-1-2 6-1h28l-1 7 2-5 1-3 49-2-1-87z" fill="#8D95A1"/>
<path transform="translate(1071,1538)" d="m0 0h6l2 1 18 1v60h-1097v-20l8-1v2l4-1 30-1 37-1 26-1 35 1 53-1 78 1 11 1h16v-2h13l1-1 9 1 1 1h13l2-1 7 1 8-1 5-1h35l2-1h19l5-1 19-1 14-3h17l10-2 28-2 10-1 21-1 3-1 1-2h-7l-2-4 4-1h2v-2h-3v-2l-9-1 3-2 28-2h24l20-1h19l3 1 1-2 17-1 44-1h62l8-1 35-1 4-1z" fill="#A27A52"/>
<path transform="translate(728,1360)" d="m0 0 2 1v4l9-1 4-2h3l1 7v8l-1 3h-9v2l9 1 2 2 1 4 8 7 21 21 6 1-1-4 3-1 59-2 49-2 19-1 6-2h9v2h6l2-2 5 1h3l2-5 25-5h3v-2h-13l1-2 18-4 18-5h6v-2l10-2 24-1 10-2h8l8 2 6 1v2l10-1 7 1 4 2v2h6v121h-64l-63-1h-35l-18-1-77-1h-53l-26-1-20-3-7-2-8-1v-1l-7-2v-2l-7-2-6-3 2-7 5-2-3-5 12 1v-3h5l1-3 5 2 6-2 2-2 4-1-13-2-10-9-3-3 2 8-2 1h-6v-5h-3v5l-9-1-5-3v-2l-3-1v-2l8-2v-2h-7l-1-1v-5l1 4 12-2 2-3-4 1v-2l-4-1h4v-16l3-5h-59l-2 5-1-2 3-5 4-1 54 1 20 1-4-4-15-1v-2l-3-1-1-2-1-10h-6l-1 4 6 7-1 2-4-4v-2h-3l-1-6-7 1-17 7-5 1 3-3 23-10 10-4 1-4h-8l2-4h2v2l8-1v-2l-4-1-6-3v-3l6-1 2-5 3-1 12-1 9-1z" fill="#96806D"/>
<path transform="translate(1017,1254)" d="m0 0 22 8 27 10 8 3 23 1v100h-16l-1-2 10-1-17-2-15-6-9-2-25-2-14-5-8-4v-2l-6-1-13-5-12-1-2 4-22 1-15 1v2l7 2 16 6 13 6 6 2v2l2 1-7-1-12-6-20-8-7-1-15 2-6 3-8 3-12 2v2h2v2l-15 2-25 2-17 2-78 1-4 5h-2l-2-20-1-2-1-23 2-1 7 4 1-6 85-1-25-1-48-1-12-1-1-4v-3-1l6-2 2-6v-7l1-7v-4l-7-2-3-4-1-7v-3l2 2 4 1 1-5h243l1 13v19l-3 23-2 5-6 1-22 1-126 1-1 2 25-1 126-1 17 2v2l53-1-37-1 1-11 2-8 1-2-15-9-3-3-1-3-2-28-2-2 8-1 1-7-1-8-1-2z" fill="#8E96A2"/>
<path transform="translate(221,1540)" d="m0 0h65l12 1h34l31-1h24l30 1h37l6-1 21 1 171-1h142l-4 2-39 1-4 1h-75l-31 1-17 1-4 1h-25l-22 1h-16l-28 2 6 2v2h3v2l-5 1 2 3 6 1-1 3-7 1-17 1-15 1-24 2-9 2h-17l-15 3-22 1-5 1h-15l-7 1h-34l-7 2h-7l-3-1-5 1h-9l-5-2h-5l-1 1h-10l-3-1v2l-19 1-8-1-79-1-54 1-41-1-18 1-47 1-24 1-1-1h-7v-38l129-1h39z" fill="#B79777"/>
<path transform="translate(134,1580)" d="m0 0h5v2l52 1 123-1h282l175-1h326v19h-1097v-18h105l28 1z" fill="#3B2C1D"/>
<path transform="translate(561,1389)" d="m0 0h131l6 1-4 2-26 11-4 2 6-2 15-6 8-1v7h3l3 3-5-6 1-4 1-1h6l1 1 1 10 3 3v2h15l4 3v2h-20l-56-1-3 2v2l1-2h59l-2 5v13l-1 4 4 1-2 4-12 1v1l7 1v2h6v1l-14 1 3 3v2l5 2 9 2v-5h3v5l8-1-3-5 1-4 8 7 5 5 14 2-1 2-5 2-2 2-6 1-4-2-1 2h-5v3h-11l3 5-6 2-1 6 6 3 7 2 1 2 6 1v1l12 2 6 2 20 2 29 1h63l61 1 23 1h42l50 1h22l42 1v18h-37l-2-1v-2l-14-1-15-2h-12l-21-1-9-1-21-2-32-1-23-1-34-2h-28l-60-1h-30l-22-2-11-2-7-3-16-2-7-2-13-2-2-2v-3l-12-2-4-2v-2l14-1 4-1 1-2h2l-1-5 1-6-12-2 3-3 1-3-17-1-2-1h-8l-18-4-8-2-2-2h-11l-10 4-16 2h-5v2l-15 6h-2v2h-2l1 3-4 3 6 2v1h-10l-3-2 2-6 6-2 1-3 5-3 3-1 1-3 21-4 5-2 18-2 3-3h-9l-3-7 1-10-5-1-3-2-23-3-1-5v-2l-5-2-5-3-2-11-1-1z" fill="#C0AF9B"/>
<path transform="translate(1017,1254)" d="m0 0 22 8 27 10 8 3 23 1v100h-16l-1-2 10-1-17-2-15-6-9-2-25-2-14-5-8-4v-2l-6-1-13-5-12-1-2 4-22 1-15 1v2l7 2 16 6 13 6 6 2v2l2 1-7-1-12-6-20-8-7-1-15 2-6 3-8 3-12 2v2h2v2l-15 2-25 2-17 2-78 1-2 1v-33l1-3h2v3h50l37-1v-1l25-1 126-1 17 2v2l53-1-37-1 1-11 2-8 1-2-15-9-3-3-1-3-2-28-2-2 8-1 1-7-1-8-1-2z" fill="#8E96A1"/>
<path transform="translate(538,1366)" d="m0 0h1v87l-3 1-46 2-1 6-3 2 1-6 1-2-28 1-5 1h28v16l-1 1h-21l-4-3-2 3h-23l-1-4-4 1-1-2-4-1 1 2 4 2-1 2h-21v-3h-3v3l-2 1h-22l-1-3-3-1 1 3-1 1-97 1h-69l-2-1 2-5v-2l-5 7h-32l1-4h-3v4h-25v-4h-2l-1 4-24 1-1-2 1-3-2 1-2 4h-23v-3l13-13 5-3-4 1-4 2-1 2v-2h-2l-1-2-27-2-11-2-1-1v-12h1v5l369-1h111z" fill="#090908"/>
<path transform="translate(563,1405)" d="m0 0 1 4 2 4 6 2 4 3-1 4v2h10l13 2 8 4 1 4-1 6v4l2 1v1l9 1-1 3-2 1-21 2-1 2-19 3-3 1-5 5-4 2-3 3-3 1-3 6 3 1 11 1 1 2-11 3 2 6h2l1 3v11h-2l1 8-7 5-5 3-1 1-7 1-42 1-20 1 1 3-4 1-35 1-19 1h-1v-5l16-1-3-1h-172l-4 1h-8l-2-1h-47l-13 1h-89l-41 1-1 1-9 1h-47v-28l8 1 3 1v2l-6 1 2 1v2h4v2h10v-2h2v2h6l1-3h2v-2h28l1 3 6 1 1-3h3v2h6l-1-2 6-1-1 3 2 1h157v-2l68-1v2l134-1 34-1v-2h2v3l52-1v-3l1-3 16-3 3-2-1-6-3-10-3-14-1-6 4-4 11-2 1-4 4-4-1-35z" fill="#B8A48D"/>
<path transform="translate(1039,1542)" d="m0 0 1 2 3-1h54v38l-523 2v-1l20-1 1-2 9-3v1l9 1v-2l3-2h5 2l4-1 26-1h38l6-1 6 2 1-3-5-5v-1l17-1 62-1h21l70-1 8-2 2 2 6-2 10-3 11-1 14-2 2-3h5v-2l-2-1 24-1h11l4-2 4 2h47l21-3z" fill="#926C45"/>
<path transform="translate(63,1259)" d="m0 0h1v34l-5 118-1 31-1 13-5-1v-7l1-8h-53v-169h41l20 2z" fill="#BDBEC1"/>
<path transform="translate(1079,1381)" d="m0 0 8 1 4 2v2h6v106l-22 2-192 1h-149l-4-2 109-1 165-3 29-1h45l-1-3-10-2v-10l1-7 2-1h9v-4h-44l-105 2h-86l-22-1-14-2-49-2-11-1-2-1v-5h2v-2h-2v-5h33l3-1-7-1-29-1v-2l11-1 3-1-16-3v-1h5l-1-3h-8l-2-4h42l66 1v1l-5 1h-39v3h11l-3 3h6v-3h8l5-1h21l1 5 6 1-1-4 8-1 7 1-2 3v-2l-5 1v3l7 1 6 2-2 2-9 1h-70l1 1 23 1 45 1 13 1v2l-9 1 1 1 31 1 8 1v1l-33 1h-57l1 1 20 1h41l22-2 7-1h66l3-1-5-1-36-1-9-1-1-2h94l2-1-38-1-11-1v-1h39l51 2 12 1-1-3-1-15 1-10-22 1-5 1h-7l1-2 12-2 19-1 8-2-1-3-28 3h-7l-2-3 9-2 21-5 3 3 5-1v-2l-4-1 2-5 3-4v-7l-4-5z" fill="#1B1615"/>
<path transform="translate(974,1170)" d="m0 0h45v3h-2v5l-1 1v21l2 4-7 2-1 4-17 2-49 3-74 1h-67l-17-2-17-5-26-6-4-2 2-1 42 8 18 4 3 1-2-10 2-18 4-8 2-1 26-1 50-1 59-2z" fill="#92867C"/>
<path transform="translate(38,1456)" d="m0 0h15v8l4 8 5 4 7 6 3 5 3 2v4l10 3h97l54-1h77l-2 7 1-2h2v-4h83l37 1 8 3v-2l7-1 49-2 18-12 7-4 11-6 2-4 4-7 1-4h2l1 5 4 19 3 7-1 5-7 3-12 2 1 4-2 2h-52v-3l-2 3-34 1h-134l-1-1h-67v2l-97 1h-60l-4-2 3-3-5 2 1 2h-8l1-3h-3l-1 4-6-2-1-2-28-1v2l-3 3h-6v-2h-2v2h-10v-2l-5 1-1-2v-3h6l-7-3-4-1v-41z" fill="#D9E0E9"/>
<path transform="translate(368,796)" d="m0 0h9l33 10 19 6 7 2 29 9 6 5 4 9v12l-6 22-10-1-14-3-8-3-11-3-33-11-10-3-30-10-8-2 2-5-1-5-8-3-5-5v-2l-8 2-13 2-292 67-20 4v-6l50-12 6-2 15-3 33-8 23-5 6-2 10-2 16-4 20-4 74-17 19-5 27-6 22-6 13-5 7-2 7 1 10 4 6-6h2z" fill="#232222"/>
<path transform="translate(395,1544)" d="m0 0 30 1v2l14 1 8-1h20l15-2h64l10 1 1 2-28 2 6 2v2h3v2l-5 1 2 3 6 1-1 3-7 1-17 1-15 1-24 2-9 2h-17l-15 3-22 1-5 1h-15l-7 1h-34l-7 2h-7l-3-1-5 1h-9l-5-2h-5l-1 1h-10l-3-1v2l-19 1-8-1-79-1-54 1-41-1-18 1-47 1-24 1-1-1h-7v-7l25-1 10 1v1h11l20-1 3-1 4-1 8 2h6v2h5 3l4 1 1-2v2l4-1h25l5 1h14l7-1h8l5 1v-2l10 1h11l13-1h14l17-1 2-4 27-2 8-2 7-1 16-1 8-2-1-2-11-3v-2h-2v-2l4-2 10 2h13v5l4 3 5-1v-5l5-3h8l3 1 6 1v-3l2-1 16-1 7-2 6 1 7-2h5 2z" fill="#AF8B65"/>
<path transform="translate(650,1414)" d="m0 0 56 1 8 1-3 2 2 5-4-3 2 4 7 8 5 5v2l4 2 8 8 3 1-2-7 3 3 1 5 4 1 1 7 53 2 37 3 26 1 78 1v1l-119 1-34 2-32 1-16 1-2 6-2-2-3 7h2l1 5h37l1-3 10-1 1 1 7 1v1l-7 1h90l50-1 95-3 24-1h24v-6h1v6l10 1 1 4-74 2-165 3-105 1h149l192-1 22-1v15h-64l-63-1h-35l-18-1-77-1h-53l-26-1-20-3-7-2-8-1v-1l-7-2v-2l-7-2-6-3 2-7 5-2-3-5 12 1v-3h5l1-3 5 2 6-2 2-2 4-1-13-2-10-9-3-3 2 8-2 1h-6v-5h-3v5l-9-1-5-3v-2l-3-1v-2l8-2v-2h-7l-1-1v-5l1 4 12-2 2-3-4 1v-2l-4-1h4v-16l3-5h-59l-2 5-1-2 3-5z" fill="#B89878"/>
<path transform="translate(913,1366)" d="m0 0 9 1 9 3 12 5 16 5 7 1v2l7 1 1 3 3 1-1 3-14 3h16l-4 1v2l-28 6-2 4-9 1-1 1h-7l1-3-14 2-1 1-38 2-53 2-39 1 1 4h-6l-27-27-3-2-2-8 2-1h5l6-3h30l19 1 11-1 19-1 25-1 21-1 4-2 9-1 37 15 5 3 13 2-13-5-10-4-27-10-6-3v-1l13-1z" fill="#DCE3EC"/>
<path transform="translate(739,1274)" d="m0 0 17 1 1 2-5 1 2 3 2 9 2 2 6 2 1 7-1 7-1 6-2 5-5 2v3l1 2-1 2 60 1 100 1v1l-75 1h-85l-1 6-5-2-3-1 1 23 1 2 1 20 6-6 78-1 29-3 22-2h6v-2h-2v-2l16-4 5-3 10-3 11-1 9 2 24 10 8 4h2v-2l-8-2-21-9-13-5v-2l15-2 20-1 2 1 2-5 16 2 11 5 4 1v2l6 2 13 5 3 1 25 2 12 3 12 5 21 3v1l-13 1 16 1v10h-6v-2l-11-2h-6l-4 1-2-2-12-3h-8l-10 2-24 1-10 1v2l-21 5-6 1v-2l-4-1v-3l-7-1v-2h-7l-16-5-12-5-11-3-7-1-16 2 29 11 7 3 9 3 12 5-3 1-12-2-12-6-30-12h-9l-1 2-3 1-21 1-33 1-14 1-16 1-11-1h-30l-6 3h-6l-1 3-7-1-2-1v-2h9v-18l-8 3-4-2 3-2-1-7-1-5v-8l-4-1v-4l-1-5-5-1-2-7 2-5h3v2h5l2 2 7-1 5 6 2 1v2l3-1-5-6-4-7-5-4-1-2 1-35z" fill="#BBC4D1"/>
<path transform="translate(1019,1466)" d="m0 0h48v11l-1 6-79 3-64 2-50 1h-99v-1l9-1-1-2-10 1-1 2-23 1h-14l-1-1v-5h-2v-5h2l1-3h2l2-4 16-1 51-2 15-1z" fill="#C39877"/>
<path transform="translate(1017,1254)" d="m0 0 22 8 27 10 8 3 23 1v76h-17l-5 1h-8l-3 1-9-2-13-4-13-3v-1l36-2-37-1 1-11 2-8 1-2-15-9-3-3-1-3-2-28-2-2 8-1 1-7-1-8-1-2z" fill="#777F8B"/>
<path transform="translate(1054,1420)" d="m0 0h22v11l1 17-42-1-28-1h-21l38 1 2 2-4 1h-93l9 1 36 1 7 2v1l-5 1h-66l-14 2-19 1h-40l-17-1-5-1-15-1v-1h76l25-1-31-1-7-2v-1h15v-2l-58-1-23-1-9-1v-1l16-1h62l9-1-4-2-9-1 2-1-1-3 1-1h6l-8-1-5 1 1 5-1-2h-6l-1-1v-5l-5 1h-16l-6 1-7-1v3l-7 1 3-3-10-1v-3h87l27-2 44-1 86-4z" fill="#93887F"/>
<path transform="translate(134,1580)" d="m0 0h5v2l52 1 123-1h260v2l27-1h178l6 1-1 2-5 1-6-1-2 1-3-1v2h-6-2l-9-1-10 1-6-1-17 1h-93l-3-1h-83l-4 1-48-1h-43l-32 1-26-1-27 1h-40l-10 1-1 2-3-1h-24l-9 1-13 1-9 2-1 1-17 1h-22l-2 1h-125l-16 1-10-1h-40l-17-1v-14h105l28 1z" fill="#1F1815"/>
<path transform="translate(32,1503)" d="m0 0h28l1 3 6 1 1-3h3v2h6l-1-2 6-1-1 3 2 1h157v-2l68-1v3l232-2 8-1-2 5-3 2 2 2-5 2-45 1-293 1-88 1h-96l-7-1 3-1v-2l-5-1-4-3-3-1v-2l9-1v2h10v-2h2v2h6l1-3h2z" fill="#3C2D1E"/>
<path transform="translate(829,1156)" d="m0 0h25l14 2 75 1 33 3 18 2 4 2 18 1 7 2 1 3h-5v-2l-45 1-29 2-59 2-50 1-26 1-5 4-3 11-4 3-7 2-21-2h-7l-5-1v1l-21 2-1 4-3-11v-14l4-9 4-4 3-1 24-1 3-1z" fill="#DBE2EB"/>
<path transform="translate(1e3 1558)" d="m0 0 2 2h9l-7-1v-1h21l5 1v2h10l4-2h13l2 1 13-2 12 1 1 1 9 2v19h-324l-1-2 12-1 1-1h11l16-2-1-3h36l17-2 5-2 3-1 5-1h14l10-1 1-2 2 1v2h7v-2l8-1 23-1 5-1h23l9 3h10v-3l13-2z" fill="#8D623E"/>
<path transform="translate(738,1426)" d="m0 0h42l66 1v1l-5 1h-39v3h11l-3 3h6v-3h8l5-1h21l1 5 6 1-1-4 8-1 7 1-2 3v-2l-5 1v3l7 1 6 2-2 2-9 1h-70l1 1 23 1 45 1 13 1v2l-9 1 1 1 31 1 8 1v1l-33 1h-57l1 1 20 1h41l22-2 7-1h66l3-1-5-1-36-1-9-1-1-2h94l2-1-38-1-11-1v-1h39l21 1 3 2 36 2 10 1v3l-28 1-5 1-22-1v2l-85 1-29 2-46 1-2 2h-23l-22-1-14-2-49-2-11-1-2-1v-5h2v-2h-2v-5h33l3-1-7-1-29-1v-2l11-1 3-1-16-3v-1h5l-1-3h-8z" fill="#3C2D1E"/>
<path transform="translate(760,1276)" d="m0 0h243l1 13v19l-3 23-2 5-6 1-22 1-126 1v4l-48 1h-37l-3-1v-3h-2l-1 37-2 3h-2l-2-20-1-2-1-23 2-1 7 4 1-6 175-1h46l15 1 1 2 1-2 3-50-178-1-59-1z" fill="#413021"/>
<path transform="translate(538,1366)" d="m0 0h1v87l-3 1-46 2-1 6-3 2 1-6 1-2-28 1-13 1v5l-4-1v-3l-11 1-2 1v-2h-10l-1 5h-2v-5h-12l3 5 2 1v2l3 1-1 2h-2l-3-4-3-1-1-5-8-1v3h-2v2h-3v-4l-4-1h-7l-2 2-3-2h-22l-4 1-7-1v4l-4-2v-2h-12l1 7-3-1-1-5h-5l-2 3-4-1-1-3-20 2-5 3-1-5-21 2-3 4h-2v-5h-18l-4 1v-2h-2l1 4h-2v2h-2v-7l-9 1-12 1v-2l-3-1 25-1 1-1h11l6-1 6 1 16-2h81l18 1 5 1 10-1h47l7-1 7 1h41l1-5-322 1-59 1v4l94 1 4 2-17 1-6 1v-2l-21 1-5 3-1 2h-2l2-6-22 1-5 3v-3l-3-1h-21l-3 3h-2l-1 2v-2h-2l-1-2-27-2-11-2-1-1v-12h1v5l369-1h111z" fill="#21201F"/>
<path transform="translate(1048,1377)" d="m0 0h8l8 2 6 1v2l9-1 3 5-2 5-3 1-5-2v5l-6 4-13 4-15 3-23 2-4 1-37 2-3-1h-11l-7 2-31 1-8 1-51 2h-77l1 3-7 1v-2h4l-1-4 3-1 59-2 49-2 19-1 6-2h9v2h6l2-2 5 1h3l2-5 25-5h3v-2h-13l1-2 18-4 18-5h6v-2l10-2 24-1z" fill="#858D98"/>
<path transform="translate(0,1270)" d="m0 0h41l18 2v1l-16 1-4 3-1 7 21 1v20l-2 30h-37l2-12 8-30h-2l-2 12-8 30-8 1h-10z" fill="#DDE4ED"/>
<path transform="translate(561,1389)" d="m0 0h131l6 1-4 2-26 11-4 2 6-2 15-6 8-1v7h3l3 3-5-6 1-4 1-1h6l1 1 1 10 3 3v2h15l4 3v2h-20l-56-1-5 2-3-2h-41l-14-3-18-3-5-2-3-7z" fill="#CDBFAF"/>
<path transform="translate(54,1350)" d="m0 0h1v29l-1 34-1 26h-53v-19l6-2v-2h2l2-4 2-3h2l2-16-1-6 1-4v-14l4-7 2-1h9l3 1 15-5 2-4z" fill="#BDC6D4"/>
<path transform="translate(971,1342)" d="m0 0 16 2 11 5 4 1v2l6 2 13 5 3 1 25 2 12 3 12 5 21 3v1l-13 1 16 1v10h-6v-2l-11-2h-6l-4 1-2-2-12-3h-8l-10 2h-23l-1-1-17-2h-9l-9 1h-13l-30-10-4-3 4-4-8-1 2-2 6-2 9 1 19 8 8 4h2v-2l-8-2-21-9-13-5v-2l15-2 20-1 2 1z" fill="#BDC6D4"/>
<path transform="translate(639,1456)" d="m0 0 33 2 16 3 5 3v4l5 2 3 9 1 6-9 1v3l9 1 4 5 7 2 18 2 16 4 15 1 6 1 16-1 27 1h58l7 2h15l48 1 13-1 21 1h17l11 1 2-1 3 1 36 2 55 1v13h-37l-2-1v-2l-14-1-15-2h-12l-21-1-9-1-21-2-32-1-23-1-34-2h-28l-60-1h-30l-22-2-11-2-7-3-16-2-7-2-13-2-2-2v-3l-12-2-4-2v-2l14-1 4-1 1-2h2l-1-5 1-6-12-2 3-3 1-3-17-1-2-1h-8l-12-3z" fill="#C0AF9B"/>
<path transform="translate(1019,1466)" d="m0 0h48v11l-1 6-79 3-64 2h-34v-1l12-1-3-2-10-2-10-1h-8l-1-2 21-1 7-1 4-4 1-3 2-1 32-1 16-1z" fill="#C0B09D"/>
<path transform="translate(548,1271)" d="m0 0 5 1-1 16-3 5-5 5h19l4 5 1 12 2 5 1 7v11l-1 6h-3l-1-8-3-1v2h-2v52l1 11 1 1-1 7 1 35-5 5-1 3-5 2-7 2-3 2v-66h1v26l4-2 1-2 1-19 1-9 1-12-3-9-5-2v23h-1l-1-18v-43l1-40h6v-2h-6v-10z" fill="#7A7F89"/>
<path transform="translate(541,1458)" d="m0 0h2l1 5 4 19 3 7-1 5-7 3-12 2 1 4-2 2h-52v-3l-2 3-34 1h-127v-5l-3 1v-2h2v-4h83l37 1 8 3v-2l7-1 49-2 18-12 7-4 11-6 2-4 4-7z" fill="#DAE1EA"/>
<path transform="translate(688,1440)" d="m0 0 5 1 1 5 7 1v2h6v1l-14 1 3 3v2l5 2 9 2v-5h3v5l8-1-3-5 1-4 8 7 5 5 14 2-1 2-5 2-2 2-6 1-4-2-1 2h-5v3h-11l3 5-6 2-1 6 6 3 7 2 1 2 6 1v1l12 2 6 2 20 2 29 1h63l61 1 23 1h42l50 1h22l42 1v5h-60l-31-2h-4l-20-1h-17l-19-1-12 1-58-1-10-2h-56l-27-1-19 1-7-1-13-2-18-4-18-2-5-5-7-2-3-1v-3l8-2-1-7-3-7-4-2-1-4-4-2-16-3-28-2-9-2 2-2 3-1 23-1 2 1-1-4-9-1 1-3z" fill="#B7A38C"/>
<path transform="translate(32,1503)" d="m0 0h28l1 3 6 1 1-3h3v2h6l-1-2 6-1-1 3 2 1h157v-2l68-1v3l232-2 8-1-2 5-3 2 2 2-5 2h-40v-2l-250-1-2-1-40-1-150-1h-48l-4-2 5-1v2h10v-2h2v2h6l1-3h2z" fill="#3C2D1E"/>
<path transform="translate(861,1431)" d="m0 0 44 1h3v2h34v-1h98v2l-23 1-69 1 14 2 18 1v1l-30 1-2-1h-26l2 4 2 1-4 1h11l8 1 24 1v1h-36l9 1 36 1 7 2v1l-5 1h-66l-14 2-19 1h-40l-17-1-5-1-15-1v-1h76l25-1-31-1-7-2v-1h15v-2l-58-1-23-1-9-1v-1l16-1h62l9-1-4-2-9-1 2-1-1-3 1-1h6l-8-1-3 1-3-2z" fill="#8F8379"/>
<path transform="translate(650,1414)" d="m0 0 56 1 8 1-3 2 2 5-4-3 2 4 7 8 5 5v2l4 2 8 8 3 1-2-7 3 3 1 5 4 1 1 7 53 2 37 3 26 1 78 1v1l-119 1-34 2-32 1-16 1-2 6-2-2-3 7h2v5l-3-1-3-3-1 3-2-2-10-1-5-2 1-3 3-1-3-5 12 1v-3h5l1-3 5 2 6-2 2-2 4-1-13-2-10-9-3-3 2 8-2 1h-6v-5h-3v5l-9-1-5-3v-2l-3-1v-2l8-2v-2h-7l-1-1v-5l1 4 12-2 2-3-4 1v-2l-4-1h4v-16l3-5h-59l-2 5-1-2 3-5z" fill="#A07850"/>
<path transform="translate(167,1449)" d="m0 0h322v5l-1 1h-41l-10-1-4 1h-52l-6 1-10-1-18-1h-78l-14 2-9-1-7 1h-6l-1 1-22 1v4l-5 4v-7l-6 2-2-3 5-1-95-1 1-5 6-1z" fill="#1A1514"/>
<path transform="translate(38,1456)" d="m0 0h15v8l4 8 5 4 7 6 3 5 3 2v4l10 3 92 1v1l-60 1h-66l-5-1-4-9-11-8v-6-2l-13 10-11 9-7 5v-40z" fill="#BEC6D4"/>
<path transform="translate(1081,1386)" d="m0 0h2l1 2v7l-6 9 5 1-2 4-6-1-2-2-20 5-11 2-37 3-16 1-30 1-50 3-22 1-40 1h-23v-1l-37-1-2-2 1-3 80-1 48-2 8-1 32-1 6-2h14l1 1 36-2 16-2 13-1 21-5 8-4 3-1-1-6 9 2z" fill="#ADB7C4"/>
<path transform="translate(550,1493)" d="m0 0 1 3-2 5 1 8 1 4-2 3-5 1-22 2-1 1h-266v2h-5l-1-2-244-1-3-1v-2l7-1v-2l5 1v2l4 1h96l88-1 293-1 45-1 4-1-2-3 4-2 1-3-7 1-95 1h-137v-1l134-1 34-1v-2h2v3l52-1v-3l1-3 16-3z" fill="#A57F59"/>
<path transform="translate(208,1480)" d="m0 0h129l23 1-3 10-1 2h-25l-17 1h-110l-6-2 2-5 4-6z" fill="#767E8A"/>
<path transform="translate(1017,1254)" d="m0 0 22 8 4 5-1 4-3 1-1 4 2 16 1 7v11l1 7h2l4 7-1 2 3 1v2l5 1 12 7 6 3 8 1 3 2h-19v-1l-37-1 1-11 2-8 1-2-15-9-3-3-1-3-2-28-2-2 8-1 1-7-1-8-1-2z" fill="#8E96A2"/>
<path transform="translate(805,1180)" d="m0 0 1 2-3 17 1 14-11-2-52-10 14 4 25 6 6 2 17 2h67l74-1 61-4 5-1v-4l9-1 3 1-1 3-9-1v2h2l-1 4h-14l-42 3-25 1h-148l-52-1-18-1-4-2 15-1-17-1-12-9 1-3 32 1 8 1v-4l11-2 8-1v-1h6l2 1 28 2 9-4 3-11z" fill="#8A929E"/>
<path transform="translate(1080,1410)" d="m0 0 3 3-1 3-8 2-19 1-12 2 3 2-86 4-44 1-32 2h-28l-15-1v-1l-61-1v-1l60-1 45-3 2-1 57-3 15-1 30-1 44-3 10-1 3 2 18-1 16-1z" fill="#9C7A58"/>
<path transform="translate(1039,1542)" d="m0 0 1 2 3-1h54v19l-9-1-5-1-8-1-14 2-3-1h-11l-4 2-10-1v-2h-18l-1 2h-10l-1-2-4 1-13-2v-3h-5l-1 2-7-1-3 3-2-1v-3h-2l-1-3 5-3 2-3h43l21-3z" fill="#936D46"/>
<path transform="translate(0,1498)" d="m0 0 8 1 3 1v2l-6 1 2 1-1 3h-4v2l5 1 2 2v3l-7 1v2l247 1 1 3h5v-2h285v1l-42 1-20 1 1 3-4 1-35 1-19 1h-1v-5l16-1-3-1h-172l-4 1h-8l-2-1h-47l-13 1h-89l-41 1-1 1-9 1h-47z" fill="#BEAB96"/>
<path transform="translate(270,1587)" d="m0 0h45v2h-6l-1 2-3-1h-24l-9 1-13 1-9 2-1 1-17 1h-22l-2 1h-125l-16 1-10-1h-40l-17-1v-8h34l17 2 2 2v3l3-1h21l-5-1h-2v-2h9l4 3h2l2-2 10-1h4 12 4 6v-2h9l10 1 4-1 23 1 3-1h30l21-1h29z" fill="#302115"/>
<path transform="translate(739,1274)" d="m0 0 17 1 1 2-5 1 2 3 2 9 2 2 6 2 1 7-1 7-1 6-2 5-5 2v3l1 2-1 2 60 1 100 1v1l-75 1h-85l-1 6-5-2-11-3-3-1 2 10 3 19 2 2-5 2-4-2 3-2-1-7-1-5v-8l-4-1v-4l-1-5-5-1-2-7 2-5h3v2h5l2 2 7-1 5 6 2 1v2l3-1-5-6-4-7-5-4-1-2 1-35z" fill="#BDBFC2"/>
<path transform="translate(60,1273)" d="m0 0h2v10l-2 32-1 23-2 22h-1v-20l-4 1 2 2-5 6-11 3h-18l-9 7-3 1-2 11-1 9 2 9v18l-2 6h-2l-2 4h-1v-81l18-1 2-11 8-31h2l-1 8-9 34h37v-13l2-37h-18l-3-1v-7l2-2 4-1z" fill="#ADB7C5"/>
<path transform="translate(974,1170)" d="m0 0h45v2l-22 2-52 3-62 2h-74l-3 13v14l2 5 1 1h95l46-2 61-4-1 4-17 2-49 3-74 1h-67l-17-2-17-5-26-6-4-2 2-1 42 8 18 4 3 1-2-10 2-18 4-8 2-1 26-1 50-1 59-2z" fill="#222120"/>
<path transform="translate(718,1368)" d="m0 0h4v9l-2 4h15l-4 2-3 2 1 5h2v2l5 2 4 2 4 4 9 5 7 3 4 5 5 5 2 7h-36l-7-10-10-9-8-7-7-7-3-4v-3h-8l2-4h2v2l8-1v-2l-4-1-6-3v-3l6-1 1-2 9 1 2 5 5-1z" fill="#C0AF9B"/>
<path transform="translate(739,1165)" d="m0 0 5 2 13 3 47 4 2 1v2l2 1-4 5-2 9-4 3-7 2-21-2h-7l-5-1v1l-21 2-1 4-3-11v-14l4-9z" fill="#BDBEC1"/>
<path transform="translate(1017,1238)" d="m0 0h1v10l3-1h76v29h-23l-30-11-18-7-8-3-1-5z" fill="#DCE3EC"/>
<path transform="translate(456,1540)" d="m0 0 25 1 171-1h142l-4 2-39 1-4 1h-75l-31 1-17 1-4 1h-25l-22 1h-14l-13-2h-64l-16 2h-20l-8 1-13-2v-2h-29l2-2 4-1 15-1h37z" fill="#C19B7C"/>
<path transform="translate(738,1426)" d="m0 0h42l66 1v1l-5 1h-39v3h11l-3 3h6v-3h8l5-1h21l1 5 6 1-1-4 8-1 7 1-2 3v-2l-5 1v3l7 1 6 2-2 2-9 1h-70l-8 1h-9l3-2-7-1-29-1v-2l11-1 3-1-16-3v-1h5l-1-3h-8z" fill="#3D2D1E"/>
<path transform="translate(1054,1420)" d="m0 0h21v9l-1 1-36 1-1 1-68 1-26 1v1h-35l-2-2h-2l-48-1 2 3-1 4v-2h-6l-1-1v-5l-5 1h-16l-6 1-7-1v3l-7 1 3-3-10-1v-3h87l27-2 44-1 86-4z" fill="#BDBCBC"/>
<path transform="translate(271,824)" d="m0 0 7 1-2 2-256 59-20 4v-6l50-12 6-2 15-3 33-8 23-5 6-2 10-2 16-4 20-4 65-15h18l2-2z" fill="#080707"/>
<path transform="translate(1069,1471)" d="m0 0 7 1 5 4 13 1 3 1v14l-22 2-192 1h-149l-4-2 109-1 165-3 29-1h45l-1-3-10-2v-10z" fill="#3A2C1D"/>
<path transform="translate(1007,1341)" d="m0 0h5v2h39v1l-18 1 20 5 7 2 6 1 4-1h7l3-1h10l7 1v24h-16l-1-2 10-1-17-2-15-6-9-2-25-2-14-5-8-4v-2l-4-1 5-5z" fill="#8E96A2"/>
<path transform="translate(1066,1477)" d="m0 0h1v6l10 1 1 4-74 2-165 3-112 1-1-3-4-1v-2l-5-1-8-4 3-1 6 2h7l5 1 1 2 3 1h37l1-3 10-1 1 1 7 1v1l-7 1h90l50-1 95-3 24-1h24z" fill="#88909C"/>
<path transform="translate(1e3 1276)" d="m0 0h7l1 1 2 28 3 5 16 10-2 4-3 17h41l-4 2h-53v-2l-17-1-130 1h-21l1-3 126-1 28-1 3-18 2-9z" fill="#F3F8F9"/>
<path transform="translate(728,1360)" d="m0 0 2 1v4l9-1 4-2h3l1 7v8l-1 3h-9v2l9 1 2 2 1 4 8 7 21 21 2 1v2l51 1v1h54v1l-45 3h-79v-1l9-1-2-6-8-9-10-5-9-5-1-3-4-1-5-3v-2h-2l-2-5 1-2 3-1-11-1 2-13h-4l-1 7-5 1-2-4-9-1 2-5h7l7-1 9-1z" fill="#B69777"/>
<path transform="translate(1066,1466)" d="m0 0h1v11l-1 6-24 1h-18l-10-2h-19l-11 2-7-1-2-3-10-1h-15l-8-1v-1l9-1 1-2 7-2 5-2 10-2 86-1z" fill="#CDBFAF"/>
<path transform="translate(1088,1492)" d="m0 0h9v12h-14l-18-2h-24l-36-3-146-1-116-1-1-2 141-1 192-1z" fill="#9F7750"/>
<path transform="translate(34,1292)" d="m0 0h19l6 1v12l-2 30h-37l2-12 8-30z" fill="#BEC7D5"/>
<path transform="translate(955,1353)" d="m0 0 6 1v2l2-1 15-2h8l20 7 14 7 1 3-10-2h-17l-1 3 5 2 13 2 14 4v1h-10l-1-1-17-2h-9l-9 1h-13l-30-10-4-3 4-4-8-1 2-2 6-2 9 1 19 8 8 4h2v-2l-8-2-18-8-2-3z" fill="#D7DEE7"/>
<path transform="translate(368,796)" d="m0 0h9l33 10 19 6 7 2 29 9 6 5 4 9v12l-6 22-10-1-14-3 6-17 7-14 6-8-31-8-25-8-23-7-12-4-5-2z" fill="#7A828E"/>
<path transform="translate(269,1453)" d="m0 0h84l18 1 5 1 10-1h47l7-1 7 1 41 1v1l-28 1-13 1v5l-4-1v-3l-11 1-2 1v-2h-10l-1 5h-2v-5h-12l3 5 2 1v2l3 1-1 2h-2l-3-4-3-1-1-5-8-1v3h-2v2h-3v-4l-4-1h-7l-2 2-3-2h-22l-4 1-7-1v4l-4-2v-2h-12l1 7-3-1-1-5h-5l-2 3-4-1-1-3-20 2-5 3-1-5-21 2-3 4h-2v-5h-18l-4 1v-2h-2l1 4h-2v2h-2v-7l-9 1-12 1v-2l-3-1 25-1 1-1h11l6-1 6 1z" fill="#2D2C2D"/>
<path transform="translate(763,1280)" d="m0 0h56l178 1-1 3-11 3 9 2h1l-1 9-18 1h-26l-10-1-3-2 1-4 2-2 9-1 29-1 4-1-19-1h-23l-74-2h-68l-7-1-26-1z" fill="#777F8B"/>
<path transform="translate(97,1577)" d="m0 0 43 1 53-1 78 1 25 2v2h5v1l-113 1-44-1-5-1v-2l-5 1-1 2h-115l-18-1v-2l8-1v2l4-1 30-1 37-1z" fill="#966F48"/>
<path transform="translate(1039,1386)" d="m0 0h25l6 3v3l-6 5-12 5-11 2-17 1-39 1-22 2h-9v-1l18-3 38-12 22-5z" fill="#060605"/>
<path transform="translate(1035,1460)" d="m0 0h40l4 1v4l-11 1v7h-1l-1-6h-127l-78-1-42-2v-2h111z" fill="#8D9097"/>
<path transform="translate(744,1496)" d="m0 0 115 1h24l123 1 36 3h27l14 2 14 1v1l-18 1-9-1h-36l-32-1-10-1-38-1-94-1h-73l-23-1-21-2z" fill="#B08C66"/>
<path transform="translate(1081,1279)" d="m0 0 16 1v60h-14l-4-1v-41l1-15z" fill="#ADB7C4"/>
<path transform="translate(1079,1381)" d="m0 0 8 1 4 2v2h6v57h-14l-2-3v-23l1-4-2-1-27 3h-7l-2-3 9-2 21-5 3 3 5-1v-2l-4-1 2-5 3-4v-7l-4-5z" fill="#010100"/>
<path transform="translate(1088,1276)" d="m0 0h9v4h-9l-7-1-1 19-1 41 18 1v12h-17l-5 1h-8l-3 1-9-2-13-4-13-3v-1l52-2-7-2-1-8-3-2-1-6 2-22h2v-11l2-10 1-4z" fill="#727A85"/>
<path transform="translate(975,1445)" d="m0 0h39l21 1 3 2 36 2 10 1v3l-28 1-5 1-22-1v2l-85 1-16 1h-47v-1l22-2 7-1h66l3-1-5-1-36-1-9-1-1-2h94l2-1-38-1-11-1z" fill="#392A1C"/>
<path transform="translate(764,1502)" d="m0 0 30 1h63l61 1 23 1h42l50 1h22l42 1v5h-60l-31-2h-4l-20-1h-17l-19-1-12 1-58-1-10-2h-56l-27-1-19 1-2-1v-2z" fill="#B9A58E"/>
<path transform="translate(38,1456)" d="m0 0h12v2l-11 8-13 11-13 10-12 10h-1v-40z" fill="#CBBEAF"/>
<path transform="translate(14,1292)" d="m0 0 14 1-2 12-8 30-8 1h-10v-43z" fill="#BCC5D3"/>
<path transform="translate(363,1540)" d="m0 0h24l3 3h-6-2l-8 2-11 1-2 1h-16l-4 1h-10l-2 1h-8l-3 1-14 1-7-4h-13l-13 2-5-1-22 1-9 1h-19l-1-1-6 1h-9l-7-1h-21l-7 1-1 2-4-1-4 1v2h-6l-4-3 6-2h3l2-4 16-1h21l16 1 20-1h19l4 1 23 1 1-2 11-1 7 1 11-1 5-1 14 1 10 1 1-1h11l7-1 9-1z" fill="#C39878"/>
<path transform="translate(548,1271)" d="m0 0 5 1-1 16-3 5-5 5h19l4 5-1 17-3 3-9 2-1 1v6l3 4 4 2h-15l-3-1v-53h6v-2h-6v-10z" fill="#212020"/>
<path transform="translate(53,1438)" d="m0 0 1 4-1 5v9l-2 1h-51v-18z" fill="#B59676"/>
<path transform="translate(541,1458)" d="m0 0h2l1 5 4 19 3 7-1 5-7 3-9 1-62-1v-1l26-1 18-12 7-4 11-6 2-4 4-7z" fill="#AEB8C5"/>
<path transform="translate(929,1414)" d="m0 0h36l4 1 5-1 10 1v1l-7 1-53 3-37 2-40 1h-23v-1l-37-1-2-2 1-3 81 1 26-2z" fill="#BCC5D2"/>
<path transform="translate(760,1276)" d="m0 0h208l22 1-4 2 10 1v1h-177l-59-1z" fill="#1C1918"/>
<path transform="translate(974,1170)" d="m0 0h45v2l-22 2-52 3-62 2h-74l-3 13-1 12-3-1 2-18 4-8 2-1 26-1 50-1 59-2z" fill="#262220"/>
<path transform="translate(206,1512)" d="m0 0h296l-2 1v2h-261l-37-1z" fill="#110E0D"/>
<path transform="translate(63,1259)" d="m0 0h1v34l-5 118-1 31-1 13-5-1v-7l1-9-1-5 2-54 1-32 2 1 1-10 2-43 2-22-2 1-18 1 1-2 18-1z" fill="#ACB4C0"/>
<path transform="translate(32,1503)" d="m0 0h28l1 3 6 1 1-3h3v2h6l-1-2 6-1-1 3 2 1h157v-2l68-1v2h-67v2h92v1l-20 1-65 1-40-1-150-1h-48l-4-2 5-1v2h10v-2h2v2h6l1-3h2z" fill="#81848B"/>
<path transform="translate(913,1366)" d="m0 0 9 1 9 3 12 5 16 5 7 1v2l7 1 1 3 3 1-1 3-14 3 2 2-7-1-6-2 1-2-13-5-10-4-27-10-6-3v-1l13-1z" fill="#D8DFE8"/>
<path transform="translate(1029,1456)" d="m0 0h14l25 1 2 2-35 2-105 2h-63l-18-1v-1l28-1 38-1 29-2z" fill="#050504"/>
<path transform="translate(883,1447)" d="m0 0h9l1 1h17l21-1 10 1 24 1v1h-36l9 1 36 1 7 2v1l-5 1h-66l-14 2-19 1h-40l-17-1-5-1-15-1v-1h76l25-1v-1h7v-3h-26l-2-2z" fill="#8D623E"/>
<path transform="translate(805,1180)" d="m0 0 1 2-3 17 1 14-11-2-52-10v-2h-4v-2l11-2 8-1v-1h6l2 1 28 2 9-4 3-11z" fill="#8D95A1"/>
<path transform="translate(1024,1361)" d="m0 0h13l18 2 16 6 7 2 16 2v1l-13 1 16 1v10h-6v-2l-11-2h-6l-4 1-2-2-12-3h-8l-8 1v-2l-9-4-7-4 2-1 10 5 9 2h8l-13-6-16-7z" fill="#ACB6C4"/>
<path transform="translate(956,1324)" d="m0 0h35l2 1v6 4l-1-3h-151v-1l65-1-2-1-30-1v-2l12-1 7 1 2-1h33z" fill="#777F8B"/>
<path transform="translate(1e3 1489)" d="m0 0h68l-4 2-21 2-167 1h-141v-1l100-1z" fill="#1F1D1C"/>
<path transform="translate(919,1406)" d="m0 0h9v2l6 1v1l26-1v1l-7 2-31 1-8 1-51 2h-77l1 3-7 1v-2h4l-1-4 3-1 59-2 49-2 19-1z" fill="#8E96A2"/>
<path transform="translate(747,1334)" d="m0 0 8 4 1-2v3l11-1h78v5l-48 1h-37l-3-1v-3h-2l-1 37-2 3h-2l-2-20-1-2-1-23z" fill="#8D847E"/>
<path transform="translate(536,1453)" d="m0 0h3l-2 5-10 4-9 4-7 2-21 2-1 4h-6v-16l-28 1-1-2 6-1h28l-1 7 2-5 1-3z" fill="#777F8B"/>
<path transform="translate(60,1273)" d="m0 0h2v10l-2 32-1 23-2 22h-1v-21l-56 1v-4l18-1 2-11 8-31h2l-1 8-9 34h37v-13l2-37h-18l-3-1v-7l2-2 4-1z" fill="#7D7B7B"/>
<path transform="translate(562,1424)" d="m0 0 8 1 3 6v2l4 2 3 8v3l3 1v2l-11 3v2l-17 8-7 4h-4l-2-6 1-4 3-3 11-2 1-4 4-4z" fill="#B79778"/>
<path transform="translate(748,1464)" d="m0 0h38l19 1 7 1h127v1l-119 1-34 2-32 1-16 1-2 6-2-2-3 7h2v5l-3-1-3-3-1 3-2-2-10-1-5-2 1-3 3-1-3-5 12 1v-3h5l1-3 5 2 6-1 44-1-2-1-33-2z" fill="#916842"/>
<path transform="translate(1080,1410)" d="m0 0 3 3-1 3-8 2-19 1-12 2 3 2h-43l-16-1 4-2h8l2-1h-13l-36 1v-1l23-2 58-4 10-1 3 2 18-1 16-1z" fill="#9E764F"/>
<path transform="translate(71,1571)" d="m0 0 10 2h6v2h5 3l4 1 1-2v2l4-1h25l5 1h12l2 2-10 1-41-1-18 1-47 1-24 1-1-1h-7v-7l25-1 10 1v1h11l20-1 3-1z" fill="#B08C66"/>
<path transform="translate(970,1549)" d="m0 0 14 1h11l4 1h18l14 1h11l16 2 2 3-1 1-15 1-1 3-10-1v-2h-18l-1 2h-10l-1-2-4 1-13-2v-3h-5l-1 2-7-1-3 3-2-1v-3h-2l-1-3z" fill="#A27A52"/>
<path transform="translate(9,1513)" d="m0 0 5 1v2l4 1h246l18 1 1-1h73v1l19 1v1h-120v2h-5l-1-2-244-1-3-1v-2l7-1z" fill="#AB8B6A"/>
<path transform="translate(689,1450)" d="m0 0h9v1h-5l3 3v2l5 2 9 2v-5h3v5l8-1-3-5 1-4 8 7 5 5 14 2-1 2-5 2-2 2-6 1-4-2-1 2h-5v3h-11l-2 1-1-5h2v-3h-2l-2 2-4-2v-2l-6-2-8-4-12-4 4-2z" fill="#838284"/>
<path transform="translate(237,1496)" d="m0 0h75l-1 6 4-1v5h-7v-2h-67l-4-6z" fill="#DDE4EC"/>
<path transform="translate(109,1541)" d="m0 0 8 1 1 2-5 5 5 2-4 1-13-1-4-1h-32l-4 1-1-1h-14l-1 3-16-1-15-1-2-4v-3l11 1v2l5 1 5-3 11-1 12 1h3 13l25-2h9z" fill="#C39878"/>
<path transform="translate(1080,1416)" d="m0 0 2 1v24l1 1 14 1v10l-13 3-2 1-2-1v2h-8l-3-3v-1h15v-3l-28-1-18-1-2-2h29l12 1-1-3-1-15 1-10-22 1-5 1h-7l1-2 12-2 19-1z" fill="#1D1817"/>
<path transform="translate(1066,1466)" d="m0 0h1v11l-1 6-24 1h-18v-1l15-1 2-1-3-1-13-1-2-2h-10v-2l7-2 2-2 14-1h19v-2z" fill="#BDBFC1"/>
<path transform="translate(931,1367)" d="m0 0 8 1 27 9h13l9-1h9l17 2v3l-10 1v2l-21 5-6 1v-2l-4-1v-3l-7-1v-2h-7l-16-5-14-6-1-2z" fill="#B8C0CD"/>
<path transform="translate(538,1192)" d="m0 0h1l1 95 2-5h6v2l-3 1-3-1v40l-1 129h-1l-1-6-1-81z" fill="#A7ACB3"/>
<path transform="translate(728,1360)" d="m0 0 2 1v4l9-1 4-2h3l1 7v8l-1 3h-9v2l-17-1 2-13h-4l-1 7-5 1-2-4-9-1 2-5h7l7-1 9-1z" fill="#8D94A0"/>
<path transform="translate(97,1577)" d="m0 0 41 1v1h-5v4h-115l-18-1v-2l8-1v2l4-1 30-1 37-1z" fill="#9E764E"/>
<path transform="translate(707,1421)" d="m0 0 16 16v2l4 2 8 8 3 1-2-7 3 3 1 5 4 1 1 7 53 2 37 3 26 1v1l-50 1-9-1-57-3-1-2h-5v-2h-2v-2h2l-5-5-9-7-15-15-3-6z" fill="#221A14"/>
<path transform="translate(57,1454)" d="m0 0 12 2 27 2 1 3 5-1 3-3h21v1l-18 1-16 12-5 4-5-3-10-3-8-4-7-8z" fill="#767E8A"/>
<path transform="translate(1088,1276)" d="m0 0h9v4h-9l-7-1-1 19v41l1 2h-6l-1-1-1-8-3-2-1-6 2-22h2v-11l2-10 1-4z" fill="#45311F"/>
<path transform="translate(727,1381)" d="m0 0h8l-4 2-3 2 1 5h2v2l5 2 4 2 4 4 9 5 7 3 4 5 5 5 2 7h-9l-1-6-4-2-7-4v-2l-6-2v-2l-5-2-9-5-4-5-6-4-2-2 1-5z" fill="#B9A58E"/>
<path transform="translate(50,1456)" d="m0 0h3v8l4 8 5 4 7 6 3 5 3 2v4l10 3 92 1v1h-109l-4-4-5-10-6-7-5-3-2-14 4-2z" fill="#AEB8C6"/>
<path transform="translate(545,1467)" d="m0 0 2 1 1 8 2 1 16 1 1 2-11 3 2 6h2l1 3v11h-2l1 8-7 5-5 3-1 1h-26l1-2 22-2 5-1 1-3-1-3-1-9 2-4v-7l-3-7-2-9z" fill="#B9A48C"/>
<path transform="translate(697,1199)" d="m0 0 32 1 7 1 8 6v3l4 1 3 2h-20l-6-1-17-1-12-9z" fill="#BEC7D5"/>
<path transform="translate(542,1510)" d="m0 0 6 2-3 3-4 1-44 1h-26l-1 2-1-1-186-1-1 2-18-1h-150v-1l88-1 293-1 45-1 4-1z" fill="#906743"/>
<path transform="translate(794,1429)" d="m0 0h5v4l3-3v2h11l-3 3h6v-3h8l5-1h21l-2 2v4l-1 1-21 1-8 1-12-1-8 2-19-2v-4l-5 1 2-6 2 2 3 1 14 1 1-1-4-2z" fill="#907054"/>
<path transform="translate(696,1395)" d="m0 0h6l1 1 1 10 3 3v2h15l4 3v2h-20l-54-1v-1l35-1-3-1v-2l4-2h-6l1-7 1-2-2-1 6-2h5v7h3l3 3-5-6 1-4z" fill="#BEAD99"/>
<path transform="translate(916,1423)" d="m0 0h15l40 1-2 2-9 1-44 1-32 2h-28l-15-1v-1l-61-1v-1h117z" fill="#927254"/>
<path transform="translate(889,1440)" d="m0 0 4 2-6 1v3l2 1-7 2 26 1v3h-38l-7-2v-1h15v-2l-58-1-23-1-9-1v-1l16-1h62l9-1 2-1z" fill="#908277"/>
<path transform="translate(1e3 1318)" d="m0 0h1v10l-1 3h2l4 4 5 2v4h-9l-9-1-130 1h-21l1-3 126-1 28-1z" fill="#DDE4ED"/>
<path transform="translate(543,1362)" d="m0 0 5 1 4 10-1 12v6l-1 7-1 15-3 4h-3l-1 27h-1v-77h1z" fill="#8E95A1"/>
<path transform="translate(739,1165)" d="m0 0 5 2 13 3 47 4 2 1v2l2 1-6 1h-16l-13-1h-26v-2l-4 1-4-2v-2l-4-1 2-5z" fill="#BDC6D4"/>
<path transform="translate(714,1230)" d="m0 0 1 2 6 1 4 6 1 3 7 2 1 1 2 26v3l-11-12-8-11-3-10-1-10z" fill="#DCE3EC"/>
<path transform="translate(437,1453)" d="m0 0 10 1 41 1v1l-28 1-13 1v5l-4-1v-3l-11 1-2 1v-2h-10l-1 5h-2v-5h-12l3 5 2 1v2l3 1-1 2h-2l-3-4-3-1-1-5-8-1v3h-2v2h-3v-4l-14-3 1-2 9-1h47z" fill="#2A2A2B"/>
<path transform="translate(930,1353)" d="m0 0 10 2-4 2-6 2 6 2-2 4 1 2-9 3-6-2-7-1-7 1-12 1v-2l-5-1v-2l16-4 5-3 10-3z" fill="#BDC5D3"/>
<path transform="translate(739,1274)" d="m0 0 17 1 1 2-5 1 2 3 2 9 2 2 6 2 1 7-1 7-1 6-2 5-5 2v3l1 2-2 2-4-6-4-5-1-4 3-3 4 1 1-2h6l1-2-6-5-4-9-1-6-3-6-6-2v-2l-2-1z" fill="#ADB7C5"/>
<path transform="translate(829,1156)" d="m0 0 24 1 7 1-1 3-12 1v2l-16 1h-22l-17-1-4-2v-2l15-2z" fill="#BEC7D5"/>
<path transform="translate(1088,1492)" d="m0 0h9v6h-34l-25-1-47-1h-37l-71-1v-1l192-1z" fill="#8D623E"/>
<path transform="translate(755,1396)" d="m0 0 4 2 19 19 2 1v2l51 1v1h54v1l-45 3h-54l-5-1 1-2-5-1-7-9-2-1-3-5-10-10z" fill="#B79371"/>
<path transform="translate(38,1456)" d="m0 0h12v2l-11 8-9-1-11 1-6 2-12-1-1-1v-9z" fill="#C0AF9B"/>
<path transform="translate(725,1318)" d="m0 0h3v2h5l2 2 7-1 5 6 2 1v2l3 1 2 3-1 4-6-3-8-2-3-1 2 10 3 19 2 2-5 2-4-2 3-2-1-7-1-5v-8l-4-1v-4l-1-5-5-1-2-7z" fill="#BABDC1"/>
<path transform="translate(977,1344)" d="m0 0h10l11 5 4 1v2l6 2 13 5 3 1v2l6 2 19 8 5 3v1h-9l-9-2-16-8-26-12-13-5-2-2-3-2z" fill="#EEF3F6"/>
<path transform="translate(668,1541)" d="m0 0h122v1l-39 1-4 1h-75l-31 1-17 1-4 1h-9l-2-2 12-3z" fill="#B08C66"/>
<path transform="translate(650,1414)" d="m0 0 56 1 8 1-3 2 2 5-4-3-1 4 5 9 8 7 7 7 10 7 1 3h-2v2h2v2l5-1 2 2-1 1h-8l-5-2v-5h-2v-3l-2-1v-3l-5-2-4-3v-2l-4-1-8-6v-2l-3-1v-10l3-5h-59l-2 5-1-2 3-5z" fill="#8D623E"/>
<path transform="translate(975,1445)" d="m0 0h39l21 1 3 2 36 2 10 1v3h-15l-42-1-6-1-49-1v-1l50-1 2-1-38-1-11-1z" fill="#6B5038"/>
<path transform="translate(971,1342)" d="m0 0 12 1v1l-6 1 6 2 3 5-13 3-12 1v-2l-14 1-2 1-13-5v-2l15-2 20-1 2 1z" fill="#BBC3D0"/>
<path transform="translate(53,1438)" d="m0 0 1 4-2 4v-3l-14 2-17 3h-12l-3 1-6-2v-8z" fill="#9C8166"/>
<path transform="translate(1071,1390)" d="m0 0h1v5l-6 4-13 4-15 3-23 2-4 1-37 2-3-1h-18l-11 1h-10l2-2 14-2h15l22-2 39-1 17-1 14-3 12-6z" fill="#89919D"/>
<path transform="translate(951,1400)" d="m0 0h5l-4 2-6 1-2 4-9 1-1 1h-7l1-3-14 2-1 1-38 2-53 2h-36v-1l-9-1 1-2 17 1h44l44-2 26-2z" fill="#B5BDCA"/>
<path transform="translate(766,1233)" d="m0 0h151v3h-146v-1l-5-1z" fill="#AEB8C5"/>
<path transform="translate(55,1347)" d="m0 0h1l1 13v14l-1 20h2v48l-1 13-5-1v-7l1-9-1-5 2-54z" fill="#B0B8C4"/>
<path transform="translate(696,1583)" d="m0 0h83l6 1-1 2-5 1-6-1-2 1-3-1v2h-6-2l-9-1-10 1-6-1-17 1h-21l-10-1v-1l7-2z" fill="#312216"/>
<path transform="translate(1079,1381)" d="m0 0 8 1 4 2v2h6v21l-15 1v-3l-4-1 2-5 3-4v-7l-4-5z" fill="#1A1514"/>
<path transform="translate(307,1504)" d="m0 0 1 2h-67v2h92v1l-20 1-65 1-85-2v-1l77-1v-2z" fill="#89684E"/>
<path transform="translate(994,1168)" d="m0 0h27l3 2v2h-5v-2l-45 1-29 2-59 2-50 1-28 1 1-2 21-1 38-1 40-2 65-2z" fill="#818995"/>
<path transform="translate(433,1521)" d="m0 0h65v1l-20 1 1 3-4 1-35 1-19 1h-1v-5l16-1z" fill="#C1B09C"/>
<path transform="translate(922,1447)" d="m0 0h11l8 1 24 1v1h-36l9 1 36 1 7 2v1l-5 1h-57v-2l-9-1 1-2 11-1-2-2z" fill="#8D623E"/>
<path transform="translate(679,1399)" d="m0 0h5l-2 9h6l-1 2h-3v2l3-1 4 1 6 1v1h-47l4-4 7-4 9-3z" fill="#C7B8A7"/>
<path transform="translate(1008,1206)" d="m0 0h3l-1 4-17 2-49 3h-19l-8-2v-1l78-5z" fill="#222120"/>
<path transform="translate(861,1431)" d="m0 0 44 1h3v2l18 2 2 2-4 1-25-1-10 1-17-1-1 2-9-1 2-1-1-3 1-1h6l-8-1-3 1-3-2z" fill="#815F42"/>
<path transform="translate(566,1478)" d="m0 0h8l1 2-9 2v3 2h2l2 7v4l2 1v4h-2l-1 8-9 3-4-1 3-3v-7h2l-1-14h-2l-2-3v-3l10-4z" fill="#C1B09C"/>
<path transform="translate(773,1309)" d="m0 0h28l16 1h32l-1 4h-33l-21 1-10 1-9-1-4 1v2h-5l3-4 4-1z" fill="#BEBFC1"/>
<path transform="translate(709,1482)" d="m0 0 9 2h7l5 1 1 2 3 1h37l1-3 10-1 1 1 7 1v1l-7 1h-9v2h-45l1 1 109 1v1l-112 1-1-3-4-1v-2l-5-1-8-4z" fill="#818185"/>
<path transform="translate(728,1489)" d="m0 0h125l-1 2-13 1h-109l-2-1z" fill="#989FAA"/>
<path transform="translate(695,1199)" d="m0 0 2 1v2l11 8 17 1 6 1v1h-21l-2 16-1-3-5-2-8-8-2-4 1-10z" fill="#DCE3EC"/>
<path transform="translate(710,1417)" d="m0 0 16 1 3 3-1 18 2 3 4 1 4 7-4-1-23-23-3-4 1-3 3 2z" fill="#B5977A"/>
<path transform="translate(847,1432)" d="m0 0h3l1 4 6 1-1-4 8-1 7 1-2 3v-2l-5 1v3l7 1 6 2-2 2-9 1h-34l-1-3-7-1 2-2 21-1v-4z" fill="#3E2E1E"/>
<path transform="translate(1e3 1489)" d="m0 0h68l-4 2-11 1h-113l3-2z" fill="#070706"/>
<path transform="translate(531,1498)" d="m0 0 1 2h7l5 2v2l-4 2-95 1h-137v-1l134-1 34-1v-2h2v3l52-1v-3z" fill="#8F9095"/>
<path transform="translate(907,1328)" d="m0 0h32l54 1 1 5-2 1v-3h-151v-1l65-1z" fill="#8E8887"/>
<path transform="translate(456,830)" d="m0 0h6l-2 5-6 10-8 21-6-1 2-9 3-9v-12l7-4z" fill="#1B1716"/>
<path transform="translate(738,1426)" d="m0 0h42l66 1v1l-5 1-39 1-4 4 1-5h-35l-5 2h-7l8 4-3 1-13-2v-1h5l-1-3h-8z" fill="#36281B"/>
<path transform="translate(614,1450)" d="m0 0m-12 1h12l-2 2-10 4-16 2h-5v2l-15 6h-2v2h-2l1 3-4 3 6 2v1h-10l-3-2 2-6 6-2 1-3 5-3 3-1 1-3 21-4 5-2z" fill="#C0AF9B"/>
<path transform="translate(317,1496)" d="m0 0h80l37 1 8 3v-2l7-1h19v2l6 1-4 2-51-1-1-1-25-2-76-1z" fill="#BAC0C9"/>
<path transform="translate(263,1578)" d="m0 0 22 1 11 1v2h5v1h-90v-1l14-1 2-2z" fill="#8C613D"/>
<path transform="translate(544,1471)" d="m0 0 2 2 3 11 2 5-1 5-7 3-9 1-33-1v-1h32l2-7 5-9z" fill="#BFC7D4"/>
<path transform="translate(707,1435)" d="m0 0 4 2 5 4 3 1 5 5 4 2v3l3 1-1 3h2v5l5 1 22 1 3 2 19 1 6 1-4 2h-44l2-3 4-1-13-2-5-5-2-6-4-2v-2l-3-1v-2h-2v-2l-4-2z" fill="#6F5235"/>
<path transform="translate(994,1582)" d="m0 0h103v4h-40l-7-1h-20l-4-1-6 2-15-2-11-1z" fill="#312216"/>
<path transform="translate(741,1200)" d="m0 0h24l19 3 5 1h11l2-4 2 13-11-2-52-10z" fill="#777F8B"/>
<path transform="translate(263,1517)" d="m0 0 19 1 1-1h73v1l19 1v1h-120v2h-5l-1-3 9-1z" fill="#A68D74"/>
<path transform="translate(1089,1410)" d="m0 0h8v28h-10v-27z" fill="#212020"/>
<path transform="translate(961,1276)" d="m0 0 29 1-4 2-47 1h-100v-1h62v-2z" fill="#1C1715"/>
<path transform="translate(747,1334)" d="m0 0 7 4 1 5-1 34-2 3h-2l-2-20-1-2-1-23z" fill="#342518"/>
<path transform="translate(309,815)" d="m0 0 1 2 3 1-6 2-26 6-10-1-7 1 1 2h-14l-3-2 24-6 15-3 1 1h9l3-1 1 1 1-2z" fill="#211E1D"/>
<path transform="translate(538,1155)" d="m0 0h1l1 11v98h8v6l3 1-9 1v11l-1 5v6l-2-2-1-106z" fill="#C5CCD6"/>
<path transform="translate(880,1341)" d="m0 0h127l2 2-8 3-2 3-6-1-10-4-14-1-8 1-5-1h-37l-39-1z" fill="#777F8B"/>
<path transform="translate(1024,1361)" d="m0 0h13l18 2 16 6 5 4-12-1-8-2h-13l-15-6z" fill="#BDC6D4"/>
<path transform="translate(547,1504)" d="m0 0 1 2-5 5 2 2-5 2h-40v-2l2-1 23-1 3-3-3-1 2-1z" fill="#32251B"/>
<path transform="translate(1081,1279)" d="m0 0 16 1v12l-9 1-4 4-2 3h-2v-17z" fill="#B8B7B7"/>
<path transform="translate(718,1368)" d="m0 0h4v9l-4 2v3l-7 1h-9l2-1v-2l-4-1-6-3v-3l6-1 1-2 9 1 2 5 5-1z" fill="#D5DCE6"/>
<path transform="translate(1088,1276)" d="m0 0h9v4h-9l-7-1-2 29-1 5h-3l-1-3-1-19 2-10 1-4z" fill="#2C231B"/>
<path transform="translate(540,1576)" d="m0 0 7 2h9l7 2h7v2l3-1v2h-77l-5-1v-1h13l9-1 2 1h6l3-2h11z" fill="#926C45"/>
<path transform="translate(689,1450)" d="m0 0h9v1h-5l3 3v2l5 2 9 2v-5h3l1 6-4 2-1 3h-2l-1 3-4-2v-2l-6-2-8-4-12-4 4-2z" fill="#B59576"/>
<path transform="translate(208,1468)" d="m0 0 2 1-4 7 2 1h-4v2l-12 2-24-1-3-2-43-1v-1h19l1-4h2v4h25v-4h3l-1 4 32-1 4-6z" fill="#777F8B"/>
<path transform="translate(779,1329)" d="m0 0h37l100 1v1l-75 1h-69v-1l7-1z" fill="#B8BBC1"/>
<path transform="translate(802,1429)" d="m0 0h54l16 1 1 2h-17l2 3-1 4v-2h-6l-1-1v-5l-5 1h-16l-6 1-7-1v3l-7 1 3-3-10-1z" fill="#BBAD9E"/>
<path transform="translate(764,1428)" d="m0 0h32l-3 3 4 2-2 2-18-1-1-3-1 3-3 2h-8l-8-2-5-3v-1h9z" fill="#3C2D1E"/>
<path transform="translate(1015,1204)" d="m0 0 7 1-1 3-9-1v2h2l-1 4h-14l-42 3h-87v-1l74-1 61-4 5-1v-4z" fill="#7D8591"/>
<path transform="translate(916,1423)" d="m0 0h15l40 1-2 2-9 1-44 1-21 1 2-3z" fill="#846143"/>
<path transform="translate(1035,1323)" d="m0 0 9 3 2 1v2l4 1 16 9v2h-22l-1-3 1-2h-2l-2-4-2-1-2-6z" fill="#8D95A1"/>
<path transform="translate(1033,1320)" d="m0 0 5 2 8 4-2 1-8-3 2 2v5l3 1 1 4h2v5h-16l1-11 2-8z" fill="#ACB6C3"/>
<path transform="translate(922,1445)" d="m0 0 17 1 44 1h41l2 2-4 1h-57l-24-1-11-1h-10l-3-2z" fill="#BCB5B0"/>
<path transform="translate(707,1421)" d="m0 0 16 16v2l4 2 8 8 3 1-2-7 3 3 1 5 4 1 1 7 3 1-4 1h-5v-2h-2v-2h2l-5-5-9-7-15-15-3-6z" fill="#3D2E1E"/>
<path transform="translate(819,1462)" d="m0 0h25l65 1v1h-10v2h-38l-42-2z" fill="#848A94"/>
<path transform="translate(782,1325)" d="m0 0 84 1-4 2-94 1-6-1v-2z" fill="#777F8B"/>
<path transform="translate(1e3 1318)" d="m0 0h1v10l-1 3h2l4 4 5 2v4h-9l-9-1h-57v-1l33-1v-1l28-1z" fill="#AEB6C1"/>
<path transform="translate(918,1440)" d="m0 0 23 1-1 2 5 1 30 1 11 1 37 1v1h-42l-42-1-15-2-2-3z" fill="#8A7869"/>
<path transform="translate(328,805)" d="m0 0h3v2h2v7h-2l-2-4-1 2-11 3-1 3-6-1-1-1-5 1-2-1-1 3-2-1-2 1h-9l-1-2 28-7z" fill="#2D2C2E"/>
<path transform="translate(916,1427)" d="m0 0h14v1l-10 1-2 3 2 1h13l-2 2h-23l-2-2h-2l-31-1-1-2z" fill="#BBB5AF"/>
<path transform="translate(60,1273)" d="m0 0h1v7l-1 4h-15l-6-1v-5l3-1v-2l2-1z" fill="#7A828E"/>
<path transform="translate(542,1510)" d="m0 0 6 2-3 3-4 1-44 1h-26l-1 2-1-1-103-1v-1l129-1 45-1 4-1z" fill="#936D46"/>
<path transform="translate(699,1389)" d="m0 0 4 1 7 8 12 11h-3l-12-9-5-4h-6l-1 4 6 7-1 2-4-4v-2h-3l-1-6-7 1-17 7-5 1 3-3 23-10z" fill="#816B56"/>
<path transform="translate(548,1271)" d="m0 0 5 1-1 16-3 5-3 3h-3v-11l5-1v-2h-6v-10z" fill="#040403"/>
<path transform="translate(411,1541)" d="m0 0 40 1-4 4-7 2-2 1-13-2v-2h-29l2-2 4-1z" fill="#C09878"/>
<path transform="translate(839,1458)" d="m0 0h40l36 1v1l-46 1-2 2h-23l-22-1 1-3z" fill="#2A1F16"/>
<path transform="translate(1016,1383)" d="m0 0h6l2 2-24 5-21 6h-5v-1h-13l1-2 20-3 25-6z" fill="#AFB8C4"/>
<path transform="translate(736,1332)" d="m0 0 10 2v21l-2 7-4-1-4-27z" fill="#DBE2EB"/>
<path transform="translate(562,1440)" d="m0 0 1 3-5 5-1 3-5 2-7 2-3 2v-15l17-1z" fill="#A07A55"/>
<path transform="translate(829,1431)" d="m0 0h21l-2 2v4l-1 1-21 1-8 1-9-1v-2l13-1 2-4z" fill="#936E4D"/>
<path transform="translate(730,1330)" d="m0 0h1l1 6v4l3 1 2 13 1 7-4 2v2h-4l-2-4-2 4h-3l1-4 3-2h4l-2-18-1-7 1-2-3-1z" fill="#D0D7E0"/>
<path transform="translate(956,1272)" d="m0 0h25l4 2-14 1-5 1h-12l-4-1h-78v-1z" fill="#C1B09C"/>
<path transform="translate(739,1200)" d="m0 0 24 4 35 7 3 1 1 3h-9l-10-2-19-5-24-6z" fill="#1F1D1C"/>
<path transform="translate(710,1473)" d="m0 0 19 1v4 6h-2l-1 3-2-2-10-1-5-2 1-3 3-1z" fill="#848080"/>
<path transform="translate(659,1583)" d="m0 0h37l-3 3-6 1-43 1h-18l2-2h33v-2z" fill="#312216"/>
<path transform="translate(766,1233)" d="m0 0h85l-1 2-38 1h-41v-1l-5-1z" fill="#A4AEBB"/>
<path transform="translate(931,1367)" d="m0 0 8 1 27 9v3l-7 1-16-5-14-6-1-2z" fill="#7E8692"/>
<path transform="translate(1083,1443)" d="m0 0h14v10l-13 3-2 1-2-1v2h-8l-3-3v-1h15v-4l-2-1 6-1z" fill="#312216"/>
<path transform="translate(693,1441)" d="m0 0 1 4 12-2 4-1 7 11-2 4-1-3h-4l-2-2-1 3-9-1-5-1v-2l8-2v-2h-7l-1-1z" fill="#3E2F20"/>
<path transform="translate(796,1443)" d="m0 0 65 1v2l-8 1h-33l-23-1-9-1v-1z" fill="#9F8D7C"/>
<path transform="translate(910,1455)" d="m0 0 65 1v1l-31 1-16 1h-47v-1l22-2z" fill="#36281C"/>
<path transform="translate(989,1377)" d="m0 0h16l9 1v3l-10 1v2l-13 2-3-3-4-1v-2h-4v-2z" fill="#ABB4C1"/>
<path transform="translate(1093,1494)" d="m0 0 4 1v3h-34l-25-1-47-1v-1h55z" fill="#936D46"/>
<path transform="translate(1076,1439)" d="m0 0 1 2 6 1 6 6-5 2v1l-28-1-18-1-2-2h29l12 1z" fill="#382A1C"/>
<path transform="translate(1073,1405)" d="m0 0 4 3h5l1 5-3-1-27 3h-7l-2-3 9-2z" fill="#2D2118"/>
<path transform="translate(562,1436)" d="m0 0 1 2h2l2 4-1 9-6 3-4 3h-2v2l-3 1h-7l-2-3 4-4 11-2 1-4 4-4z" fill="#B08C66"/>
<path transform="translate(947,1436)" d="m0 0h36l35 1 2 2-10 1h-22l-34-2-7-1z" fill="#BEBEBF"/>
<path transform="translate(754,1363)" d="m0 0h1v9h81l-2 2-78 1-2 1z" fill="#7A818C"/>
<path transform="translate(994,1168)" d="m0 0h27l3 2v2h-5v-2l-45 1-29 2h-21l1-2z" fill="#7C838F"/>
<path transform="translate(706,1417)" d="m0 0v3l-1 6v9l-1 4 4 1-2 4-12 1-1-5 7-6h2l-2-9-3-2 1-3z" fill="#91867D"/>
<path transform="translate(746,1444)" d="m0 0h31l13 1 4 2-3 1-16 1-22-1-7-1z" fill="#211A16"/>
<path transform="translate(755,1396)" d="m0 0 4 2 19 19 2 1v2l51 1v1l-11 1h-37l-6-1-7-9-2-1-3-5-10-10z" fill="#908D8D"/>
<path transform="translate(972,1433)" d="m0 0h68v2l-23 1h-26l-22-1z" fill="#835B3A"/>
<path transform="translate(977,1344)" d="m0 0h10l11 5 4 1v2l4 2 4 5-3 1-13-6-13-5-2-2-3-2z" fill="#DAE1EA"/>
<path transform="translate(236,1495)" d="m0 0h77v1h-76l4 7 66 1v1h-67l-6-8z" fill="#B4BCC8"/>
<path transform="translate(922,1447)" d="m0 0h11l8 1 24 1v1h-36l9 1 2 1 10 1-4 2h-13v-2h-23l1-2 11-1-2-2z" fill="#A78A6D"/>
<path transform="translate(1011,1276)" d="m0 0 6 2 1 1v28l-2 3-3-5z" fill="#B0BAC7"/>
<path transform="translate(566,1306)" d="m0 0h1l2 12 2 9v11l-1 6h-3l-1-8h-4v-2l2-1 1-3h-2l-1-3 2-5 1-2z" fill="#7C8490"/>
<path transform="translate(914,1413)" d="m0 0m-28 1h28v1l-38 2-17 1-67-1v-1l74-1z" fill="#AEB8C6"/>
<path transform="translate(551,1288)" d="m0 0 1 2h10l2 2v8l-1-2-2 1h-17v-3l6-5z" fill="#BBC4D1"/>
<path transform="translate(800,1188)" d="m0 0h2l-1 5-9 4-22-2h-7l-1-1-20 1-6 1 3-3 10-2h14l26 3 9-3z" fill="#AEB8C5"/>
<path transform="translate(44,1461)" d="m0 0h3l1 6 1 7 6 4 7 9 2 4v3l2 1 2 3-5-1-3-2-3-8-4-3-4-7-6-3v-7l1-2-1-3z" fill="#BEBFC1"/>
<path transform="translate(1021,1414)" d="m0 0h13l-1 2-5 1-66 3h-10v-1l23-2z" fill="#30241A"/>
<path transform="translate(247,1493)" d="m0 0h67l1 1 24 1v1h-25v4h-2l-1 3-1-3 2-4-76-1v-1z" fill="#929AA6"/>
<path transform="translate(800,1455)" d="m0 0h43l24 1v2l-30 1-17-1-5-1-15-1z" fill="#A57F59"/>
<path transform="translate(1069,1471)" d="m0 0 7 1 5 4 13 1 3 1v3l-9 2-7-2-4-2-9-1v-6z" fill="#312216"/>
<path transform="translate(1032,1419)" d="m0 0h16v1l-5 1 3 2h-43l-16-1 4-2h33z" fill="#7E5F42"/>
<path transform="translate(9,1513)" d="m0 0 5 1v2l4 1 86 1v1h-99l-3-1v-2l7-1z" fill="#988777"/>
<path transform="translate(550,1493)" d="m0 0 1 3-2 5 1 8 1 4-2 3-8 1v-2l6-2-3-2v-2l3-3v-1h-6l3-1-1-2-11-2v-2l15-3z" fill="#8E8074"/>
<path transform="translate(497,1516)" d="m0 0h44v1l-22 2h-44l4-2z" fill="#9E7C5B"/>
<path transform="translate(708,1480)" d="m0 0 2 1v2l8 4 4 1v2l4 1 1 2 15 2 1 2h-17v-1l-7-2v-2l-7-2-6-3z" fill="#B19171"/>
<path transform="translate(685,1417)" d="m0 0h21l-1 2-7 2-1 2 4 2 1 9-5-1-4-4-1-7h-2v-2l-5-1z" fill="#B8A58E"/>
<path transform="translate(745,1335)" d="m0 0h1l2 23 1 2 1 20 4-3-1 4h-6l-1 3-7-1-2-1v-2h9v-18l-2-1 1-6z" fill="#B4B9C0"/>
<path transform="translate(966,1422)" d="m0 0h37l19 1v1l-41 2h-12l-3-2z" fill="#916F51"/>
<path transform="translate(703,1396)" d="m0 0 8 6 9 7 5 2-2 2-1-1-15-1v-2l-3-1-1-2z" fill="#958578"/>
<path transform="translate(994,1272)" d="m0 0 9 1 1 2 1 13v21l-1 7h-1v-40h-37v-1l5-1z" fill="#A5ADB7"/>
<path transform="translate(715,1465)" d="m0 0h12l3 3-3 3h-5v3h-11l-2 1-1-5 4-1 1-2h2z" fill="#958578"/>
<path transform="translate(1082,1391)" d="m0 0h1l-1 7-4 6 5 1-2 4-6-1-2-2-7 2h-6l4-4 16-8z" fill="#B3BCC8"/>
<path transform="translate(740,1321)" d="m0 0h2l5 6 2 1v2l3 1 2 3-1 4-6-3-11-2-2 1v-6l6 1v3h2l-1-4-2-1v-5z" fill="#847F7E"/>
<path transform="translate(563,1322)" d="m0 0h2l-2 6v2h2l-1 4-3 2h-6l-3-4v-6l2-2z" fill="#8D95A1"/>
<path transform="translate(995,1481)" d="m0 0h19l10 2v1l-6 1-31 1h-17v-1h16v-2z" fill="#C0B3A4"/>
<path transform="translate(1082,1396)" d="m0 0 1 2 3-1 3 1v2h4v2l4 1v4l-15 1v-3l-4-1 2-5z" fill="#212020"/>
<path transform="translate(807,1462)" d="m0 0 28 2 26 1v1l-50 1-9-1-16-1v-1l16-1z" fill="#2C251F"/>
<path transform="translate(539,1264)" d="m0 0h9v6l3 1-9 1v11l-1 5v6l-2-2z" fill="#D8DFE8"/>
<path transform="translate(0,1498)" d="m0 0 8 1 3 1v2l-6 1 2 1-1 3h-4v2l5 1 2 2v3l-7 1v2l3 1h-5z" fill="#B4A18D"/>
<path transform="translate(1035,1460)" d="m0 0h40l4 1-1 4v-3l-8 1-2 1-1-2h-93v-1z" fill="#777F8B"/>
<path transform="translate(544,1466)" d="m0 0h1v5l-4 9-8 16h-8l4-7 8-10h2l1-4z" fill="#BDBEC1"/>
<path transform="translate(1054,1420)" d="m0 0h10v3h-3v2l-19 1h-15l2-3 17-1z" fill="#C0B7AC"/>
<path transform="translate(650,1414)" d="m0 0 56 1-4 2h-54l-2 5-1-2 3-5z" fill="#937E6C"/>
<path transform="translate(731,1331)" d="m0 0 6 3 4 27 2 2-5 2-4-2 3-2-1-7-1-5v-8l-4-1v-4z" fill="#BABDC2"/>
<path transform="translate(845,1338)" d="m0 0h64v1l-29 1-15 1h-21z" fill="#BBC0C8"/>
<path transform="translate(737,1274)" d="m0 0h1v38l4 2 5 6 4 7 2 3h-4v-2l-4-2-3-3v-2l-3 1v-2h3l-7-9 1-10z" fill="#D9E0E8"/>
<path transform="translate(982,1341)" d="m0 0h25l2 2-8 3-2 3-6-1-11-5z" fill="#747B87"/>
<path transform="translate(700,1578)" d="m0 0 8 1 1 1 49 1v1h-95v-1l34-1z" fill="#8D623E"/>
<path transform="translate(246,1454)" d="m0 0 9 1 3 2h-21l1 4h-2v-2h-2l1 4h-2v2h-2v-7l-9 1-12 1v-2l-3-1 25-1 1-1h11z" fill="#29292A"/>
<path transform="translate(728,1468)" d="m0 0 5 2 4-1-1 9-2-2-3 7h2v5l-3-1-2-5 1-7-7-1v-3h5z" fill="#8D6946"/>
<path transform="translate(129,1457)" d="m0 0h77v1l-17 1-6 1v-2l-21 1-5 3-1 2h-2l2-6-22 1-5 3z" fill="#838A95"/>
<path transform="translate(722,1371)" d="m0 0 10 1-1 3h2l3 4v2h-16z" fill="#78808C"/>
<path transform="translate(63,1259)" d="m0 0h1v34l-2 12h-1v-22l1-10-2 1-18 1 1-2 18-1z" fill="#BDC5D0"/>
<path transform="translate(34,1503)" d="m0 0h26l-4 2-2 3h-23z" fill="#A0A8B4"/>
<path transform="translate(309,815)" d="m0 0 1 2 3 1-6 2-18 4h-5l-1-3 1-1-3-1 6-2 1 1h9l3-1 1 1 1-2z" fill="#171313"/>
<path transform="translate(691,1451)" d="m0 0h2l3 3v2l5 2 9 2v-5h3l1 6-4 2-1 2-8-2-7-3-3-3z" fill="#9F7C59"/>
<path transform="translate(747,1334)" d="m0 0 7 4 1 5h-2l-1 9-4 1v5h-1l-1-23z" fill="#403021"/>
<path transform="translate(448,847)" d="m0 0h3l-1 8-4 11-6-1 2-9 4-8z" fill="#080706"/>
<path transform="translate(770,1459)" d="m0 0h38l14 2-3 2-21-1-24-1z" fill="#B39A81"/>
<path transform="translate(708,1451)" d="m0 0 2 1v2h4l1 2 1-4h2l3 5v2l-2 1h-6v-5h-3v5l-9-1-5-3v-2l-2-1 7 1 6 1z" fill="#8F6540"/>
<path transform="translate(780,1426)" d="m0 0h73l11 2v1h-23v-1l-61-1z" fill="#8D623E"/>
<path transform="translate(1075,1288)" d="m0 0 4 1 1 9-2 15h-3l-1-3v-12z" fill="#1D1716"/>
<path transform="translate(0,1519)" d="m0 0h30l12 1v1l-14 1h-9l-19 2z" fill="#CEC0B0"/>
<path transform="translate(311,1541)" d="m0 0h63v1l-24 1-5 1h-9l-4 1-13-1-8-1z" fill="#B99878"/>
<path transform="translate(720,1455)" d="m0 0 6 3 3 5-6-2v2l2 1-3 1h-7v2h-2l-1 3-2-2v-1l-2-1 3-5 10-2z" fill="#8F96A1"/>
<path transform="translate(778,1409)" d="m0 0 17 1 38 1v1l-11 1h-36v-1l-9-1z" fill="#B8C1CF"/>
<path transform="translate(245,1519)" d="m0 0 5 1v2h5v-2h80l1 2h-75l-4 1h-8l-1-3z" fill="#BFAC96"/>
<path transform="translate(909,1463)" d="m0 0h37l1 2-28 1h-20v-2z" fill="#9AA0AA"/>
<path transform="translate(0,1457)" d="m0 0h38l-3 2-20 2h-12l-3-2z" fill="#B9A58E"/>
<path transform="translate(746,1441)" d="m0 0h33l8 2v1l-10 1-29-1z" fill="#927E6E"/>
<path transform="translate(938,1436)" d="m0 0 24 3 18 1v1l-30 1-2-1-18-1-1-2z" fill="#8C613D"/>
<path transform="translate(374,1472)" d="m0 0 4 1 1 4h-89v-1l84-1z" fill="#777F8B"/>
<path transform="translate(798,1427)" d="m0 0h48v1l-5 1-39 1-4 4 1-5-3-1z" fill="#3C2D1E"/>
<path transform="translate(951,1400)" d="m0 0h5l-4 2-6 1-2 4-9 1-1 1h-7v-5z" fill="#B0B9C7"/>
<path transform="translate(735,1201)" d="m0 0 9 6v3l4 1 3 2h-10l-7-2-1-2v-6z" fill="#AEB8C6"/>
<path transform="translate(803,1432)" d="m0 0h10l-3 3h6v-3h7v5l-12 1-2-1-1 2-8 1 3-5z" fill="#906D4E"/>
<path transform="translate(422,1469)" d="m0 0 5 1 4 1 1 4h22v1h-25l-26 1-3-2h2v-3h3v3l21-1-4-3z" fill="#6F7680"/>
<path transform="translate(1026,1444)" d="m0 0h48l3 1v3h-12l-39-3z" fill="#BDB8B2"/>
<path transform="translate(861,1431)" d="m0 0 19 1-3 5-5 1-1 2-9-1 2-1-1-3 1-1h6l-8-1-3 1-3-2z" fill="#8D6A4D"/>
<path transform="translate(1071,1302)" d="m0 0h2l1 9v21l-4-2-1-6z" fill="#222"/>
<path transform="translate(863,1450)" d="m0 0h18l2 1h24l1 2h-38l-7-2z" fill="#BEB8B3"/>
<path transform="translate(996,1413)" d="m0 0h26l-1 2-32 2h-12v-1l9-2h9z" fill="#ACB5C3"/>
<path transform="translate(584,1544)" d="m0 0h19v2h6v1h-14l-22 1h-14l-2-2z" fill="#B08C66"/>
<path transform="translate(920,1379)" d="m0 0 9 2 16 6 9 4-3 1-12-2-12-6-7-3z" fill="#A8B1BE"/>
<path transform="translate(971,1342)" d="m0 0 12 1v1l-6 1 6 2 3 5h-7l-3-1v-2l-10-1 1-2 2 1z" fill="#B1B9C4"/>
<path transform="translate(779,1329)" d="m0 0h37l6 1v1l-33 1h-17v-1l7-1z" fill="#AEB8C6"/>
<path transform="translate(28,1293)" d="m0 0h2l-1 8-9 35h-10v-1h8l2-11z" fill="#848C98"/>
<path transform="translate(873,1488)" d="m0 0h19l-3 3h-37l1-2z" fill="#8E939A"/>
<path transform="translate(747,1452)" d="m0 0h11l19 1v2l-9 1h-22z" fill="#1B1615"/>
<path transform="translate(971,1337)" d="m0 0h28l-1 2-17 1h-43v-1l33-1z" fill="#BAC1CC"/>
<path transform="translate(60,1295)" d="m0 0h1l1 5h1v17l-1 24h-1l-1-16-1-2z" fill="#A5ADBA"/>
<path transform="translate(763,1429)" d="m0 0 1 2h10l-2 5h-8l-8-2-5-3v-1h9z" fill="#8D623E"/>
<path transform="translate(984,1232)" d="m0 0h24l7 1v4l-4 1-6-2-1-1-25-1v-1z" fill="#AFB8C4"/>
<path transform="translate(839,1450)" d="m0 0h2v2h6v-2h6l1 2-1 2h8l1 2h-19v-2l-9-1 3-2z" fill="#3B2C1D"/>
<path transform="translate(1081,1331)" d="m0 0 3 2 7 2 6 2v3h-14l-3-1v-7z" fill="#BDBEC1"/>
<path transform="translate(0,1270)" d="m0 0h17l22 1 1 2h-32l-8-1z" fill="#BEC7D5"/>
<path transform="translate(1066,1450)" d="m0 0 18 1v3h-15l-17-1v-2z" fill="#906842"/>
<path transform="translate(14,1454)" d="m0 0h39l-1 3-45-1v-1z" fill="#9A8068"/>
<path transform="translate(872,1438)" d="m0 0h17l17 1 3 2h-37z" fill="#A5A19E"/>
<path transform="translate(1071,1390)" d="m0 0h1v5l-6 4-13 4-14 3-15-1v-1l17-1 14-3 12-6z" fill="#818995"/>
<path transform="translate(935,1353)" d="m0 0 7 1 17 7 15 6v2l2 1-7-1-12-6-22-9z" fill="#201C1B"/>
<path transform="translate(928,1449)" d="m0 0 44 1 2 2h-36l-9-1z" fill="#3C2D1E"/>
<path transform="translate(1024,1361)" d="m0 0h13l12 1v1h-7l1 5h-6l-13-6z" fill="#AFB9C7"/>
<path transform="translate(59,1323)" d="m0 0 2 2v28l-1 9h-1l-1-7v-17z" fill="#D9E0E9"/>
<path transform="translate(548,1271)" d="m0 0 5 1-2 9h-8v-9z" fill="#030302"/>
<path transform="translate(883,1447)" d="m0 0h9l1 1h27l3 2-2 1-39-1-2-2z" fill="#3C2D1E"/>
<path transform="translate(559,1441)" d="m0 0 3 1-4 3-6 2h-9l-1 4v-9z" fill="#6B4E32"/>
<path transform="translate(867,1439)" d="m0 0 10 2-2 2-9 1h-13l-2-2 3-2z" fill="#392A1C"/>
<path transform="translate(1080,1410)" d="m0 0 3 3-1 3-8 2h-12l4-2 1-1-3-2 16-1z" fill="#9B724C"/>
<path transform="translate(696,1395)" d="m0 0h6l1 1 1 13-5-3-5-6 1-4z" fill="#B7BFCA"/>
<path transform="translate(507,1580)" d="m0 0h6l2 1 36 1v1h-55l-5-1v-1h13z" fill="#8F6540"/>
<path transform="translate(755,1396)" d="m0 0 4 2 19 19 2 1v2l6 1v1h-9l-7-9-2-1-3-5-10-10z" fill="#946F4D"/>
<path transform="translate(1043,1328)" d="m0 0 6 1 15 9 2 1v2h-10l-1-5-10-5z" fill="#777F8B"/>
<path transform="translate(208,1468)" d="m0 0 2 1-4 7 2 1h-4v2l-12 2-1-2-14-1v-1l23-1 3-1 4-6z" fill="#818995"/>
<path transform="translate(1074,1417)" d="m0 0h5l-2 1v7h-1v-5l-22 1-5 1h-7l1-2 12-2z" fill="#433221"/>
<path transform="translate(4,1498)" d="m0 0 10 1-2 1v2l7 2v3l2 1h-10v-2l-5 1-1-2v-3h6l-7-3z" fill="#C0C6CD"/>
<path transform="translate(794,1429)" d="m0 0h5v4l3-3 2 5-2 4-4 2-6-1 3-4 1-3-4-2z" fill="#91735A"/>
<path transform="translate(968,1276)" d="m0 0h32l-2 1v5l-2-1-21-1v-1l11-1-18-1z" fill="#5C432C"/>
<path transform="translate(777,1461)" d="m0 0h21l9 1v1l-5 1h-25z" fill="#1B1512"/>
<path transform="translate(739,1200)" d="m0 0 24 4 15 3v1h-14l-24-6z" fill="#252220"/>
<path transform="translate(848,1422)" d="m0 0h37v1l-31 2h-11l4-2z" fill="#AB8F72"/>
<path transform="translate(708,1419)" d="m0 0 4 2v-2l5 1 3 11-2 2-7-7-3-4z" fill="#958475"/>
<path transform="translate(956,1272)" d="m0 0h25l4 2-14 1-5 1h-12l-3-1v-2z" fill="#BDB0A2"/>
<path transform="translate(670,1583)" d="m0 0h26l-3 3h-24l-1-2z" fill="#1B1615"/>
<path transform="translate(219,1455)" d="m0 0 13 1v1l-22 1v4l-5 4v-7l-6 2-2-3 6-1v-1z" fill="#242120"/>
<path transform="translate(703,1366)" d="m0 0h8l1 5 6-3-1 7-5 1-2-4-9-1z" fill="#828B97"/>
<path transform="translate(32,1503)" d="m0 0 2 1-1 3 25 1v1h-48l-4-2 5-1v2h10v-2h2v2h6l1-3h2z" fill="#897C73"/>
<path transform="translate(1073,1405)" d="m0 0 1 2-3 2v1l-9 1v2h-16v-2l20-4z" fill="#181413"/>
<path transform="translate(985,1350)" d="m0 0 9 3 20 9 1 2-9-3-20-7-6-1v-1l5-1z" fill="#BEC7D5"/>
<path transform="translate(779,1484)" d="m0 0 11 2v1l-16 2h-26v-1h23l1-3z" fill="#A27A52"/>
<path transform="translate(748,1464)" d="m0 0h38l2 1v2l-26-1-14-1z" fill="#957A61"/>
<path transform="translate(832,1460)" d="m0 0h37l-2 3h-23l-12-2z" fill="#1C1817"/>
<path transform="translate(694,1391)" d="m0 0 2 1-1 3-18 6-11 5-3-1 14-7z" fill="#98806B"/>
<path transform="translate(697,1372)" d="m0 0 4 1 3 1 1 4h8l1 2-6 1-7-1-7-4v-3z" fill="#B8BEC6"/>
<path transform="translate(542,1282)" d="m0 0h6v2l-3 1-3-1v40h-1v-23h-2v-9l1-4z" fill="#ACB4C1"/>
<path transform="translate(777,1453)" d="m0 0 4 1-3 4h-19l-11-1v-1l20-1h9z" fill="#362719"/>
<path transform="translate(953,1433)" d="m0 0h16v2h22v1h-41z" fill="#878382"/>
<path transform="translate(759,1328)" d="m0 0h12l13 2v1l-12 1h-15l2-1z" fill="#BBBDC1"/>
<path transform="translate(287,1580)" d="m0 0h9v2h5v1h-26l-13-1v-1z" fill="#916A44"/>
<path transform="translate(2,1544)" d="m0 0h8v5l1 2-7 1-4-2v-5z" fill="#C39878"/>
<path transform="translate(1036,1447)" d="m0 0h28v1l10 1v1h-18l-18-1z" fill="#3C2D1E"/>
<path transform="translate(802,1429)" d="m0 0h18l3 3h-7v3l-7 1 3-3-10-1z" fill="#A79889"/>
<path transform="translate(891,1367)" d="m0 0h3v2l6 1 20 8-1 3-22-9-4-2-8-1v-1z" fill="#B8C0CB"/>
<path transform="translate(785,1577)" d="m0 0h9l3 3-5 1h-19l-1-2 12-1z" fill="#8E643F"/>
<path transform="translate(499,1506)" d="m0 0h28l1 4-1 1h-7l-9-2v-1l-12-1z" fill="#8B613D"/>
<path transform="translate(343,1468)" d="m0 0h1l-1 7h31v1h-44v-1h9l1-4z" fill="#3E3F43"/>
<path transform="translate(471,1517)" d="m0 0h8v1h41l1 2h-51z" fill="#A98A6A"/>
<path transform="translate(34,1521)" d="m0 0m-15 0h12l3 2-1 1h-29l4-2z" fill="#C1B09C"/>
<path transform="translate(727,1484)" d="m0 0 3 1 1 2 3 1 40 1v1h-47z" fill="#8D95A1"/>
<path transform="translate(1016,1383)" d="m0 0h6l2 2-19 4h-4v-2l-3-1 9-2z" fill="#A7B1BE"/>
<path transform="translate(1e3 1377)" d="m0 0 11 1v3l-10 1v2h-10l2-2 7-3z" fill="#B3BCCA"/>
<path transform="translate(554,1291)" d="m0 0h6l-3 2h-2l-1 4-2-1v2h9v1h-17v-3z" fill="#7D8591"/>
<path transform="translate(1016,1254)" d="m0 0 1 4 2 5v9l-5-1-1-4 2-11z" fill="#B1B9C4"/>
<path transform="translate(284,1587)" d="m0 0h31v2h-6l-1 2-3-1h-16l-7-1z" fill="#312216"/>
<path transform="translate(1053,1414)" d="m0 0h17l-4 3-4 1h-12l-2-2z" fill="#A47D56"/>
<path transform="translate(544,1516)" d="m0 0h2v2l-3 2h-22l1-2z" fill="#B49574"/>
<path transform="translate(542,1510)" d="m0 0 6 2-3 3-4 1h-46v-1l45-1 4-1z" fill="#8D633F"/>
<path transform="translate(908,1450)" d="m0 0h13v1l-10 1 22 1v1l-26 2v-1l-6-1v-1h7z" fill="#936B46"/>
<path transform="translate(710,1473)" d="m0 0 19 1v4h-13l-6-4z" fill="#2E261F"/>
<path transform="translate(800,1455)" d="m0 0h29l5 2v1h-14l-5-1-15-1z" fill="#8E6642"/>
<path transform="translate(1024,1447)" d="m0 0h12l5 2 8 1v1h-19l-8-1z" fill="#926F4D"/>
<path transform="translate(745,1434)" d="m0 0h7l9 3-4 2h-11l-1 2z" fill="#907761"/>
<path transform="translate(790,1428)" d="m0 0h6l-3 3 4 2-2 2-7-1-3-1-6-1v-2h8z" fill="#59412B"/>
<path transform="translate(745,1335)" d="m0 0h1l2 23 1 2v8l-3-3v-3l-2-1 1-6z" fill="#AEACAE"/>
<path transform="translate(7,1339)" d="m0 0h36v1l-31 1-4 1h-8v-2z" fill="#BEBFC1"/>
<path transform="translate(531,1498)" d="m0 0 1 2h7l5 2v2l-3 1h-11l1-3z" fill="#BBBFC7"/>
<path transform="translate(699,1439)" d="m0 0h5l4 1-2 4-12 1 1-4z" fill="#B2A69A"/>
<path transform="translate(742,1385)" d="m0 0 5 1 5 5 4 5 3 5-6-3v-2l-3-1v-2l-4-2-2-4h-2z" fill="#AA8967"/>
<path transform="translate(1080,1339)" d="m0 0 17 1v4h-12l-4-2z" fill="#7A706A"/>
<path transform="translate(513,1516)" d="m0 0h28v1l-22 2h-10v-2z" fill="#A27A52"/>
<path transform="translate(1033,1488)" d="m0 0h45v2l-2 1h-8v-1l-35-1z" fill="#201E1D"/>
<path transform="translate(746,1464)" d="m0 0 35 2v1h-40l4-2z" fill="#956D47"/>
<path transform="translate(942,1433)" d="m0 0h11l3 2-8 2v1l-10-1h-6v-2l10-1z" fill="#908074"/>
<path transform="translate(710,1480)" d="m0 0h14l1 4-1 1-10-1-5-2z" fill="#8E6540"/>
<path transform="translate(701,1391)" d="m0 0 4 2 11 11 6 5h-3l-12-9-6-7z" fill="#644931"/>
<path transform="translate(134,1580)" d="m0 0h5v2l38 1v1h-35l-9-1z" fill="#3B2C1D"/>
<path transform="translate(996,1282)" d="m0 0h2l-1 5-2 3-8-1-3-2 3-2 9-1z" fill="#8D919A"/>
<path transform="translate(62,1279)" d="m0 0h2v14l-2 12h-1v-22z" fill="#C0C6D0"/>
<path transform="translate(545,1467)" d="m0 0 2 1 1 8 13 3v1l-12 1-1 3-3-11z" fill="#93857A"/>
<path transform="translate(1024,1368)" d="m0 0 6 2 6 3 16 3-4 2-8 1v-2l-9-4-7-4z" fill="#A4ADB9"/>
<path transform="translate(728,1468)" d="m0 0 5 2 4-1v3l-8 3-7-1v-3h5z" fill="#8C6440"/>
<path transform="translate(392,1457)" d="m0 0h24v1h-11l3 6 2 1v2l3 1-1 2h-2l-3-4-3-1-1-5-2-1-9-1z" fill="#7A828E"/>
<path transform="translate(1054,1420)" d="m0 0h10v3h-3v2h-9l-3-4z" fill="#B4A28E"/>
<path transform="translate(867,1456)" d="m0 0h10v3h-37v-1h27z" fill="#916742"/>
<path transform="translate(698,1450)" d="m0 0h10l-1 5-9-1-5-1v-2z" fill="#31261C"/>
<path transform="translate(752,1361)" d="m0 0h1l1 16-2 3h-2v-15z" fill="#1D1714"/>
<path transform="translate(910,1357)" d="m0 0 3 1 8 4v1h-23l3-2 8-3z" fill="#B8BCC2"/>
<path transform="translate(329,809)" d="m0 0 1 3-1 4-4 1h-10l1-3 7-2h5z" fill="#191514"/>
<path transform="translate(162,1458)" d="m0 0h21l1 3-5 4h-2l1-3 3-2-11-1v3h-2v2l-5 1 5-6h-6z" fill="#353638"/>
<path transform="translate(345,1457)" d="m0 0h37l-5 4-3-2h-22l-4 1z" fill="#7D8591"/>
<path transform="translate(889,1440)" d="m0 0 4 2-6 2h-21v-1l9-1 2-1z" fill="#865E3B"/>
<path transform="translate(824,1432)" d="m0 0 2 3 5 2v1l-13 2-9-1v-2l13-1z" fill="#998572"/>
<path transform="translate(948,1407)" d="m0 0 12 1v1l-18 2h-10l2-2z" fill="#737B87"/>
<path transform="translate(450,1499)" d="m0 0h18l6 1-4 2h-14l-7-1z" fill="#BEC2C8"/>
<path transform="translate(142,1472)" d="m0 0h2v4h20v1h-42v-1h19z" fill="#78808C"/>
<path transform="translate(547,1415)" d="m0 0 2 1-1 10-4 1-1-7v-3z" fill="#8D857F"/>
<path transform="translate(1093,1380)" d="m0 0h4v6h-6v-2l-11-2v-1z" fill="#6B727C"/>
<path transform="translate(1014,1380)" d="m0 0h15l1 2-11 1-8 1-2-1h-5l4-2z" fill="#757C87"/>
<path transform="translate(1077,1323)" d="m0 0h1l1 7v10l-4-4v-12z" fill="#1C1716"/>
<path transform="translate(1084,1452)" d="m0 0m-15 2h15l-1 3-3-1v2h-8l-3-3z" fill="#392A1B"/>
<path transform="translate(742,1429)" d="m0 0h6l1 4-5 1-1 9-2-2-1-11z" fill="#8E6F54"/>
<path transform="translate(692,1400)" d="m0 0 1 3h3l5 5 2 1-3 2-6-1-3-6z" fill="#B39E88"/>
<path transform="translate(56,1394)" d="m0 0h2v20l-3-1v-13z" fill="#BEC5D0"/>
<path transform="translate(725,1318)" d="m0 0h3v6l2 1h-2v6l-3-1-2-7z" fill="#949CA7"/>
<path transform="translate(769,1207)" d="m0 0 12 2 14 3v1h-8l-14-3-4-1z" fill="#0E0C0C"/>
<path transform="translate(1051,1453)" d="m0 0h18v1l-13 1-5 1-18-1v-1z" fill="#362719"/>
<path transform="translate(1074,1432)" d="m0 0 1 4-20-1-1-2z" fill="#BEBEBF"/>
<path transform="translate(694,1381)" d="m0 0h2v2h5v2l3-1 1 5-2 3-3-4v-3h-8z" fill="#B7B2AD"/>
<path transform="translate(411,1541)" d="m0 0h6v3 1h-21l2-2 4-1z" fill="#C49978"/>
<path transform="translate(717,1411)" d="m0 0h5l4 3v2h-20v-1l12-1-2-2z" fill="#B79E83"/>
<path transform="translate(737,1350)" d="m0 0 3 2 1 9 2 2-5 2-4-2 3-2-1-9z" fill="#BABFC6"/>
<path transform="translate(459,835)" d="m0 0 2 1-5 11-2 5h-2l-1 2 1-6 6-12z" fill="#868E9A"/>
<path transform="translate(546,1560)" d="m0 0 9 1 2 1-1 3-15-1 1-3z" fill="#B08C66"/>
<path transform="translate(547,1506)" d="m0 0h3v5l1 2-2 3-8 1v-2l6-2-3-2v-2z" fill="#998470"/>
<path transform="translate(839,1458)" d="m0 0 1 2-2 2h-16l1-3z" fill="#342518"/>
<path transform="translate(839,1450)" d="m0 0h2v2h6v-2h6v3l-14 1-5-1 3-2z" fill="#302115"/>
<path transform="translate(931,1447)" d="m0 0 10 1 24 1v1h-35z" fill="#877B72"/>
<path transform="translate(1050,1442)" d="m0 0h5v2l13-1h7l1 2h-26z" fill="#868383"/>
<path transform="translate(820,1440)" d="m0 0h13v3h-22v-1l9-1z" fill="#302116"/>
<path transform="translate(787,1422)" d="m0 0 16 1-2 2-15 1-5-1 1-2z" fill="#C09877"/>
<path transform="translate(1079,1381)" d="m0 0 8 1 4 2v2h6v1h-9l-7-2z" fill="#212020"/>
<path transform="translate(731,1201)" d="m0 0 4 1-1 1v6l1 2 6 1v1h-7l-2-1-1-5-3-1 2-4z" fill="#BEBFC1"/>
<path transform="translate(256,824)" d="m0 0h7v2l2 2h-14l-3-2z" fill="#191412"/>
<path transform="translate(722,1465)" d="m0 0h5l3 3-3 3h-6l-1-5z" fill="#A17A52"/>
<path transform="translate(1073,1444)" d="m0 0 4 1v3h-12l-3-1v-2z" fill="#A8A6A6"/>
<path transform="translate(700,1438)" d="m0 0h8l8 9 2 5-4-2-4-6v-2h-2v-2l-4 1v-2z" fill="#A18468"/>
<path transform="translate(884,1429)" d="m0 0h8l2 2-4 1h-17l-1-2z" fill="#C0C2C6"/>
<path transform="translate(443,847)" d="m0 0 2 2-4 13-2 1v-7l2-7z" fill="#89919E"/>
<path transform="translate(263,1578)" d="m0 0 22 1 2 2h-20z" fill="#8E6540"/>
<path transform="translate(9,1513)" d="m0 0 5 1v2l4 2h-16v-2l7-1z" fill="#946E4C"/>
<path transform="translate(558,1478)" d="m0 0h8l1 2-14 3-3 1 1 3h-2v-6l9-2z" fill="#B79B7D"/>
<path transform="translate(816,1432)" d="m0 0h7v5l-10 1v-3h3z" fill="#795637"/>
<path transform="translate(960,1341)" d="m0 0h22v2h-13l-8 1z" fill="#7B838F"/>
<path transform="translate(1088,1276)" d="m0 0h9v4h-9l-6-1v-1h6z" fill="#3A2B1D"/>
<path transform="translate(695,1460)" d="m0 0 6 2 8 3-2 1-1 3-4-2v-2l-6-2z" fill="#B89879"/>
<path transform="translate(318,1457)" d="m0 0h17v1h-10l1 8-3-1-1-5-4-2z" fill="#656B74"/>
<path transform="translate(986,1414)" d="m0 0 19 1v1l-16 1h-12v-1z" fill="#969FAB"/>
<path transform="translate(711,1398)" d="m0 0 3 1 5 5 8 7 2 3-4-2-13-11z" fill="#C8B7A5"/>
<path transform="translate(544,1354)" d="m0 0 4 1 1 4 1 3-4 1-3-1v-7z" fill="#93877D"/>
<path transform="translate(1e3 1334)" d="m0 0 8 3v4h-6l-2-3z" fill="#BDC0C4"/>
<path transform="translate(755,1191)" d="m0 0m-6 0h5l1 3-13 1-6 1 3-3z" fill="#A9B3C0"/>
<path transform="translate(352,1458)" d="m0 0h22v1h-6l-1 4-3 1-1-4-11-1z" fill="#2C2C2E"/>
<path transform="translate(918,1440)" d="m0 0 20 1v2h-12v2h-2l-2-3z" fill="#BDBEBF"/>
<path transform="translate(904,1425)" d="m0 0h7l-2 3-14 1 2-3z" fill="#846240"/>
<path transform="translate(694,1420)" d="m0 0 4 1-1 2 4 2 1 7-8-8z" fill="#B89878"/>
<path transform="translate(650,1414)" d="m0 0 19 1v1l-21 1-2 5-1-2 3-5z" fill="#443323"/>
<path transform="translate(883,1447)" d="m0 0h9l6 2v1h-16l-2-2z" fill="#3A2B1C"/>
<path transform="translate(702,1416)" d="m0 0h12l-3 2 2 5-4-3-3 3-2 3 1-6 2-3h-5z" fill="#755436"/>
<path transform="translate(778,1412)" d="m0 0 8 1-3 1 1 4h-6l-2-4z" fill="#B4BECC"/>
<path transform="translate(744,1327)" d="m0 0 5 1v2l3 1 2 3-1 4-3-2-1-3-5-5z" fill="#7D5D43"/>
<path transform="translate(542,1272)" d="m0 0h1v9h8l1-3v10l-1-3h-5l2-1v-2h-6z" fill="#1F1D1D"/>
<path transform="translate(721,1233)" d="m0 0 5 1v5l6 2 2 4-8-3-5-7z" fill="#BEC7D5"/>
<path transform="translate(56,1504)" d="m0 0h5v2l4 1v2l-11-1v-3z" fill="#8C8E94"/>
<path transform="translate(129,1457)" d="m0 0h27v1l-22 1-5 3z" fill="#808894"/>
<path transform="translate(702,1433)" d="m0 0 2 2v3l-8 3h-3l5-6z" fill="#686E77"/>
<path transform="translate(696,1395)" d="m0 0h6v7l-2-2 1-4h-2v5h-4l-1-4z" fill="#D8DEE7"/>
<path transform="translate(1074,1315)" d="m0 0h1l1 21 5 5h-6l-1-1z" fill="#34291E"/>
<path transform="translate(207,1457)" d="m0 0h25l-1 2h-15l-6 1v-2z" fill="#878F9B"/>
<path transform="translate(1083,1443)" d="m0 0h14v4l-13-2z" fill="#1B1615"/>
<path transform="translate(1064,1441)" d="m0 0h11v3h-20v-2z" fill="#8D623E"/>
<path transform="translate(1074,1381)" d="m0 0h5v7l-4-1-5-2z" fill="#7A828E"/>
<path transform="translate(729,1465)" d="m0 0 9 1 1 4-7 1-3-4z" fill="#999FA8"/>
<path transform="translate(810,1460)" d="m0 0 12 1-3 2-21-1v-1z" fill="#917054"/>
<path transform="translate(758,1433)" d="m0 0h14v3h-8l-6-1z" fill="#96806C"/>
<path transform="translate(563,1322)" d="m0 0h2l-2 5h-2l-2 4v-3l-2-1 1-1-4-2z" fill="#7E8692"/>
<path transform="translate(363,1545)" d="m0 0h9l2 2-10 1-3 1h-4v-2z" fill="#BC9878"/>
<path transform="translate(863,1450)" d="m0 0h15l3 3h-11l-7-2z" fill="#8F8075"/>
<path transform="translate(830,1431)" d="m0 0h8l2 1v2h-5l-1 3-3-1v-2l-2-1z" fill="#98887A"/>
<path transform="translate(731,1331)" d="m0 0 6 3v2l-2 1v4l-4-1v-4z" fill="#BEC3CA"/>
<path transform="translate(271,824)" d="m0 0 7 1-2 2-4 1h-7l-3-2z" fill="#040403"/>
<path transform="translate(716,1452)" d="m0 0h2l3 5v2l-2 1h-6l1-3h2z" fill="#805D3F"/>
<path transform="translate(704,1402)" d="m0 0 4 2 5 6h-6l-3-2z" fill="#8E6746"/>
<path transform="translate(1038,1376)" d="m0 0 5 1-3 2-2 1h-10l1-2z" fill="#D8E0E9"/>
<path transform="translate(1e3 1558)" d="m0 0 2 2 8 1v1l-14 1v-2l-3-1z" fill="#936D46"/>
<path transform="translate(726,1439)" d="m0 0 4 3 4 1 4 7-4-1-8-8z" fill="#B7A99A"/>
<path transform="translate(850,1432)" d="m0 0 6 1 2 2-1 4v-2h-6z" fill="#927862"/>
<path transform="translate(774,1415)" d="m0 0 6 3v2l6 1v1h-9l-3-4z" fill="#7E6147"/>
<path transform="translate(1081,1408)" d="m0 0 2 3-1 2-2-1-12 1 4-2 3-2z" fill="#362A1E"/>
<path transform="translate(695,1377)" d="m0 0 5 1 4 2v2l-6 2-2-1 1-5z" fill="#E7ECF1"/>
<path transform="translate(712,1365)" d="m0 0h5l1 3-6 4-1-1v-5z" fill="#1F1D1D"/>
<path transform="translate(962,1363)" d="m0 0 10 3 2 1v2l2 1-7-1-8-4z" fill="#38383B"/>
<path transform="translate(309,815)" d="m0 0 1 2 3 1-6 2-6-1 1-3z" fill="#1B1716"/>
<path transform="translate(538,1497)" d="m0 0h5l1 3-5 1-7-1v-2z" fill="#868B93"/>
<path transform="translate(105,1457)" d="m0 0h21v1l-18 1-6 3 2-4z" fill="#7E8693"/>
<path transform="translate(731,1433)" d="m0 0 5 2 1 5-3 1-3-3-1-4z" fill="#B59574"/>
<path transform="translate(1038,1419)" d="m0 0h10v1l-6 2h-15v-1l9-1z" fill="#714F33"/>
<path transform="translate(569,1329)" d="m0 0h1v15h-3v-9h1z" fill="#3C3E41"/>
<path transform="translate(242,1579)" d="m0 0h11l-3 3h-11z" fill="#926C45"/>
<path transform="translate(724,1477)" d="m0 0 4 1 1 6h-2l-1 3-3-8z" fill="#777E88"/>
<path transform="translate(237,1457)" d="m0 0h21v1l-14 1-7 1z" fill="#868E99"/>
<path transform="translate(915,1435)" d="m0 0h17v2l2 1-7 1-1-2-11-1z" fill="#837F7E"/>
<path transform="translate(845,1431)" d="m0 0h5l-2 2v3h-6l-2-2v-2z" fill="#896343"/>
<path transform="translate(798,1427)" d="m0 0h10l-1 2-5 1-4 4 1-5-3-1z" fill="#3A2B1C"/>
<path transform="translate(554,1291)" d="m0 0h6l-3 2h-2l-1 4-2-1v2l-3-1v-3z" fill="#8E96A2"/>
<path transform="translate(1e3 1276)" d="m0 0h3v6l-3 1-2 2v-8z" fill="#261C16"/>
<path transform="translate(804,1190)" d="m0 0h1v14l-3-1 1-12z" fill="#2B251F"/>
<path transform="translate(524,1579)" d="m0 0h8v3h-11z" fill="#936D46"/>
<path transform="translate(0,1498)" d="m0 0 8 1 3 1v2l-5 1-6-2z" fill="#8E7E72"/>
<path transform="translate(922,1447)" d="m0 0h8l-1 4h-7l-2-3z" fill="#89684C"/>
<path transform="translate(728,1360)" d="m0 0 2 1 1 6-8 1v-3l4-2z" fill="#222121"/>
<path transform="translate(270,1461)" d="m0 0h2l4 5 3 2-5 3v-5l-4-1z" fill="#414347"/>
<path transform="translate(710,1455)" d="m0 0h3l1 6-4 2-1 2h-2v-3h2z" fill="#93877D"/>
<path transform="translate(938,1440)" d="m0 0h10l2 1v2h-10z" fill="#8E857F"/>
<path transform="translate(779,1436)" d="m0 0 7 1v2l2-2 4 1-1 2-12-1z" fill="#8D633E"/>
<path transform="translate(966,1392)" d="m0 0h11l-4 2-5 1h-7l1-2z" fill="#777E89"/>
<path transform="translate(699,1389)" d="m0 0 4 1-2 1 2 5-6-1-1-3z" fill="#9E8772"/>
<path transform="translate(20,1295)" d="m0 0 1 4-2 2 1 7-4-1 1-8z" fill="#868E9A"/>
<path transform="translate(37,1505)" d="m0 0 11 1v2h-11z" fill="#91969E"/>
<path transform="translate(1088,1488)" d="m0 0h9l-1 3h-7l-4-2z" fill="#8D623E"/>
<path transform="translate(779,1484)" d="m0 0 11 2v1h-17l2-2z" fill="#936A44"/>
<path transform="translate(108,1458)" d="m0 0h18v1l-9 1-2 3h-2v-3l-5-1z" fill="#201C1C"/>
<path transform="translate(246,1454)" d="m0 0 9 1 3 2h-13z" fill="#292420"/>
<path transform="translate(940,1452)" d="m0 0h15l1 3h-8v-1l-8-1z" fill="#906943"/>
<path transform="translate(988,1376)" d="m0 0h9v1l-15 2-2-1-1 3-3-2 3-2z" fill="#BEC3CC"/>
<path transform="translate(1e3 1331)" d="m0 0 3 3-1 4-3 1v-2h-6v-1h6z" fill="#A8A6A9"/>
<path transform="translate(712,1480)" d="m0 0h12l-1 3-9-1z" fill="#3C2D1E"/>
<path transform="translate(694,1458)" d="m0 0 13 3v3l-6-1-7-3z" fill="#A98A6B"/>
<path transform="translate(1076,1451)" d="m0 0h8v3l-13-1v-1z" fill="#AB835D"/>
<path transform="translate(718,1450)" d="m0 0 4 2 5 5 1 2-6-2-4-3z" fill="#988A7E"/>
<path transform="translate(796,1443)" d="m0 0 8 1v2l-16-1v-1z" fill="#8F6F55"/>
<path transform="translate(757,1329)" d="m0 0h2v2l-2 1-2 6-4-8z" fill="#C1C5CA"/>
<path transform="translate(734,1328)" d="m0 0 6 1 1 4h-5l-2 1z" fill="#8E8C8D"/>
<path transform="translate(563,1580)" d="m0 0h7v2l3-1v2h-10z" fill="#906842"/>
<path transform="translate(404,1459)" d="m0 0 4 5 2 1v2l3 1-1 2h-2l-3-4-3-1z" fill="#45484C"/>
<path transform="translate(691,1451)" d="m0 0h2l3 3v2l2 1-5 1-2-1z" fill="#928478"/>
<path transform="translate(699,1439)" d="m0 0h5l4 1-1 3h-6z" fill="#BEBFC1"/>
<path transform="translate(803,1432)" d="m0 0h10l-3 3-4 1-3-2z" fill="#704F32"/>
<path transform="translate(813,1431)" d="m0 0h10v1h-7v3l-7 1z" fill="#9B8A7B"/>
<path transform="translate(1071,1390)" d="m0 0h1v5l-6 4-2-1z" fill="#8A929E"/>
<path transform="translate(718,1379)" d="m0 0h2v2h7l-3 2h-13v-1h7z" fill="#C0BFC0"/>
<path transform="translate(703,1366)" d="m0 0 6 1-2 4h-6z" fill="#9FA7B3"/>
<path transform="translate(971,1342)" d="m0 0 12 1v1l-7 2-6-1z" fill="#BAC3CF"/>
</svg>
