<?xml version="1.0" encoding="UTF-8"?>
<svg version="1.1" viewBox="0 0 720 1600" width="360" height="800" xmlns="http://www.w3.org/2000/svg">
<path transform="translate(0)" d="m0 0h720v1600h-720z" fill="#F9FBFD"/>
<path transform="translate(151,1144)" d="m0 0h185l9 4 4 5 2 6 1 104h6l4 3 2 5v17l-4 5-3 3h2v2l16 1 4 4 2 34v7h-2l-1-9-4 2-1 17v35h139v-2l-9-2 3-5h2l2 3 2-1-1-4h4v-2l-5 1-1 2-1-3-4-2 6-3 3-1v-2h2l1-2v2l7-3 5-1 7 2v-5l1-1h6v4l6-2-4-20-2-2 1-9h-7l-1-9 3-4 7 2 6 4v-4h2l4 5 8 7 3 2-4-6-12-14-5-6 2-9v-24l-12-14-3-4-1-10-5-13-8-4v-10l2-7 33-1-5-5-3-5 2-7 5-2 18-1 15 2 21 1v-2l3 1 2-10 3-6 7-3h3v2l2-1 11-1 3-1 14-1 44-1h20v428h-720v-455z" fill="#CABBAA"/>
<path transform="translate(343,238)" d="m0 0h29l23 2 24 5 16 5 24 9 19 10 15 9 16 12 13 11 10 9 7 8 12 14 14 21 12 22 8 19 7 20 5 23 2 14v51l-4 26-7 25-11 28-3 6-12 21-13 18-9 10-7 8-12 12-11 9-13 10-16 10-25 13-13 5-9 3-21 6-15 3-12 2h-52l-25-4-16-4-8-3-22-8-27-14-20-14-11-9-10-9-16-16-11-14-10-14-12-21-9-20-8-22-5-21-3-21v-51l4-25 7-25 10-25 12-23 14-20 9-11 9-10 5-6 8-7 14-12 17-12 21-12 19-9 27-9 18-4z" fill="#F8FAFC"/>
<path transform="translate(151,1144)" d="m0 0h185l9 4 4 5 1 2v299l-2 1-29 3h-14v2l-5 1v6l-2 2-2-4v-6l1-1-13-1h-284v-312z" fill="#010000"/>
<path transform="translate(344,324)" d="m0 0h31l12 2 15 3 17 6 21 11 12 8 13 11 12 12 10 13 9 15 8 16 6 19 3 15 1 8v30l-3 17-5 20-7 15-9 17-10 13-9 10-10 10-13 10-15 9-17 8-15 5-27 5h-29l-25-5-17-5-16-8-12-7-13-10-10-9-10-10-13-18-9-16-7-18-5-19-2-13v-31l4-23 5-16 7-16 12-20 12-14 14-14 18-13 18-10 16-6 16-4z" fill="#333"/>
<path transform="translate(700,1172)" d="m0 0h20v329h-125l-33-1-20-4-5-3-2-2-10-3-6-4v-5h4v-2h-2l-2-5-1-6 1-1-7-2-10-5-1-5 1-3 3-1-1-4-1-1v-5l5-5 3-1-7-11-3-1v-3h-15l-26 1-5 10-1 4h2v3l-7 1-3-3 5-1 1-5 8-14 5-2v-2h3v-2l16-8 24-9 4-1v-3l-9-2 3-5h2l2 3 2-1-1-4h4v-2l-5 1-1 2-1-3-4-2 6-3 3-1v-2h2l1-2v2l7-3 5-1 7 2v-5l1-1h6v4l6-2-4-20-2-2 1-9h-7l-1-9 3-4 7 2 6 4v-4h2l4 5 8 7 3 2-4-6-12-14-5-6 2-9v-24l-12-14-3-4-1-10-5-13-8-4v-10l2-7 33-1-5-5-3-5 2-7 5-2 18-1 15 2 21 1v-2l3 1 2-10 3-6 7-3h3v2l2-1 11-1 3-1 14-1z" fill="#9499A2"/>
<path transform="translate(456,1540)" d="m0 0h248l16 1v59h-720v-51l18 1 4-1 19-1 3 1h8l4-1h7l4-1h19l9-1 1-1 21-2h9l2 2-17 2v2l5 1 14-1 3-2 36-1 9-3v-1l16-1 54 2h28l1 1h5l5-1 9-1h118l2 2-1 3h3v-4l2-1 18-1z" fill="#AB8762"/>
<path transform="translate(268,396)" d="m0 0h24l19 3 15 4 14 5 15 8 5 2 15-9 19-7 11-3 18-3h27v132l-22 1-25 4-21 7-2 1h69l5-3 3-6 1-118 2-2 5 1 1 1v131l-4 6-4 2h-82l-2 4-5 5-5 2h-10l-8-4-5-6-83-1-7-8v-131l2-2h6l2 2 1 120 5 6 2 1h68l-15-6-17-4-15-2-22-1z" fill="#F2F4F7"/>
<path transform="translate(700,1172)" d="m0 0h20v160h-153l-9-11-9-10-2-4 1-1 1-7v-24l-12-14-3-4-1-10-5-13-8-4v-10l2-7 33-1-5-5-3-5 2-7 5-2 18-1 15 2 21 1v-2l3 1 2-10 3-6 7-3h3v2l2-1 11-1 3-1 14-1z" fill="#C1C1C1"/>
<path transform="translate(350,1159)" d="m0 0h1l1 104h6l4 3 2 6h-11v183l1 4h7l6-1v-2l6-2 2-4h2l1-10-5-14v-18l1-7h1l1 11 9 4 8 2v1h-6l3 3 9 4 19 3 3 2-1 6 3 3 6 3-2 5 2 3-10 1h-12l-1 3-2 1-18 2-2 1-1 3-9 4-5 4-4 2 10 6 3 1-1 3-9 2-1 1 5 3 4 10-4 5-1 8-4 3-13 6-16 1h-260l-10 1-4 1-5-2h-59v-64l187-1h97l14 1-1 2v6l2 2 1-6 5-1v-2l27-2 16-2h2z" fill="#B49E86"/>
<path transform="translate(512,1389)" d="m0 0 7 6 11 10 8 7 8 10 1 2 19 1 35 1h77l42-1v76h-125l-33-1-20-4-5-3-2-2-10-3-6-4v-5h4v-2h-2l-2-5-1-6 1-1-7-2-10-5-1-5 1-3 3-1-1-4-1-1v-5l5-5 3-1-7-11-3-1v-3h-15l-26 1-5 10-1 4h2v3l-7 1-3-3 5-1 1-5 8-14 5-2v-2h3v-2l16-8 24-9z" fill="#948373"/>
<path transform="translate(0,1561)" d="m0 0 2 3 5 12 5 7h93l79-1 23-1 185 1h151l135-1h30l1 1 6-10 4-11h1v39h-720z" fill="#3D2E1F"/>
<path transform="translate(348,1454)" d="m0 0h2l2 3-1 5-5 7-1 4-4 2-12 2-4 3-11 3-8 4-10 3-5 4h-2v2l-20 1-15 2-2 1v-2h-22l-23-1-53-1h-103l-51 1v-40l187-1h97l14 1-1 2v6l2 2 1-6 5-1v-2l27-2z" fill="#969CA5"/>
<path transform="translate(269,384)" d="m0 0h17l19 2 20 4 29 11h8l12-4 10-4 16-5 9-2 16-2h24l9 4 9 11 6 5 5 10 1 3v14l-1 40v43l-2 32-3 7-2 5-10 6-3 1-42 1-27 1-7 2-10 3v2l-7 2h-16l-17-8-4-1-16-1h-49l-9-2-8-6-5-9-2-14-1-37v-82l4-9 7-8 4-4h2v-2h2v-2l7-5zm-1 12v132l22 1 19 3 16 4 12 5h-68l-6-5-1-2-1-120-2-2h-6l-2 2v131l7 8 83 1 6 7 7 3h10l6-3 6-6v-2h82l5-3 3-5v-131l-2-2-5 1-1 1-1 118-4 7-4 2h-69l19-7 21-4 8-1 22-1v-132h-27l-21 4-17 5-12 5-13 8-5-2-15-8-16-6-17-4-15-2z" fill="#4E4C4D"/>
<path transform="translate(423,404)" d="m0 0h19v116l-21 2-13 2-20 5-16 7-7 4h-2v-114l10-7 13-6 21-6z" fill="#4D4B4B"/>
<path transform="translate(276,404)" d="m0 0h15l25 4 18 6 19 10 2 2v114l-5-2-16-7-10-4-18-4-14-2-16-1z" fill="#4D4B4C"/>
<path transform="translate(180,796)" d="m0 0h12l16 5 7 2 22 7 10 3 10 4 12 3 10 4 4 5 3 6v16l-5 20-13-2-18-4-41-13-31-10-21-7 1-9-10-5-4-4-10 1-14 2-49 11-43 10-26 6h-2v-8l26-6 12-3 20-4 42-10 22-5 17-6 12-4h7l9 4 4-1z" fill="#2D3033"/>
<path transform="translate(713,1548)" d="m0 0 7 2v11l-5 13-6 9-1-2-30 1-135 1h-151l-181-1v-1l122-1 17-1 8-1 4 1 20 1v-2l6 1h21l4-2-7-1h-17l1-2h21l4-2h29l2-1h4l5-1 1-2h2l1-2 1-3 24-1h58l25-1 5-1h32l30-3h15v-3l1-4h5l1 1h32l9-1 2-1z" fill="#97714D"/>
<path transform="translate(636,1542)" d="m0 0h10l9 1 41-1 24 1v7l-7-1-14 1-2 1-16 1h-25l-6-2v5l1 2-2 1h-15l-32 3h-31l-4 1-30 1h-77l1 4-5 1-1 3-6 2h-4-29v1l-6 1h-3l8 1-4 3-7 1h-19v-2h-3v2h-23l-2-1-7 1h-13l-4-2h-20l-3-1v2h-2v-2h-23l-3-1-1 2v-2l-3 1-1-2 9-1 16-1 2-2 17-1 11-2 8-1 10-1h17l4-1 2 1v-2h5l4 2 1-2 12-1h9l3 1 3-1-2-1-11-1-7-1-13 2-12-1-4-3 1-2h-8l-4-5v-2l2-1h64l64-2h27l13-1 5 2h20l3 1 10 1v-3l6-2h11l16 2 1 1 12-1 5-1 22-2z" fill="#A37C54"/>
<path transform="translate(456,1540)" d="m0 0h248l16 1v2h-34l-35 1-8-1h-7l-8 1-22 2-8 2h-6l-1-1-19-2h-10l-4 1v3h-12l-5-1h-16l-7-2-14 1h-25l-66 2h-24l-11-1h-77l-24 1-77 1-17-2h-6l-1 2-11 2-8 2h-9v2l-9 1-1 5-4 5h-10l-5-3h-10l-2 4-6 2h-10l-10-1-12 1-21 6h-10l-9 1-15-1-5 1-1 2-6-12-2-6v-12l18 1 4-1 19-1 3 1h8l4-1h7l4-1h19l9-1 1-1 21-2h9l2 2-17 2v2l5 1 14-1 3-2 36-1 9-3v-1l16-1 54 2h28l1 1h5l5-1 9-1h118l2 2-1 3h3v-4l2-1 18-1z" fill="#BD8E6A"/>
<path transform="translate(716,1361)" d="m0 0h4v50l-36 2-32 1h-53l-4 2h-9l-8-10-11-11-6-5-3-4v-2l-9-1-1-4 9-1 2 2 6 1 1-5 4-2 76-1 20-2 37-3-2-4z" fill="#DFE5EC"/>
<path transform="translate(700,1172)" d="m0 0h20v45h-138l-40-1-19-1-1 2v-4l33-1-5-5-3-5 2-7 5-2 18-1 15 2 21 1v-2l3 1 2-10 3-6 7-3h3v2l2-1 11-1 3-1 14-1z" fill="#8D7E70"/>
<path transform="translate(255,1457)" d="m0 0h11v2l6-1h23v17l-1 1h-23v-4l-3 2v2h-25v-3h-3l-1 3h-23l-1-3-2-1v4h-25v-3h-2v3l-31 1h-139l3-7-5 6h-14v-18h22l5 1 1-1h21l4 1 2-1h21l5 1 1-1h21l5 1 1-1h22v2l5-2h22l5 1 1-1h21l5 2v-2h54z" fill="#0C0B0B"/>
<path transform="translate(538,1318)" d="m0 0 7 2 3 3 3 4-5 1v2h-2l1 3 3 1v-5l2 1 1 3 3 1 2-2 3 2v10l3 31v5l3-1v2h-6l-3-2-7 1v3l9 1 7 9 8 7 9 9 4 5v2l9-1 4-2h53l52-2h16v14l-9 1-33 1h-77l-35-1-19-1-9-12-6-5v-2l-4-2-16-15v-2l-9-2 3-5h2l2 3 2-1-1-4h4v-2l-5 1-1 2-1-3-4-2 6-3 3-1v-2h2l1-2v2l7-3 5-1 7 2v-5l1-1h6v4l6-2-4-20-2-2 1-9h-7l-1-9z" fill="#B49E86"/>
<path transform="translate(0,1561)" d="m0 0 2 3 5 12 5 7h93l79-1 23-1 185 1h151l135-1h30l1 1 6-10 4-11h1v39h-40l3-2 13-5 7-5-14 1-12-2h-155l-17 1h-54l-15 1h-8l-1-1-133-1-53 1-3 1-3-2-1 2v-2h-8v2l-9 1-10 3-8-1h-2l-6 2-13 1h-2l-8 1h-25l-3-1v-2l-21-2-10 1h-60l-9 3-7 2 7 2v1h-40z" fill="#341F19"/>
<path transform="translate(562,1275)" d="m0 0 6 1 1 2 1-2h150v34l-48 1h-25l-63-1-9-1-1-14-2 1-8-7-4-5 1-3-1-3z" fill="#9499A1"/>
<path transform="translate(360,1504)" d="m0 0 2 3 1 5-5 4-6 2-8 1-37 1h-124l-183-1v-12l87-1h256l13-1z" fill="#856850"/>
<path transform="translate(635,1156)" d="m0 0h19l36 2 30 1v13l-20 1-44 1-14 1-3 1-13 1v-2l-7 3-3 1-3 8-1 7-2 1v-2h-2v2l-7 1-14-1-17-2-16 1-5 2-1 5h-1l-3-14v-9l4-11 5-4 5-1 39-3z" fill="#DFE5EC"/>
<path transform="translate(610,1236)" d="m0 0 52 1 10 1 19 2 10-2h8l9-1v2h2v23l-12 2-15 1-20 1-7 1h-33l-18-2-15-2-27-2-11-3-1-3 5-6 4-3h2l2-4 4-2 18-2 6-1z" fill="#C9C5BF"/>
<path transform="translate(692,1468)" d="m0 0h28v24h-180v-3l3-1v-9l3-3 1 1 3-3 37-3 51-2z" fill="#CEA287"/>
<path transform="translate(353,1272)" d="m0 0h11v16l-4 5-3 3h2v2l16 1 4 4 2 34v7h-2l-1-9-4 2-1 17-1 46h2v26l5 14v6l-2 4-7 6h-3v2l-8 2-5-1-2-4z" fill="#706E6D"/>
<path transform="translate(0,1446)" d="m0 0h348l2 1v7l-2 1-29 3h-14v2l-5 1v6l-2 2-2-4v-6l1-1-13-1h-284z" fill="#1D1D1E"/>
<path transform="translate(51,1495)" d="m0 0h103l53 1 45 2h2l15-2h75v4h-2v6h-223l-1-1h-66v2h-52v-10l12-1z" fill="#C8CBCE"/>
<path transform="translate(530,1452)" d="m0 0 7 6 7 7 7 2h15l12-1 61-2 59-1h22v5l-72 2h-17l-44 2-28 2-10 1-2 5-2-3-1 2-1 9 3 1h-6v3h180v9h-125l-33-1-20-4-5-3-2-2-10-3-6-4v-5h4v-2h-2l-2-5-1-6 7-6h9l-4-6z" fill="#9499A1"/>
<path transform="translate(294,1586)" d="m0 0 133 1 4 1h11l9-1h60l17-1h56v1l-17 1-5 2-6-1v2l-10-2h-21l-2 1h-17l-13 1-23 1-6-1-1 2-5-1-8 1h-3-8-3l-4-1v2l-5-1h-11l-9 1h-6l-1-2-9-1-3 2-3 1h-12l-16-1-9 1-5 1v-2l-11 1h-16l-1 1h-17l2-2-29 1-2 2-10-1-4 1h-14l-11 1-12-1-3 1-18 1h-35l-1 2h-121l-10-3 4-2 9-2 7-2h61l8-1 14 1 7 2v2h33l5-2v2l13-2 6-2h3l7 1 11-3h8v-2h11 2z" fill="#362B22"/>
<path transform="translate(516,1420)" d="m0 0 4 2 15 15 5 6 8 7h1v-2l4 2 5 4 102-4 60-2v15l-22 1-59 1-61 2-12 1h-15l-7-2-10-10-2-6-15-15-2-4z" fill="#785640"/>
<path transform="translate(566,1345)" d="m0 0 17 1 1 1h22l32 1 10 2 6 1 5-2v4h-5v2l-53 1-2 1h121v4l-16 3h-3l4 5-48 4-11 1-76 1-4 1z" fill="#949AA3"/>
<path transform="translate(343,238)" d="m0 0h29l23 2 24 5 16 5 24 9 19 10 15 9 16 12 13 11 10 9 7 8 12 14 14 21 12 22 8 19 7 20 5 23 2 14v51l-4 26-7 25-11 28-3 6-12 21-13 18-9 10-7 8-12 12-11 9-13 10-16 10-25 13-13 5-9 3-21 6-15 3-12 2h-52l-25-4-16-4-8-3-22-8-27-14-20-14-11-9-10-9-16-16-11-14-10-14-12-21-9-20-8-22-5-21-3-21v-51l4-25 7-25 10-25 12-23 14-20 9-11 9-10 5-6 8-7 14-12 17-12 21-12 19-9 27-9 18-4zm0 2-24 3-26 6-15 5-17 7-20 10-21 14-14 11-13 12-11 11-8 10-11 15-12 19-12 25-8 24-4 17-4 22v51l3 21 4 17 7 22 9 21 11 20 12 17 9 11 18 20 10 9 14 11 15 10 16 9 19 9 24 8 28 6 26 3h22l23-2 25-5 20-6 20-8 17-8 18-11 12-9 13-11 12-11 11-12 11-14 12-18 14-27 10-27 6-25 2-11 1-11v-46l-4-26-6-22-7-20-10-21-9-15-12-17-7-9h-2l-2-4-6-7h-2l-2-4-7-7-11-9-13-10-17-11-17-9-19-8-21-7-12-3-16-3-19-2z" fill="#3C3C3D"/>
<path transform="translate(575,1311)" d="m0 0h33l112 1v17h-148l-10-12-2-5 4 2 5 4 4 1 1-7z" fill="#9297A0"/>
<path transform="translate(177,801)" d="m0 0 9 1 37 12 8 2 12 4 32 7 1 4-5 5-6 11-3 6-4 13-6-1-1-3 5-13-3-2-14-3-36-11-7-3-21-7-10-1-3 1 3-9 3-6h3l2-4z" fill="#1B1B1C"/>
<path transform="translate(461,1515)" d="m0 0 20 1 9 2 3 1-1 3-13 1-2 1-34 1-9-1 10 3 12 1 64 1 2 3-9 2-2 5-56 1h-67l-10-1v-2l-4-3 1-3 4-3 2-2 41-1 1-1-35-1-1-3 9-3 21-1h34z" fill="#D7D1CB"/>
<path transform="translate(562,1275)" d="m0 0 6 1 1 2 1-2h150v13l-65 1h-74l54 2-1 3h-58v5h-1l-1-5-2 1-8-7-4-5 1-3-1-3z" fill="#949AA3"/>
<path transform="translate(350,1159)" d="m0 0h1l1 104h6l4 3 2 6h-11v183l2 7 5 24v2h3v4h-2l-1 3-13 2-1 9-3 1h-291l-1-3h69v1l222 1v-6h2v-4h-55v-2l9-6 10-3 8-4 9-2 4-3 12-2 4-1 1-5 5-7-1-5z" fill="#A2ACB5"/>
<path transform="translate(502,1437)" d="m0 0 3 1-1 1v5l2 2-1 4h-3v6l3 3 8 4 7 1-1 6 2 7h2v2h-4l2 6 9 4 6 2 3 3 6 2 18 3 42 1h98l17 1v7h-12l-13-1h-131l-4-1-1-2-11-2-24-3-5-2-4-3v-4h-10l-2-2 8-4-3-12-1-2-4-2-1-5-13-2-2-1-19-2-17-1-2-2v-3l11-1h11l8-2-11-1-2-1v-2l19-4 12-2z" fill="#B69F87"/>
<path transform="translate(487,1417)" d="m0 0h31l5 6 3 1v-4-2h7l2 2 3 1 2 6v5h-2l4 5 2 1-1-3 2-2 2 6-1 1 7 5h6l-1 2h17l110-4h35v5l-6 1-100 4-56 2-9-7 1 4-7-6-8-7-7-8-10-10-2-1v11l4 6 14 14-1 4-2-1 3 4v2l-9 1-4 3h-8l-11-6-1-5 1-3 3-1-1-4-1-1v-5l5-5 3-1-7-11-3-1v-3h-14z" fill="#785C48"/>
<path transform="translate(711,1178)" d="m0 0h9v16l-16 3-12 2-25 3-7 1h-30l-13 1v-13l3-10 2-2h40z" fill="#908F90"/>
<path transform="translate(554,1384)" d="m0 0h4l7 9 8 7 9 9 4 5v2l9-1 4-2h53l52-2h16v14l-9 1-33 1h-77l-35-1v-1l29-1-9-3-4-4-5-8-7-7-10-8-2-2-4-6z" fill="#A18A73"/>
<path transform="translate(574,1161)" d="m0 0h12v2l-30 2-1 2 12 1 44 3 10 2 1 4-6 2-3 8-1 7-2 1v-2h-2v2l-7 1-14-1-17-2-16 1-5 2-1 5h-1l-3-14v-9l4-11 5-4 5-1z" fill="#C8CCD0"/>
<path transform="translate(21,1480)" d="m0 0h150l-2 9-2 2-1-2-20 2-84 1h-15l-3 1h-35l2-5 5-7z" fill="#6E6B6A"/>
<path transform="translate(707,1568)" d="m0 0h6l2 1-1 7-5 7-1-2-30 1-135 1h-151l-181-1v-1l122-1 17-1 8-1 4 1 20 1v-2l6 1h18l8 2 7-1 75-2h57l4 1 8-1 5 1 4-1 4 2h46l-1-5h14l5 1 5-1h15l27-4 9-2z" fill="#78553F"/>
<path transform="translate(551,1320)" d="m0 0h2l4 5 8 7 3 2v-2h152v6h-65v4l-88 1-1 35-4 2-3-25-1-11v-10l-2-1-2 2-4-2-1-3-1 4-4-1v-3h2v-2l4-1-3-4 4 1z" fill="#8B7A6C"/>
<path transform="translate(49,1539)" d="m0 0 49 1 4 1h40l8-1h56l40 1 21-1 4-1v2h160v1l-13 1v4h-3l-1-4h-118l-13 1-1 1h-5l-1-1h-32l-50-2h-8l-7 1-3 2-7 2h-11l-25 1-3 2-16 1-4-4v-1l16-2h-13l-17 2-5 1-11 1h-13l-4 1h-8l-3 1h-8l-6-1-16 1-4 1-14-1-4-1v-8z" fill="#CEA287"/>
<path transform="translate(456,1540)" d="m0 0h248l16 1v2h-34l-35 1-8-1h-7l-8 1-22 2-8 2h-6l-1-1-19-2h-10l-4 1v3h-12l-5-1h-16l-7-2-14 1h-25l-66 2h-24l-11-1 3-2h21l9-2h4v3h3v-4l2-1 18-1z" fill="#AD8965"/>
<path transform="translate(344,324)" d="m0 0h31l12 2 15 3 17 6 21 11 12 8 13 11 12 12 10 13 9 15 8 16 4 13v2h-2l-1-4-3-1-5-13-10-19-10-13-1-3-3-1-3-4v-2h-2l-5-5-9-8-8-5v-2l-6-2v-2l-6-2-11-7-15-6-18-5-24-2h-23l-17 3-17 5-17 7-15 9-14 11-15 14-6 7-8 11-5 1 2-5 8-11 11-12 10-10 18-13 18-10 16-6 16-4z" fill="#2B2D2F"/>
<path transform="translate(296,1510)" d="m0 0h58v4l-3 1-61 1h-290v-4l91-1z" fill="#393029"/>
<path transform="translate(617,1177)" d="m0 0h2l-1 6-2 5-2 10v10l1 5-9-1-14-3v-2l-15-1-12-3-13-2-2-1v2l8 1 30 7 5 2 20 3 107 1v1h-138l-40-1-19-1-1 2v-4l33-1-5-5-3-5 2-7 5-2 18-1 15 2 21 1v-2l3 1 2-10 3-6z" fill="#90949B"/>
<path transform="translate(505,317)" d="m0 0 4 2 13 13 3 6v11l-6 9-8 5-3 1h-9l-7-4-12-13-2-1 1-4 15-14z" fill="#080707"/>
<path transform="translate(353,1272)" d="m0 0h11v16l-4 5-3 3h2v2l16 1 4 4 2 34v7h-2l-1-9-6 4h-18v20h-1z" fill="#2E3033"/>
<path transform="translate(524,1364)" d="m0 0 10 2v7l-2 7-1 1h15v2l-14 1v6l2 1v2h2l5 6 8 6 8 4 5 4 9 6v3l2 1-5 1h-22l-8-11-6-5v-2l-4-2-16-15v-2l-9-2 3-5h2l2 3 2-1-1-4h4v-2l-5 1-1 2-1-3-4-2 6-3 3-1v-2h2l1-2v2l7-3z" fill="#CABBAA"/>
<path transform="translate(51,1495)" d="m0 0h72l1 3-4 6-2 1h-66v2h-52v-10l12-1z" fill="#DEE3EA"/>
<path transform="translate(180,796)" d="m0 0h12l16 5 7 2 22 7 10 3 10 4 12 3 10 4 4 5 3 6v16l-5 20-13-2-11-2 5-17 8-14 4-5 4-4-18-4-26-8-15-5-38-11-2-2z" fill="#7E848D"/>
<path transform="translate(400,1506)" d="m0 0 18 2h11l5-2h10l14 1-1 4 9 2 9 1h19v2l7 1 2 2 1 6 1 2 6 1v1h-55l-12-1-8-2-6-1 4-2 16 1 27-1 2-1 13-1 1-2-12-2-20-1-14 1h-30l-21 1-9 2 1 3h-11l1-5 5-5 6-2h3l2-4z" fill="#C9C4BE"/>
<path transform="translate(356,1352)" d="m0 0 4 1 7 5v2h2l2 9h1v14h-2l1 9v19l-1 11-7 13v7h-8v-89z" fill="#7E848D"/>
<path transform="translate(577,1289)" d="m0 0h143v11l-15 1h-28l-2-1v-2l-8 1h-52l-39-2v-2h58v-2l-53-2z" fill="#81868D"/>
<path transform="translate(700,1172)" d="m0 0h20v6l-9 1-49 1h-40l-3 7-1 4v13l3 9h99v3h-107l-20-3-13-4-30-7v-2l21 3 6 2 15 2v2l10 1 12 2-1-4v-10l3-12 4-9 3-2h3v2l2-1 11-1 3-1 14-1z" fill="#363739"/>
<path transform="translate(719,1561)" d="m0 0h1v39h-40l3-2 13-5 7-5-14 1-12-2-103-1 2-1v-2h-33v-1l135-1h30l1 1 6-10z" fill="#35211B"/>
<path transform="translate(343,238)" d="m0 0h29l23 2 24 5 16 5 24 9 19 10 15 9 16 12 13 11 10 9 7 8 12 14 14 21 12 22 8 19 5 15v5l-2-2-9-26-10-21-9-15-12-17-6-7v-2h-2l-8-10-5-5-13-12-17-13-17-11-17-9-19-8-21-7-12-3-16-3-19-2h-33l-24 3-26 6-15 5-17 7-20 10-21 14-14 11-13 12-10 10-8 10-11 15-12 19-12 25-6 16-1-4 8-21 13-25 14-20 9-11 9-10 5-6 8-7 14-12 17-12 21-12 19-9 27-9 18-4z" fill="#47474A"/>
<path transform="translate(137,806)" d="m0 0h3l1 10-7 2-14 2-49 11-43 10-26 6h-2v-8l26-6 12-3 20-4 42-10 22-5z" fill="#222224"/>
<path transform="translate(505,439)" d="m0 0 3 1 1 9h2l2 6 1 8v30l-3 17-5 20-7 15-9 17-10 13-9 10-10 10-13 10-15 9-8 4h-3v-2l7-4h2l2-4 10-7h3v-2h2v-2h2v-2l5-2v-2h2l2-4 15-14 8-10 8-14 2-6 4-8 5-13 6-21 1-14 1-5v-14l-2-15z" fill="#2B2D30"/>
<path transform="translate(126,1497)" d="m0 0h80l21 1 4 1h12l2 1v2h3v2h4l1-3 1 4-1 1h-134l6-7z" fill="#E1E7EE"/>
<path transform="translate(716,1361)" d="m0 0h4v15l-11-3-12 3-48 4-25 1h-26l-19-1-13-2 1-3 3-1 76-1 20-2 37-3-2-4z" fill="#C8CBCF"/>
<path transform="translate(353,1462)" d="m0 0h2l5 24v2h3v4h-2l-1 3-13 2-1 9-3 1h-291l-1-3h69v1l222 1v-6h2v-4h-24l6-7 9-7 9-6 5-2 1-5 1-3h2z" fill="#A9ABAE"/>
<path transform="translate(368,1583)" d="m0 0h208v2l-2 1-52 1-17 1h-54l-15 1h-8l-1-1-131-1 3-2 9-1h32z" fill="#341D18"/>
<path transform="translate(698,1427)" d="m0 0h22v9l-31 2-31 1h-20v-3l1-2h-5l2 4h-12l-1-5 1-1-3-1-1 3-6-2v2l3 1-5 1-1-3h2l-1-5h37z" fill="#72635A"/>
<path transform="translate(114,1590)" d="m0 0h9l13 2 4 1v2h31l2 2-11 1-1 2h-121l-10-3 4-2 9-2 7-2h61z" fill="#362C23"/>
<path transform="translate(229,399)" d="m0 0 1 3-2 6-7 15-6 19-3 15-1 13v17l2 18 4 20 9 20 7 13 1 4 3 1 4 6 7 9 10 10 2 1v2h2v2h2v2l6 2v2l5 2 3 2v2l4 1 3 1v2h3v2l2 1-1 2-6-2-15-10-13-11-13-13-13-18-9-16-7-18-5-19-2-13v-31l4-23 5-16 7-16 4-7z" fill="#303234"/>
<path transform="translate(165,378)" d="m0 0h10l21 3 11 1 1 2-4 7-9 1-6 12v4l4 3-1 5-2 4-4-2-8-9-18-18 3-9z" fill="#0A0909"/>
<path transform="translate(711,1178)" d="m0 0h9v9h-7l-3-1h-21l-17 2-5 1h-11l-7 2-3 2h-12l-15 2-1 9h-1v-13l3-10 2-2h40z" fill="#908172"/>
<path transform="translate(568,1483)" d="m0 0h22l22 1 2 3h106v5h-180v-3l8-1 25-1-20-1v-1z" fill="#8C939B"/>
<path transform="translate(518,1421)" d="m0 0 7 6 10 10 5 6 8 7h1v-2l4 2 5 4 102-4 60-2v3l-55 2-1 1-14 1-32 1h49v1l-7 1-75 4-14 1h-13v-3l8-1 44-1v-2l-29 2h-23l-5-3-1 3-9-9-8-7-11-11-6-8z" fill="#14100E"/>
<path transform="translate(19,1469)" d="m0 0 1 2-3 5 18 1v1l18 1v1l-32 1-5 1-7 11 35-1 3-1h32l70-1 13-2 5 1 1 4-12 1-90 1-15 1-51 1v-21l14-1z" fill="#969DA6"/>
<path transform="translate(662,1322)" d="m0 0h58v7h-139l-7-1 1-4 3-1h81z" fill="#81858D"/>
<path transform="translate(334,262)" d="m0 0h10l8 4 3 5v2l-9 1-4-4h-7l-4 2 1 6 17 1 5 3 3 4v9l-3 5-6 3-4 1h-12l-6-3-4-6v-3l2-1h7l3 5h10l3-2v-5l-2-1-18-2-6-6v-9l5-6z" fill="#0A0A0A"/>
<path transform="translate(541,1492)" d="m0 0h179v5h-155l-23-3z" fill="#67503D"/>
<path transform="translate(360,1504)" d="m0 0v3l-3 1-16 1h-36l-152 1h-153v-3l87-1h256l13-1z" fill="#281C1A"/>
<path transform="translate(568,1332)" d="m0 0h152v5l-72 1h-70l-11-1z" fill="#37221B"/>
<path transform="translate(448,280)" d="m0 0 5 2 3 1-1 5-10 18v9l5 3h6l4-4 11-20 4-1 5 3-2 5-11 21-5 4-2 1h-9l-7-3-8-7-2-4 1-9 12-23z" fill="#090808"/>
<path transform="translate(590,412)" d="m0 0 2 2 5 23 2 14v51l-4 26-7 25-11 28-3 6-12 21-13 18-9 10-7 8-12 12-11 9-13 10-16 10-25 13-13 5-9 3-21 6-15 3-6 1h-15v-1l28-4 20-5 24-8 24-11 17-10 15-11 13-11 12-11 10-11 11-14 12-18 14-27 10-27 6-25 2-11 1-11v-46l-4-26-3-11z" fill="#2B2A2B"/>
<path transform="translate(269,1539)" d="m0 0h2v2h160v1l-13 1v4h-3l-1-4h-118l-13 1-1 1h-5l-1-1h-32l-50-2h-8l-7 1-3 2-7 2h-11l-25 1-3 2-16 1-4-4v-1l16-2 1-2 15-1 8-1h56l40 1 21-1z" fill="#CBA287"/>
<path transform="translate(697,1451)" d="m0 0h23v7l-66 3-72 4h-37v-2h11l29-2 75-4h-48v-1l6-1 32-1 14-1 1-1z" fill="#AC8261"/>
<path transform="translate(713,1413)" d="m0 0h7v8l-39 1h-72l-9-1v-2l-3-1v-2l70-1 30-1z" fill="#C8CBCF"/>
<path transform="translate(511,1395)" d="m0 0 3 1 1 10 2 3 17 3 2 4h-30l-39-1-2-2 11-7 14-6 10-3z" fill="#C9BAA9"/>
<path transform="translate(336,1455)" d="m0 0h12l-2 2-16 3h-4l-1 3-7 2-16 1v2h-2v8l-5-1v-17l-29 1v-2l-27 2h-27l-22-1v2l-5-1h-21l-5 1-1-1h-22l-5 1v-2l-22 1-4 1-2-1h-21l-5 1-1-1h-21l-5 1-1-1h-21l-5 1-1-1-22-1v-1l187-1h97l14 1-1 2v6l2 2 1-6 5-1v-2l27-2z" fill="#706D6C"/>
<path transform="translate(707,1568)" d="m0 0h6l2 1-1 7-5 7-1-2-30 1h-56l2-4-1-3h14l5 1 5-1h15l27-4 9-2z" fill="#78553F"/>
<path transform="translate(514,1418)" d="m0 0 4 2h-2v11l4 6 14 14-1 4-2-1 3 4v2l-9 1-4 3h-8l-11-6-1-5 1-3 3-1-1-4-1-1v-5l5-5 4-1 1-4-5-9z" fill="#8D7D6D"/>
<path transform="translate(571,1276)" d="m0 0h149v5h-144l-5-1z" fill="#302C2A"/>
<path transform="translate(305,1508)" d="m0 0h52l1 5-3 2-4-1h3v-4l-15 1h-43l-205 1h-91v-2l71-1h85z" fill="#76543F"/>
<path transform="translate(711,1425)" d="m0 0h9v2l-14 1-62 1-32-1 1 5h-2l1 2 2-1v-2h5l1 1 1-2 4 1-2 1 1 5-67-1v-2l39-1-42-1-5-7h129zm-106 4 1 3 3 1 1-4z" fill="#35221C"/>
<path transform="translate(576,1281)" d="m0 0h144v5l-93 1-48-1 1-3-4-1z" fill="#7B7E85"/>
<path transform="translate(698,1463)" d="m0 0h22v4l-114 2-48 2-15 1-1 11-6-1-1 3-8-1-3-4 4-2-5-2-1-3h7l4-1h7l-1-6 3 2v2l36-3v-1l61-2z" fill="#69564B"/>
<path transform="translate(560,1312)" d="m0 0 4 2 5 4 4 1 2-2 14 1 131 1v3l-58 1-3 1h-81l-3 1-1 3h7v1h-9l-10-12z" fill="#A0AAB4"/>
<path transform="translate(545,1496)" d="m0 0h102l73 1v4h-125l-33-1-17-3z" fill="#AC8863"/>
<path transform="translate(549,369)" d="m0 0 3 1 2 5-1 5-9 11-2 3h21l4 8v1l-34 1-6 3h-3l-3-6 1-3 11-6 8-12z" fill="#0D0C0C"/>
<path transform="translate(135,1512)" d="m0 0h171l23 1v1l-68 1h-128l-119-1v-1z" fill="#010000"/>
<path transform="translate(548,1183)" d="m0 0 28 1 10 1 22 1 3 1 1 7-2 1v-2h-2v2l-7 1-14-1-17-2-16 1-5 2-1 5h-1l-2-7v-9h3z" fill="#C2C2C2"/>
<path transform="translate(74,1578)" d="m0 0h17l29 1 58 1 22 1v1l-18 1-94 1h-75v-1l14-2h12l8-2h24z" fill="#926D4B"/>
<path transform="translate(185,1583)" d="m0 0h183v1l-30 1h-30l-9 1-132 1-42-1h-11l-1-2z" fill="#0C0B0C"/>
<path transform="translate(696,1458)" d="m0 0h24v5l-22 1-59 1-61 2-12 1h-15l-2-2 33-2 90-5z" fill="#0E0B0A"/>
<path transform="translate(538,1318)" d="m0 0 7 2 3 3 3 4-5 1v2h-2l1 3 3 1v-5l2 1 1 3 3 1 2-2 3 2v10l1 11v16h-1l-2-8-4 1-1 4h-2v-4l-3-1 1-1-4-20-2-2 1-9h-7l-1-9z" fill="#C3C7CA"/>
<path transform="translate(635,1156)" d="m0 0h19l23 2v2l-7 1v2l-2 1-16 1-1 1h-29l-14-1-9-3v-2l13-2z" fill="#C9CDD1"/>
<path transform="translate(54,1496)" d="m0 0h70l-2 5-2 3h-66l-4-3 2-4z" fill="#E0E6EC"/>
<path transform="translate(384,263)" d="m0 0 14 2 21 4-1 7-10-1-4-1-1 11-4 21-9-1 1-11 3-15 1-8h-9l-3-1z" fill="#090808"/>
<path transform="translate(655,1338)" d="m0 0h65v8h-18l-21-1-13-1h-42l-59-1v-1h88z" fill="#878D96"/>
<path transform="translate(344,1518)" d="m0 0m-344 1h344v1l-6 1h-260l-10 1-4 1-5-2h-59z" fill="#B59F87"/>
<path transform="translate(360,1481)" d="m0 0 9 1-2 3 5 3 4 10-4 5-1 8-4 3-13 6h-10l1-2 10-2 6-3 1-2-2-6-4 1h-10l-1-6 1-4 14-2 1-2h2l-3-7z" fill="#B49F87"/>
<path transform="translate(196,334)" d="m0 0 4 2 8 8 8 7 4 4 4-2 7-7 2-3 4 2 2 4-13 13-5 6-4-2-14-14-8-7-4-5z" fill="#0A0909"/>
<path transform="translate(239,298)" d="m0 0h3l11 18 4 6v2l7-3 8-5 4 1 1 5-17 11-6 3-10-16-11-17 4-4z" fill="#090808"/>
<path transform="translate(0,1517)" d="m0 0h199l64 2v1h-80l-183-1z" fill="#997E63"/>
<path transform="translate(719,1561)" d="m0 0h1v39h-40l3-2 13-5 9-7 7-8 5-11z"/>
<path transform="translate(591,1408)" d="m0 0 7 1h63l31-1h28v3l-36 2-32 1h-53l-4 2h-9l2-6h3z" fill="#BFC0C2"/>
<path transform="translate(294,1496)" d="m0 0h50v4h-2v6h-48l-2-2 1-4z" fill="#C9CDD1"/>
<path transform="translate(0,1561)" d="m0 0 2 3 5 12 7 9 8 7 11 5 7 2v1h-40z"/>
<path transform="translate(508,1199)" d="m0 0h21l14 1 5 2 3 5 1 3 7 2v1h-29l-10-1-13-10z" fill="#CACED2"/>
<path transform="translate(536,1360)" d="m0 0h6v4h8v4h2l1-5 4-1 4 4 1 14 3-1v2h-6l-3-2-7 1-2 2h-17l3-9 2-12z" fill="#979CA5"/>
<path transform="translate(681)" d="m0 0h39v39l-2-3-5-12-7-10-10-7-12-5z"/>
<path transform="translate(368,1583)" d="m0 0h208v2l-191 1h-41l-4-2z" fill="#1F1B1B"/>
<path transform="translate(0)" d="m0 0h39l-3 2-10 4-11 7-8 11-4 9-2 6h-1z"/>
<path transform="translate(180,796)" d="m0 0h12l16 5 7 2 22 7 10 3 10 4 12 3 10 4 4 5 1 5-3-1v-2h-5l2-4-18-4-26-8-15-5-38-11-2-2z" fill="#7C8189"/>
<path transform="translate(308,1447)" d="m0 0h20l16 2 2 4 4 1-2 1-29 3h-14v2l-5 1v6l-2 2-2-4v-6l1-1-13-1v-1l17-1v-6z" fill="#2B2E31"/>
<path transform="translate(550,1200)" d="m0 0 21 3 6 2 15 2v2l10 1 12 3 2 1 1-7 2 1 2 5h99v3h-107l-20-3-13-4-30-7z" fill="#323132"/>
<path transform="translate(617,1177)" d="m0 0h2l-1 6-2 5-2 10h-2l-1 4-4-1v2h-10l-24-4h-25l1-4 5-2 18-1 15 2 21 1v-2l3 1 2-10 3-6z" fill="#94989F"/>
<path transform="translate(389,1472)" d="m0 0h57l8 1 3 5-13 3-4 1h-12l-26-3-14-4-1-2z" fill="#C9C5BF"/>
<path transform="translate(507,328)" d="m0 0 7 6 3 5v6l-7 8-3 2h-9l-6-5-2-3 1-4z" fill="#F3F5F7"/>
<path transform="translate(350,1159)" d="m0 0h1l1 104h6l4 3 2 6h-11v23l-1 99h-1l-1-35z" fill="#BFC3C8"/>
<path transform="translate(602,1347)" d="m0 0 36 1 10 2 6 1 5-2v4h-5v2h-74l2-3h15l5-1-20-1-2-2z" fill="#A0AAB4"/>
<path transform="translate(714,1444)" d="m0 0h6v2l-41 2-3 1-29 1-39 2-28 1h-22l-1-3 6-1 129-4z" fill="#1F1B1A"/>
<path transform="translate(532,1384)" d="m0 0h3l2 7 1 3h3v2l5 2 7 4 20 6 3 2v2h2l2 7 8 4 6 1v1h-47v-1l21-1 3-1v-3l-5-2-9-7-9-5-10-8-2-4h-2v-2l-3-1z" fill="#CEA287"/>
<path transform="translate(525,1231)" d="m0 0 12 1 5 5 3-2 1 2 2 27v8l-7-6-7-9-1-10-5-13z" fill="#C8CCD0"/>
<path transform="translate(524,1364)" d="m0 0 10 2v7l-2 7-1 1h15v2l-27 1-7 1v2l-9-2 3-5h2l2 3 2-1-1-4h4v-2l-5 1-1 2-1-3-4-2 6-3 3-1v-2h2l1-2v2l7-3z" fill="#C6C9CC"/>
<path transform="translate(160,1488)" d="m0 0h6l2 5-12 1-94 1-54-1 1-2h35l3-1h32l70-1z" fill="#7F848D"/>
<path transform="translate(487,1417)" d="m0 0h31l5 6 3 1v-4-2h7l2 2 3 1 2 6v5h-2l4 5 2 1-1-3 2-2 2 6h-2l5 8v3l-1 2-7-7-7-6-7-8-10-10v-2l-9 1 5 9-2 4-4-5-5-7h-2v-3h-14z" fill="#A18F7D"/>
<path transform="translate(712,1440)" d="m0 0h8v3l-145 5h-17l-1-2 2-1 39-2 60-1z" fill="#1B1613"/>
<path transform="translate(589,1329)" d="m0 0h131v3h-150v-1h19z" fill="#AAAAAB"/>
<path transform="translate(213,1472)" d="m0 0 3 1v3l23-1 1-2h3v3h15v1h-9v2l-16 2-52 1-10-4-16-1v-1h31v-3h2v3h25z" fill="#7D828B"/>
<path transform="translate(318,1142)" d="m0 0h22l5 2 1 5-10-4h-336v-1l131-1z" fill="#979DA4"/>
<path transform="translate(568,1483)" d="m0 0h22l22 1 2 3h106v2h-172v-1l25-1-20-1v-1z" fill="#9E8168"/>
<path transform="translate(348,1454)" d="m0 0h2l1 3-5 5-10 6-17 5-9 1h-10v-6h2v-2l16-2 7-2 1-2 22-4z" fill="#7E848C"/>
<path transform="translate(709,1436)" d="m0 0h11v2l-10 1-70 3h-59l-6 1h-17v-3l20-1 80-1z" fill="#281F1B"/>
<path transform="translate(554,1198)" d="m0 0h19l24 4 10 1v-2l4 1 2-4 2 15-9-1-14-3v-2l-15-1-12-3-13-2-2-1-1 2-1-3z" fill="#7E838B"/>
<path transform="translate(451,257)" d="m0 0 5 1 17 8 17 10 18 13 14 12 10 9 7 8 12 14 14 21 12 22 8 19 5 15v5l-2-2-9-26-10-21-9-15-12-17-6-7v-2h-2l-8-10-5-5-13-12-17-13-17-11-17-9-12-6z" fill="#2F2E2F"/>
<path transform="translate(590,412)" d="m0 0 2 2 5 23 2 14v51l-4 26-7 25-11 28-3 6-3 5h-2l2-6 8-17 9-26 5-21 2-11 1-11v-46l-4-26-3-11z" fill="#383839"/>
<path transform="translate(456,1540)" d="m0 0h107v2h-22l-12 1-19-1-5 1h-23l-8 1-2 1-5-1h-15l-9 1-11 1h-11l-3 1v-4l2-1 18-1z" fill="#BE8E6A"/>
<path transform="translate(544,443)" d="m0 0 2 1v2h-2v3l5 2 4 5v3h3l7 6-1 3h-2v2l5-2 7 6-1 4 4-3h2l-1 4-3 3h-2v2l-4-1-7-8-7-6-7-8-9-8 1-4z" fill="#0C0B0B"/>
<path transform="translate(373,1403)" d="m0 0h1v23l5 14v6l-2 4-7 6h-3v2l-8 2-5-1-1-4 1-9 16-2 4-2-2-6v-31z" fill="#938372"/>
<path transform="translate(269,1539)" d="m0 0h2v2h160v1l-13 1v4h-3l-1-4h-118l-13 1-1 1h-5l-1-1h-32l-50-2v-2l52 1 21-1z" fill="#CEA288"/>
<path transform="translate(704,1411)" d="m0 0h16v2l-23 2-30 1h-70v2h6l-3 1v2h9v1h-10l-9-2-3-4 8-1 4-2h53z" fill="#959DA6"/>
<path transform="translate(577,1289)" d="m0 0h143l-1 4-117-1-21-1z" fill="#7E838B"/>
<path transform="translate(698,1427)" d="m0 0h22v5l-23 1h-20v-2l-12 3-7-1v2h-2v-2h-9-3l-4 1 1-3 8-1v-2z" fill="#BBB4AE"/>
<path transform="translate(426,470)" d="m0 0h10v5l-26 4-25 8-7 4h-3l-2-5 17-8 17-5z" fill="#ECEEF1"/>
<path transform="translate(282,494)" d="m0 0h8l18 3 16 4 13 5 8 4-1 4-4 1-10-5-15-5-21-4-12-2z" fill="#EBEDF0"/>
<path transform="translate(282,445)" d="m0 0h7l16 3 21 5 16 7 3 2-2 5-5-2-21-8-27-5-7-1-1-1z" fill="#EAEDF0"/>
<path transform="translate(432,445)" d="m0 0h4v6l-30 5-17 5-10 5-4 1-1-5 8-5 18-6 23-5z" fill="#ECEEF1"/>
<path transform="translate(266,257)" d="m0 0 3 1-16 8-17 9-16 11-14 11-13 12-10 10-8 10-11 15-12 19-12 25-6 16-1-4 8-21 13-25 14-20 9-11 9-10 5-6 8-7 14-12 17-12 21-12z" fill="#2D2C2C"/>
<path transform="translate(282,421)" d="m0 0h7l27 5 20 7 9 5-2 4-5-1-15-6-19-5-22-4z" fill="#ECEFF1"/>
<path transform="translate(428,494)" d="m0 0h8v5l-24 4-22 6-12 6-4-1v-4l14-7 18-5z" fill="#EEF0F3"/>
<path transform="translate(282,470)" d="m0 0h9l15 2 21 6 16 7 2 1-1 4-3 1-16-7-23-6-19-3z" fill="#EEF0F3"/>
<path transform="translate(562,1275)" d="m0 0h2l7 14h2l3-4v2l3 1-1 1 3 1 54 2-1 3h-58v5h-1l-1-5-2 1-8-7-4-5 1-3-1-3z" fill="#959BA4"/>
<path transform="translate(503,530)" d="m0 0 1 4-10 21-7 11-11 14-15 15-13 10-15 9-8 4h-3v-2l18-10h3l1-3 8-6 9-7 14-14 11-16 11-19 5-10z" fill="#202021"/>
<path transform="translate(431,421)" d="m0 0h5v5l-16 3-20 4-10 4-12 5-4-1 1-4 12-6 20-6z" fill="#EDF0F2"/>
<path transform="translate(656,1467)" d="m0 0h64v1l-72 2h-17l-44 2-28 2-11 1v-4l10-1 48-2z" fill="#AE835E"/>
<path transform="translate(697,1451)" d="m0 0h23v4l-35 2h-73v-1l6-1 32-1 14-1 1-1z" fill="#5F5853"/>
<path transform="translate(614,1235)" d="m0 0h106v4h-2v-2l-10 2h-7l-10 2-13-1-16-2-48-1z" fill="#C2C2C2"/>
<path transform="translate(370,1383)" d="m0 0h2v17h2l-1 5v36l2 1-5 3-6 1h-10v9h-2l1-17h1v5l8-1v-8l7-12 1-12z" fill="#6F6B6A"/>
<path transform="translate(567,1321)" d="m0 0 5 1 18-1h130v1l-58 1-3 1h-81l-3 1-1 3h7v1h-9l-5-6z" fill="#959BA4"/>
<path transform="translate(222,545)" d="m0 0h2l6 11 4 6 3 1 4 6 7 9 10 10 2 1v2h2v2h2v2l6 2v2l5 2 3 2v2l4 1 3 1v2h3v2l2 1-1 2-6-2-15-10-13-11-13-13-13-18-7-13z" fill="#2B2D30"/>
<path transform="translate(177,798)" d="m0 0 8 1 41 12 27 9 23 6 2 1-1 3-2-1v-2l-9-1-23-5-14-5-12-3-31-10-9-1-5 4-1 2h-3v-2l8-7z" fill="#4B4949"/>
<path transform="translate(552,1324)" d="m0 0 6 5 9 11-1 38-4 2-3-25-1-11v-10l-6-7z" fill="#32211D"/>
<path transform="translate(357,1578)" d="m0 0 5 1 20 1v-2l6 1h18l3 3h-198v-1l122-1 17-1z" fill="#8C6748"/>
<path transform="translate(517,1442)" d="m0 0 6 1 10 14 1 3h-8l-6-7 1 6-8-1-7-3-1-4 1-1h7v-2h-5l-1-2 10-1z" fill="#333131"/>
<path transform="translate(0,1512)" d="m0 0h135l-2 3h-133z" fill="#201C1B"/>
<path transform="translate(551,1233)" d="m0 0h169v2l-88 1-80-1z" fill="#99A1AA"/>
<path transform="translate(177,801)" d="m0 0 9 1 37 12 8 2 12 4 32 7 1 4-3 1v-3l-13-1-28-8-30-10-7-2-15-2-5 1-4-1z" fill="#2F3032"/>
<path transform="translate(234,629)" d="m0 0 7 1 4 5v6l-4 6-9 1-5-5-1-6 4-6z" fill="#F0F2F5"/>
<path transform="translate(635,1292)" d="m0 0h85v3l-40 1h-24l-22-1z" fill="#908F90"/>
<path transform="translate(87,1506)" d="m0 0h29v1l-28 1-1 1-16 1h-71v-3z" fill="#483F3A"/>
<path transform="translate(148,802)" d="m0 0 11 3 3 5-1 4-5 5h-6l-5-2-4-1-2-11z" fill="#37393B"/>
<path transform="translate(667,1295)" d="m0 0h53v5l-15 1h-28l-2-1v-2l-7 1-9-1v-2z" fill="#7E848D"/>
<path transform="translate(360,1504)" d="m0 0v3l-3 1-16 1h-120l-6-1v-1l128-1 13-1z" fill="#36312D"/>
<path transform="translate(352,1295)" d="m0 0h1v152l-3 3v-91h1z" fill="#979EA6"/>
<path transform="translate(506,1200)" d="m0 0 7 6 7 5 10 1v1l-8 1-1 6-4 5-4-1-9-9v-11z" fill="#E0E6ED"/>
<path transform="translate(700,1172)" d="m0 0h20v3h-31l-10 2h-51v-1l11-1 3-1 14-1z" fill="#6E6E70"/>
<path transform="translate(175,449)" d="m0 0 4 2 1 4-22 22-6-3 1-4 16-16z" fill="#0C0B0B"/>
<path transform="translate(698,1463)" d="m0 0h22v3l-87 1h-41v-1l47-2z" fill="#9CA1A6"/>
<path transform="translate(0,1457)" d="m0 0h187l3 1v2l-5-1h-21l-5 1-1-1h-22l-5 1v-2l-22 1-4 1-2-1h-21l-5 1-1-1h-21l-5 1-1-1h-21l-5 1-1-1-22-1z" fill="#868C94"/>
<path transform="translate(39,1597)" d="m0 0h75l8 1 19 1v1h-101z" fill="#3E2E1F"/>
<path transform="translate(710,1438)" d="m0 0h10v2l-8 1-54 2-76 1-7-1v-1l6-1h59z" fill="#716156"/>
<path transform="translate(542,1471)" d="m0 0 6 1-1 8-2-3-1 2-1 9 3 1h-6l2 4 16 2 1 2-17-1-5-3-2-2-10-3-6-4v-5h6l2 5 8 1 1-4 6 2z" fill="#908275"/>
<path transform="translate(74,1578)" d="m0 0h11l4 2-3 2 2 2h-75v-1l14-2h12l8-2h24z" fill="#78553F"/>
<path transform="translate(6,1545)" d="m0 0h57l18 1 1 2h-15l-4 1h-8l-3 1h-8l-6-1-16 1-4 1-14-1-4-2z" fill="#B59F87"/>
<path transform="translate(571,1336)" d="m0 0 9 1h140v1h-65l-1 3h-41v-1l-39-1v2h-5v-3l-2-1z" fill="#846751"/>
<path transform="translate(134,807)" d="m0 0 4 1-2 4-17 5-31 7-9 1 1-4 20-5 22-5z" fill="#333538"/>
<path transform="translate(427,659)" d="m0 0h8l5 5v8l-6 5-5 1-5-10-1-7z" fill="#F2F4F7"/>
<path transform="translate(355,1469)" d="m0 0 2 3 3 16h3v4h-2l-1 3-4 1h-11l-2-1 1-4 2-3h2l2-6 5-8z" fill="#C9CDD0"/>
<path transform="translate(512,1389)" d="m0 0 7 6 11 10 8 7 4 5h-3l-1-3h-2v-2l-14-1-6-2-2-5z" fill="#85776B"/>
<path transform="translate(229,399)" d="m0 0 1 3-2 6-7 15-6 19-1 5-3 3-2 5h-1l1-9 4-17 9-21 4-7z" fill="#2C2D2F"/>
<path transform="translate(685,1443)" d="m0 0h35v1l-6 1-81 3h-27l1-2z" fill="#B6B9BD"/>
<path transform="translate(51,1495)" d="m0 0h72v1l-69 1-3 2 1 3 2 1 64 1v1h-65l-5-3-3-4-33-1v-1z" fill="#C1C4C6"/>
<path transform="translate(132,402)" d="m0 0 2 4-5 17-5 28v57l-2 3-1-8v-51l4-25z" fill="#444446"/>
<path transform="translate(536,1360)" d="m0 0h6l2 5v5l-5 1 5 1v6h2v2h2l-1 2h-17l3-9 2-12z" fill="#848A93"/>
<path transform="translate(354,1299)" d="m0 0h21l4 4-2 6h-1l-1 11-3-4-1-11-9 2-6 3-2-1z" fill="#1C1C1D"/>
<path transform="translate(498,614)" d="m0 0 4 1 2 2v3l4 1 2 2v5l-5 5-4-1-8-7-2-5z" fill="#343334"/>
<path transform="translate(703,1421)" d="m0 0h17v4l-9 1-33 1h-77v-1l64-1 17-1h15v-2z" fill="#916D50"/>
<path transform="translate(153,1466)" d="m0 0h2v2l2 2-2 5h30l1-2v3l-31 1h-139l2-3v2h133z" fill="#484748"/>
<path transform="translate(554,1384)" d="m0 0h4l7 9 8 7 9 9 8 10 9 2 19 1v1h-27l-7-3-6-10-8-8-10-8-2-2-4-6z" fill="#AF8663"/>
<path transform="translate(165,1517)" d="m0 0h34l64 2v1h-80l-53-1v-1z" fill="#A98561"/>
<path transform="translate(581,1358)" d="m0 0h91l-3 2h-33l-17 1-3 1-4-1-13 2-4-2-14-2z" fill="#9FA9B3"/>
<path transform="translate(301,1454)" d="m0 0h47v1l-29 3h-14v2l-5 1v6l-2 2-2-4v-6l1-1-13-1v-1l15-1z" fill="#4B4949"/>
<path transform="translate(636,1371)" d="m0 0h23l-2 2-11 1-76 1-4 1 1-4z" fill="#83858A"/>
<path transform="translate(518,1421)" d="m0 0 7 6 10 10 5 6 8 7h1v-2l4 2 5 4h20v1l-16 1 19 1v1h-23l-5-3-1 3-9-9-8-7-11-11-6-8z" fill="#413832"/>
<path transform="translate(662,1322)" d="m0 0h54l-4 2-10-1v2h-10l-1 1h-23l-44-1v-1l35-1z" fill="#8F8E8F"/>
<path transform="translate(555,1428)" d="m0 0h32l18 1 3 4-12 1-28-1-3-2h-10z" fill="#413D3B"/>
<path transform="translate(339,1510)" d="m0 0h15v4l-3 1h-90v-1l45-1v-1l31-1z" fill="#2B2523"/>
<path transform="translate(187,1456)" d="m0 0h96l-4 2-13 1v-2l-27 2h-27l-25-1z" fill="#535151"/>
<path transform="translate(621,1462)" d="m0 0h10v1l8 1v1l-61 2-12 1h-15l-2-2 33-2z" fill="#241D1B"/>
<path transform="translate(590,412)" d="m0 0 2 2 5 23 2 14v51h-1l-1-6-1-42-4-26-3-11z" fill="#75767A"/>
<path transform="translate(563,1449)" d="m0 0h62v1l-17 2-28 1h-22l-1-3z" fill="#100D0B"/>
<path transform="translate(449,354)" d="m0 0 4 1 11 9 13 13 10 13 9 15-1 2-5-5-7-11-13-16-5-6-9-7v-2l-3-1v-2l-4-1z" fill="#1B1B1B"/>
<path transform="translate(610,1429)" d="m0 0 3 1v3h-2l1 2 2-1v-2h5l1 1 1-2 4 1-2 1 1 5-67-1v-2l51-1z" fill="#524337"/>
<path transform="translate(456,1540)" d="m0 0h107v2h-22l-12 1-19-1-5 1h-9l-7-1-33-1z" fill="#BB9372"/>
<path transform="translate(123,508)" d="m0 0 2 4 6 28 7 22 9 21 8 15-1 3-10-18-10-24-5-14-5-21-1-7z" fill="#373738"/>
<path transform="translate(351,1249)" d="m0 0h1v14h6l4 3 2 6h-11v23l-1 40h-1z" fill="#D8DDE3"/>
<path transform="translate(487,1417)" d="m0 0h31l5 6 27 27-1 2-7-7-7-6-7-8-10-10v-2l-9 1 5 9-2 4-4-5-5-7h-2v-3h-14z" fill="#B09C85"/>
<path transform="translate(552,1200)" d="m0 0h15l13 2 20 4 9 2h5l1 5-9-1-14-3v-2l-15-1-12-3-13-2z" fill="#6B6867"/>
<path transform="translate(189,796)" d="m0 0 10 2 10 4 12 3 16 5 10 3 10 4 12 3 9 3v1h-8l-1-1-10-2v-2l-9-2-19-6v-2h-7l-33-10-2-1z" fill="#AEB3BA"/>
<path transform="translate(124,1495)" d="m0 0h30l53 1 35 2v2h-11l-7-1-18-1-80-1-2 4-4 3 2-4z" fill="#C4C5C6"/>
<path transform="translate(240,1473)" d="m0 0h3v3h15v1h-9v2l-16 2-52 1-5-2v-1h46v-2l9 2v-2l8-2z" fill="#908F90"/>
<path transform="translate(451,257)" d="m0 0 5 1 17 8 17 10 18 13 14 12 10 9 1 4-3-1-7-8-15-13-18-13-21-12-17-8z" fill="#2D2C2C"/>
<path transform="translate(546,445)" d="m0 0 5 3 11 12 5 4 7 8 2 3-4 4-2-1 1-4-6-5-5 1v-2l2-1v-2l-8-6-3 2 1-5-4-5-4-1-2 1 2-5z" fill="#8B8B8D"/>
<path transform="translate(353,1272)" d="m0 0h11v16h-3l-7-1v7h-1z" fill="#38393A"/>
<path transform="translate(19,1469)" d="m0 0 1 2-3 5 18 1v1l-18 1-6 7h-5l-4-1h-2v-9l14-1z" fill="#7D828A"/>
<path transform="translate(480,567)" d="m0 0v3l-7 9-15 15-8 6-6 4-1 2-10 5-2-1 9-7 3-2h3v-2h2v-2h2v-2l5-2v-2h2l2-4 15-14z" fill="#2A2D30"/>
<path transform="translate(566,1343)" d="m0 0h80v1l-23 1h-16l-5-1v2l-10 1-24-1-2-1z" fill="#8B8D92"/>
<path transform="translate(362,1289)" d="m0 0h10l3 1 1 3v7l-21-1 4-1v-2l-3 1 2-4z" fill="#888D94"/>
<path transform="translate(704,1411)" d="m0 0h16v2l-23 2h-53v-1l8-1z" fill="#89909A"/>
<path transform="translate(686,1304)" d="m0 0h34v6h-20l-10-1 2-1v-2l-6-1z" fill="#908F90"/>
<path transform="translate(558,1204)" d="m0 0 9 1 21 5 5 2 20 3v1h-16l-4-1-14-2-13-2v-2l-6-2-2-1z" fill="#7C8189"/>
<path transform="translate(294,1497)" d="m0 0h45l-2 3-20 1h-19l-2 4-4-1 1-4z" fill="#DFE5EC"/>
<path transform="translate(591,1408)" d="m0 0 7 1 51 1v1l-11 1-37 1-6 3h-9l2-6h3z" fill="#C7CBCF"/>
<path transform="translate(376,1321)" d="m0 0h1l1 14-6 2h-5l-3-5v-7l11-3z" fill="#959BA3"/>
<path transform="translate(296,707)" d="m0 0 33 6 19 2h29l9 1v1h-52l-25-4-16-4z" fill="#676769"/>
<path transform="translate(582,1469)" d="m0 0h30l-4 2-35 2-25 2v-4l10-1z" fill="#B88A65"/>
<path transform="translate(671,1431)" d="m0 0h6v2l20-1h23v2l-26 2h-28z" fill="#4A433E"/>
<path transform="translate(716,1361)" d="m0 0h4v13l-13-3-2-1v-2l-4-2v-2z" fill="#C9CDD0"/>
<path transform="translate(549,1428)" d="m0 0 3 1 2 3 54 1 2 2h-53v2h7v2h-8v-2l-3-1-4-6zm56 1h5l-1 4-4-2z" fill="#9B8B7B"/>
<path transform="translate(655,1338)" d="m0 0h65v2l-39 1h-25z" fill="#CBCFD2"/>
<path transform="translate(305,1508)" d="m0 0h52l1 5-3 2-4-1h3v-4l-15 1h-42v-2z" fill="#78553F"/>
<path transform="translate(585,1461)" d="m0 0h20l16 1v1l-39 2h-37v-2h11z" fill="#A58262"/>
<path transform="translate(361,1492)" d="m0 0 2 1-3 12-4 1h-10l-1-6 1-4 14-2z" fill="#8E8277"/>
<path transform="translate(10,1578)" d="m0 0h43v1l-16 3h-11l-14 2-2-2z" fill="#9A744F"/>
<path transform="translate(634,1434)" d="m0 0h5l-1 5-60 1h-20v-1h6v-2h71z" fill="#896E59"/>
<path transform="translate(660,1432)" d="m0 0 7 2v1h27l26-1v2l-31 2h-39l3-2h4l1-3z" fill="#968375"/>
<path transform="translate(510,1390)" d="m0 0 3 1 1 5-14 2-18 6-13 7-3 2 1 2h-7l3-3h2v-2h3v-2l16-8 24-9z" fill="#98826D"/>
<path transform="translate(289,659)" d="m0 0 6 1 4 3-1 7-4 1v8h-2l-1-8-4-1-1 6h-2l1-7z" fill="#222122"/>
<path transform="translate(601,1355)" d="m0 0h42l-1 3h-43l-19-1v-1z" fill="#93989F"/>
<path transform="translate(151,801)" d="m0 0h7l10 5v2h-3l-1 7-3 5-6 3-6-1-4-4v-2l5 2h6l5-5-1-5-3-3-8-1z" fill="#262728"/>
<path transform="translate(649,1428)" d="m0 0h41v1l-28 1h15l-4 2-5 2-10-1v2h-2v-2h-9-3l-4 1 1-3 8-1z" fill="#968C83"/>
<path transform="translate(552,1324)" d="m0 0 6 5 9 11-1 38h-1l-1-18-3-19-1-1-2 4v-10l-6-7z" fill="#413830"/>
<path transform="translate(646,1541)" d="m0 0h74v2h-34l-35 1-5-1z" fill="#AC8863"/>
<path transform="translate(712,1440)" d="m0 0h8v3l-61 2h-12v-1l10-1 1-1z" fill="#252221"/>
<path transform="translate(336,239)" d="m0 0 7 1v1l-24 3-26 6-24 8-1-2 22-8 19-5z" fill="#3C3B3C"/>
<path transform="translate(256,847)" d="m0 0 1 2-5 13-2 1-2-6-6-2h-3l-1-7 9 1 4-1z" fill="#4A4848"/>
<path transform="translate(503,530)" d="m0 0 1 4-10 21-7 11-4 4-2-1 2-5 6-9 9-16 4-8z" fill="#212122"/>
<path transform="translate(520,1529)" d="m0 0h19l-1 3-14 2-1 5h-12l-2-2h2l2-4 8-2z" fill="#C9C5BF"/>
<path transform="translate(562,1275)" d="m0 0h2l7 14h2l3-4v2l3 1h-3v12h-1l-1-5-2 1-8-7-4-5 1-3-1-3z" fill="#9FA9B3"/>
<path transform="translate(459,1415)" d="m0 0h14l17 1-4 2-26 1-5 10-1 4h2v3l-7 1-3-3 5-1 1-5z" fill="#7F634E"/>
<path transform="translate(548,1329)" d="m0 0 2 1 1 3 3 1 2 13v14h-3l-2-9-3-20z" fill="#F0F3F7"/>
<path transform="translate(689,1174)" d="m0 0 31 1v3h-57v-1l23-2z" fill="#262627"/>
<path transform="translate(446,699)" d="m0 0 3 1-2 2-16 5-18 5-15 3-6 1h-15v-1l28-4 20-5z" fill="#3B3B3D"/>
<path transform="translate(534,565)" d="m0 0 4 1v2l-5 2-1 1 1 7 3 2 7-1 1-1v-6h-3l-1 2h-2l1-4 3-3 7 4-3 9-3 3h-8l-5-4-2-3 1-6z" fill="#363637"/>
<path transform="translate(213,517)" d="m0 0h2l3 11 7 15 8 15-1 2-7-11-1-4-3 1-8-20-1-8z" fill="#2B2E30"/>
<path transform="translate(88,1507)" d="m0 0h48v1l17 1v1h-35l-31-1z" fill="#382D25"/>
<path transform="translate(578,1439)" d="m0 0h53v1l-39 1-17 2h-17v-3z" fill="#3E3733"/>
<path transform="translate(162,342)" d="m0 0 3 1-10 15-12 23-6 15-3 8-1-4 8-21 13-25z" fill="#292829"/>
<path transform="translate(0,1519)" d="m0 0h66l1 4-7-1-1-1h-59z" fill="#B19C85"/>
<path transform="translate(517,1433)" d="m0 0 7 6 6 5 5 6 8 8v2l4 2-2 1v2h15v1l-14 1-8-7-4-4-2-6-15-15z" fill="#8F6F51"/>
<path transform="translate(234,629)" d="m0 0 7 1 4 5v6l-4 6-9 1-5-5-1-6 4-6zm-1 3-4 4v6l3 4 7-1 4-4-1-7-2-2z" fill="#282829"/>
<path transform="translate(222,810)" d="m0 0 8 1 24 8 15 3 1 1 9 1 4 5 1 5-3-1v-2h-5l2-4-18-4-26-8-12-4z" fill="#726F6F"/>
<path transform="translate(530,1452)" d="m0 0 7 6 7 7 7 2h36v1l-35 2h-10l-6-9-5-5z" fill="#939292"/>
<path transform="translate(568,592)" d="m0 0h2l-2 6-10 16-10 13-12 14-4 3 2-5 11-12 13-18z" fill="#353638"/>
<path transform="translate(58,826)" d="m0 0h4l-1 4-26 6h-5v-3-1z" fill="#35373A"/>
<path transform="translate(643,1458)" d="m0 0h11v3l-17 1h-32l2-2z" fill="#A57A59"/>
<path transform="translate(375,1303)" d="m0 0h1l1 5 2-3 2 32v7h-2l-2-10-1-13-1-1z" fill="#5E5D5D"/>
<path transform="translate(427,659)" d="m0 0h8l5 5v8l-6 5-5 1-5-10-1-7zm0 2-1 5 4 9 5-1 3-3-1-7-3-3z" fill="#2D2C2D"/>
<path transform="translate(549,515)" d="m0 0 18 4-1 3-11 4-3 1 11 3 1 2-11-1-6-2 2-4 11-4-10-3z" fill="#272728"/>
<path transform="translate(517,1442)" d="m0 0 6 1 10 14 1 3h-8l-6-8 3 1v-7h-10l4-1z" fill="#644F41"/>
<path transform="translate(555,1332)" d="m0 0 4 2v10l1 11v16h-1l-2-8-1-1-2-27z" fill="#B7B8B9"/>
<path transform="translate(525,1232)" d="m0 0 4 2 5 13 1 6-2 4-5-6-2-7z" fill="#E0E6ED"/>
<path transform="translate(236,683)" d="m0 0 6 1 19 10 12 5 23 8-4 1-24-8-23-11-9-5z" fill="#414042"/>
<path transform="translate(169,387)" d="m0 0 18 2-1 5-3 6-4-2-10-10z" fill="#F0F2F4"/>
<path transform="translate(714,1448)" d="m0 0h6v3l-23 1h-18l-19-1v-1z" fill="#1B1715"/>
<path transform="translate(0,1557)" d="m0 0 7 2 5 1 1 3-3 5-3 1-1 5-3-4-3-9z" fill="#B8A189"/>
<path transform="translate(308,1584)" d="m0 0h31l6 2v1h-49l3-2z" fill="#2E1C18"/>
<path transform="translate(546,1306)" d="m0 0 2 1 4 6 9 10 7 9v2l-4-2-11-10v-2h-2l-5-11z" fill="#DADFE5"/>
<path transform="translate(121,452)" d="m0 0h1l1 8 1 48-2 3-1-8z" fill="#717173"/>
<path transform="translate(152,1580)" d="m0 0h26l22 1v1l-18 1h-32l2-1z" fill="#8F6A49"/>
<path transform="translate(187,643)" d="m0 0 4 2 7 7 22 18 15 10 3 3-5-1-17-12-11-9-10-9-8-8z" fill="#2F2F30"/>
<path transform="translate(17,1478)" d="m0 0h16l20 1v1l-32 1-5 1-4 6-8 1-4-1v-3l5-1 1 1h5z" fill="#91959B"/>
<path transform="translate(595,1423)" d="m0 0 54 1v1l-39 1h-44v-1l29-1z" fill="#B78A66"/>
<path transform="translate(575,1311)" d="m0 0h33v1l-13 1 4 2-8 1h-17z" fill="#A0AAB4"/>
<path transform="translate(404,666)" d="m0 0h2l3 11v5l-4 4h-7l-3-5-2-12h3l3 13 4 1h3z" fill="#333234"/>
<path transform="translate(360,1504)" d="m0 0v3l-3 1-16 1h-17l-34-1v-1l53-1 13-1z" fill="#322621"/>
<path transform="translate(568,1483)" d="m0 0h22v1l-7 1 10 1v2h-18l-2-1-20-1v-1z" fill="#BF8F6C"/>
<path transform="translate(714,1444)" d="m0 0h6v2l-41 2-3 1h-13l-4-3z" fill="#2A2523"/>
<path transform="translate(514,1418)" d="m0 0 4 2h-2v11 4l-2-2-1 3-7 4h-2l-1 2 1-4 5-5h3l1-4-5-9z" fill="#928375"/>
<path transform="translate(376,1446)" d="m0 0 2 1-1 3-7 6h-3v2l-8 2-5-1-1-4 1-2 12 1 5-2 2-4z" fill="#AB8763"/>
<path transform="translate(565,1394)" d="m0 0 4 2 13 13 8 10 9 2 19 1v1h-27l-5-2-3-7-11-12-7-7z" fill="#75675B"/>
<path transform="translate(711,1277)" d="m0 0h9v3h-83v-1l73-1z" fill="#341D18"/>
<path transform="translate(113,1457)" d="m0 0h74l3 1v2l-5-1h-21l-5 1-1-1h-22l-5 1v-2h-18z" fill="#7A797A"/>
<path transform="translate(642,1174)" d="m0 0h27v1l10 1v1h-51v-1l11-1z" fill="#595757"/>
<path transform="translate(344,324)" d="m0 0h31l1 2-31 1-20 3 3-3z" fill="#303031"/>
<path transform="translate(533,313)" d="m0 0 7 6 11 13 14 21-2 2-10-15-10-13-1-3h-2l-7-8z" fill="#333233"/>
<path transform="translate(51,1495)" d="m0 0h72v1l-69 1-5 3-1-4z" fill="#C3C4C4"/>
<path transform="translate(551,1320)" d="m0 0h2l4 5 5 5-7-2-2-3 1 5 3 1-2 4-5-2-1-3-1 4-4-1v-3h2v-2l4-1-3-4 4 1z" fill="#909398"/>
<path transform="translate(294,1458)" d="m0 0h1v17l-1 1h-23l1-4v3l8-1v-2l-2-1h16z" fill="#373839"/>
<path transform="translate(564,1192)" d="m0 0h8l15 2 17 1 2 2-4 1h-10l-2-1-18-2h-21l3-2z" fill="#A0AAB4"/>
<path transform="translate(340,670)" d="m0 0 5 1 3 3v2l-4-2h-4l1 4 7 4-1 6-3 2-6-1-3-3v-3l3 1 2 3h4l1-5-6-2-3-3 1-4z" fill="#2B2A2B"/>
<path transform="translate(395,1523)" d="m0 0h28l5 1v1l-9 1h-38v-1l14-1z" fill="#C9C5BF"/>
<path transform="translate(550,1284)" d="m0 0 4 5 1 4 2 1-4 1 1 7h-3l2 5 2 4-4-1-2 1-2-4 1-1z" fill="#C9CDD1"/>
<path transform="translate(545,1201)" d="m0 0 3 1 3 5 1 3 7 2v1h-13l-4-3-1-4z" fill="#C2C2C2"/>
<path transform="translate(612,1429)" d="m0 0h29l-2 3-10 1 1-3h-2v3l-7-2-1 3-6-2v2l3 1-5 1-1-3h2z" fill="#A8998A"/>
<path transform="translate(352,1405)" d="m0 0h1v42l-3 3v-44z" fill="#959BA4"/>
<path transform="translate(543,1341)" d="m0 0 2 1 4 21-7 1v-4l-2-1h2l-1-7 2-3z" fill="#DFE5EC"/>
<path transform="translate(200,299)" d="m0 0 2 1-19 19-8 10-10 13-2-1 9-12 11-13 8-9 8-7z" fill="#2C2B2B"/>
<path transform="translate(255,1471)" d="m0 0h13v3 2h-25v-3h-3l-1 2v-3h5l1 2 7-1 2 1z" fill="#313031"/>
<path transform="translate(637,1451)" d="m0 0h42v1l-36 2h-15l1-2z" fill="#070404"/>
<path transform="translate(518,1421)" d="m0 0 7 6 10 10 5 6 5 4-1 3-10-9-9-8-4-6-3-4z" fill="#3B302A"/>
<path transform="translate(523,1411)" d="m0 0h8l4 2 1 3h-30l2-2z" fill="#C6A187"/>
<path transform="translate(493,406)" d="m0 0 5 2 8 18 2 10h-2l-11-25z" fill="#272728"/>
<path transform="translate(534,1460)" d="m0 0 3 1 3 7v4l-8 1-2-5-1-4 2-2h3z" fill="#977657"/>
<path transform="translate(261,646)" d="m0 0h3l-2 5-3 6v5l7 1 2-6 4-6h2l-1 4-6 10-7 1-4-4v-6z" fill="#292829"/>
<path transform="translate(174,542)" d="m0 0h4l2 6-1 4-3-6v-2l-5 2 1 8h-2l-2-6h-5l2 10h-2l-3-8v-3z" fill="#282729"/>
<path transform="translate(642,1456)" d="m0 0h25v1l-7 1-17 1h-30v-1z" fill="#191310"/>
<path transform="translate(697,1451)" d="m0 0h23v2l-12 1h-29l3-2z" fill="#BBBCBE"/>
<path transform="translate(550,1200)" d="m0 0 21 3 6 2 15 2v1h-7l-2-1v2l-12-2-21-5z" fill="#333"/>
<path transform="translate(503,1398)" d="m0 0 4 2 7 8 1 3h-10l-3-7z" fill="#998878"/>
<path transform="translate(516,592)" d="m0 0h2l-2 4-2 5 6 1 2-5h2l-2 5v4h4l3-4h2l-2 4-3 4-4-1-9-6-2-2 1-4z" fill="#2C2B2C"/>
<path transform="translate(510,454)" d="m0 0 3 1 1 8v30l-1 8h-1l-1-38z" fill="#3B3B3C"/>
<path transform="translate(621,1480)" d="m0 0h11l16 1v1l-10 1h-37v-1z" fill="#B88A65"/>
<path transform="translate(344,1461)" d="m0 0 2 1-10 6-17 5-9 1-9-1 1-2h11l14-3 13-5z" fill="#908F90"/>
<path transform="translate(240,1473)" d="m0 0h3v3h15v1h-9v2l-16 2-4-1 2-1v-2l8-2z" fill="#8E8E8F"/>
<path transform="translate(555,1445)" d="m0 0 4 1-1 1h48v1l-43 2h-8l-2-4z" fill="#735947"/>
<path transform="translate(675,1298)" d="m0 0h28l17 1v1l-15 1h-28l-2-1z" fill="#908F90"/>
<path transform="translate(594,1455)" d="m0 0h24v1l6 1 2 3h-15l-14-1v-1h13v-2l-14 1h-15v-1z" fill="#393432"/>
<path transform="translate(583,1207)" d="m0 0 19 3 9 2v2h-13l-9-2-6-3z" fill="#121213"/>
<path transform="translate(310,1577)" d="m0 0h24l4 2-5 2h-23l-1-2z" fill="#AA855F"/>
<path transform="translate(710,1438)" d="m0 0h10v2l-8 1-29 1-6-1v-1l8-1z" fill="#969697"/>
<path transform="translate(712,1427)" d="m0 0h8v5h-21v-2l6-2z" fill="#C1BCB7"/>
<path transform="translate(124,1495)" d="m0 0h30l11 1v1h-39l-2 4-4 3 2-4z" fill="#ACB1B6"/>
<path transform="translate(596,1456)" d="m0 0h14v2l-13 1h-40v-1z" fill="#A29A92"/>
<path transform="translate(512,1389)" d="m0 0 7 6 8 7-1 2-3-2 1 3-4 2-3-5-2-8h-2z" fill="#746F6B"/>
<path transform="translate(547,1201)" d="m0 0 4 2 7 6 8 3 7 1v1h-29v-1l11-1-5-5-3-5z" fill="#9EA8B2"/>
<path transform="translate(379,1313)" d="m0 0 2 3 3 11v10l-2 5h-1l-2-18z" fill="#B8BBC0"/>
<path transform="translate(540,1489)" d="m0 0h24l16 1v1l-23 1h-17z" fill="#A3ACB5"/>
<path transform="translate(577,1289)" d="m0 0h40v1h-5v2l-31-1z" fill="#82868D"/>
<path transform="translate(711,1425)" d="m0 0h9v2l-14 1h-31l3-2z" fill="#3C2E22"/>
<path transform="translate(713,1477)" d="m0 0h7v3h-38l4-2z" fill="#CBBCAB"/>
<path transform="translate(244,1456)" d="m0 0h39l-4 2-13 1v-2l-27 2v-2z" fill="#5D5C5D"/>
<path transform="translate(671,1431)" d="m0 0h6v2h12v1l5 1v1h-28z" fill="#7D5941"/>
<path transform="translate(704,1446)" d="m0 0h16v2l-6 1h-28v-2z" fill="#B9B2AA"/>
<path transform="translate(353,1438)" d="m0 0h1v5l8-1h10l-2 3-6 1h-10v9h-2z" fill="#544840"/>
<path transform="translate(526,1418)" d="m0 0h7l2 2 3 1 2 6v5l-4-2-8-10z" fill="#B59F87"/>
<path transform="translate(449,354)" d="m0 0 4 1 11 9 13 13-1 2-11-10-9-7v-2l-3-1v-2l-4-1z" fill="#1A1A1B"/>
<path transform="translate(511,1395)" d="m0 0 3 1 1 13-7-6-4-6z" fill="#C3C6C9"/>
<path transform="translate(222,545)" d="m0 0h2l6 11 11 16 2 4-4-2-10-14-7-13z" fill="#202021"/>
<path transform="translate(578,1466)" d="m0 0h14l30 1v1l-16 1h-26z" fill="#574B44"/>
<path transform="translate(363,1289)" d="m0 0h9l3 1 1 3v7l-5-4-5-1-1-3-2-1z" fill="#C8CCD0"/>
<path transform="translate(354,1272)" d="m0 0h10v6l-3 2h-7z" fill="#010000"/>
<path transform="translate(560,1465)" d="m0 0h30v1l-24 2h-15l-2-2z" fill="#251F1D"/>
<path transform="translate(506,1450)" d="m0 0 12 4 1-2 2 4v3l-8-1-7-3-1-4z" fill="#4D4948"/>
<path transform="translate(588,1429)" d="m0 0h17l3 4-12 1-7-1z" fill="#4C423B"/>
<path transform="translate(596,1343)" d="m0 0h50v1l-23 1h-16l-5-1v2h-7l-1-2z" fill="#908F90"/>
<path transform="translate(0,1457)" d="m0 0h54l-1 3-4-1h-21l-5 1-1-1-22-1z" fill="#83868B"/>
<path transform="translate(492,619)" d="m0 0h2l3 5 5 5 4 1 1-6-2-3 4 1 1 1v5l-5 5-4-1-8-7-2-5z" fill="#272627"/>
<path transform="translate(456,1540)" d="m0 0h41l13 1v1l-5 1h-9l-7-1-33-1z" fill="#C29778"/>
<path transform="translate(550,1202)" d="m0 0 8 1v3l6 2 2 1v2l7 1v1h-7l-8-3-8-7z" fill="#9398A1"/>
<path transform="translate(707,1455)" d="m0 0h13v3h-22l-13-1v-1z" fill="#9F7755"/>
<path transform="translate(578,1454)" d="m0 0h16v2l-13 1h-22l3-2z" fill="#010000"/>
<path transform="translate(628,1430)" d="m0 0h2l1 2 8 1v1h-5l2 4h-12l-1-5 3-1 2 1z" fill="#795E4B"/>
<path transform="translate(597,496)" d="m0 0h1v15l-4 21-2-1 1-9 2-11z" fill="#48484A"/>
<path transform="translate(655,1340)" d="m0 0 1 2h26l13 2v1h-14l-13-1h-12l-3-2h2z" fill="#8F8E90"/>
<path transform="translate(241,813)" d="m0 0 12 2 4 2 12 3 9 3v1h-8l-1-1-10-2v-2l-9-2-9-3z" fill="#A2A8B0"/>
<path transform="translate(546,445)" d="m0 0 5 3 6 7-1 3-5 3 1-5-4-5-4-1-2 1 2-5z" fill="#A4A6AA"/>
<path transform="translate(556,1378)" d="m0 0 3 2 5 1h3l-1 3-8 2v-2l-9-1-1-4z" fill="#C7CBCF"/>
<path transform="translate(146,806)" d="m0 0 1 3 1 5 4 3 6-2 2-6 2 1-1 4-5 5h-6l-5-2-4-2 2-1 1-7z" fill="#616060"/>
<path transform="translate(154,806)" d="m0 0 4 1 1 1v7l-5 3-5-2 2-4 4 1-1-3-2-1 1-2z" fill="#1D1D1E"/>
<path transform="translate(516,1434)" d="m0 0 7 6 11 11-1 4-5-3-5-8-3-2-3-5z" fill="#998169"/>
<path transform="translate(704,1411)" d="m0 0h16v2l-7 1h-15l-14-1v-1z" fill="#8F969F"/>
<path transform="translate(632,1445)" d="m0 0h11v1l-10 2h-27l1-2z" fill="#9C9B9B"/>
<path transform="translate(709,1436)" d="m0 0h11v2l-10 1h-24l3-2z" fill="#3A2B25"/>
<path transform="translate(605,1429)" d="m0 0h5l-1 4-4-2zm-21 4h24l2 2h-31v-1z" fill="#8B7561"/>
<path transform="translate(177,801)" d="m0 0h5l1 3 8 1 3 2-14-1-5 1-4-1z" fill="#2B2E31"/>
<path transform="translate(460,643)" d="m0 0h2l1 13 2 6-3-1-2-4-9-6-1-2 5 1 4 3z" fill="#272627"/>
<path transform="translate(596,1414)" d="m0 0 4 2h-3v2h6l-3 1v2h9v1h-10l-9-2-3-4 8-1z" fill="#98A1AB"/>
<path transform="translate(213,607)" d="m0 0h2l-1 8h3 6l-2 2-11 4-3 3h-2l2-4 3-5z" fill="#333335"/>
<path transform="translate(375,1526)" d="m0 0h6l-2 4-4 2 1 3 3 3-5 1-5-6 5-5z" fill="#C9C5BF"/>
<path transform="translate(548,1332)" d="m0 0h1l2 15v8l-3-3-3-15-1-4 4 1z" fill="#C3C4C5"/>
<path transform="translate(167,515)" d="m0 0h3l-1 3-13 3v9h-2l-2-6v-5l7-2z" fill="#454547"/>
<path transform="translate(358,1476)" d="m0 0 10 2 3 1-1 3h-9l1 6h-2l-2-6z" fill="#91867C"/>
<path transform="translate(549,1426)" d="m0 0h5l1 4h10l13 1v1l-10 1h-14z" fill="#3A2E24"/>
<path transform="translate(370,1383)" d="m0 0h2v17h2l-2 11-2-1z" fill="#706D6C"/>
<path transform="translate(698,1463)" d="m0 0h22v3h-34v-1l12-1z" fill="#8C9198"/>
<path transform="translate(712,1440)" d="m0 0h8v3h-21l-12-1v-1z" fill="#49413E"/>
<path transform="translate(603,1418)" d="m0 0h8l5 1 8 1 1 2h-16l-9-1v-2z" fill="#C1C2C2"/>
<path transform="translate(510,1390)" d="m0 0 3 1 1 5-15 2v-2l-2-1z" fill="#928579"/>
<path transform="translate(244,578)" d="m0 0 3 1 7 8 12 10 5 5-4-1-11-9-12-12z" fill="#1C1C1D"/>
<path transform="translate(186,566)" d="m0 0 4 4 3 6v2h-2l-1-4-14 7h-2l1-3 11-6z" fill="#2B2A2B"/>
<path transform="translate(337,1511)" d="m0 0h6l2 1v2h-16l-23-1v-1z" fill="#1F1B1B"/>
<path transform="translate(346,1496)" d="m0 0h6l-1 8h2v2h-7l-1-6z" fill="#989FA8"/>
<path transform="translate(546,1440)" d="m0 0 7 5 2 5 3 1v2h18v1l-18 1-7-6-3-2v-2z" fill="#7F6C5C"/>
<path transform="translate(616,1195)" d="m0 0h1l1 12-2 7-2-1-1-5v-10z" fill="#494747"/>
<path transform="translate(443,605)" d="m0 0h2v2l-16 9-4 2h-3v-2l18-10z" fill="#171717"/>
<path transform="translate(272,603)" d="m0 0 4 1 9 3v2h3v2l2 1-1 2-6-2-11-7z" fill="#222324"/>
<path transform="translate(525,1426)" d="m0 0h2l7 8 16 16-1 2-7-7-7-6-7-8-3-3z" fill="#BCAD9D"/>
<path transform="translate(617,1177)" d="m0 0h2l-1 6-2 5-2 10h-1v-5l-1-1 1-8 3-6z" fill="#898B90"/>
<path transform="translate(536,1360)" d="m0 0h6l1 7-9 1 1-7z" fill="#4F4E4F"/>
<path transform="translate(364,671)" d="m0 0h13v2h-5v16h-2v-16h-6z" fill="#232324"/>
<path transform="translate(378,1320)" d="m0 0 2 4 1 20h-2l-2-10v-11z" fill="#333435"/>
<path transform="translate(213,517)" d="m0 0h2l2 11 3 9 1 4h-2l-6-15-1-8z" fill="#28292A"/>
<path transform="translate(524,1364)" d="m0 0 5 1v3l-2 4-8-2v-3z" fill="#464648"/>
<path transform="translate(164,807)" d="m0 0 4 1-2 6-6 13-7-3 3-3 5-2 3-6z" fill="#4A4A4C"/>
<path transform="translate(522,1473)" d="m0 0 17 2 2 1v2h-13l-5-2z" fill="#383838"/>
<path transform="translate(678,1430)" d="m0 0h13l8 1-2 2h-20z" fill="#A79582"/>
<path transform="translate(515,1366)" d="m0 0 1 2 3 1-2 2-4 1-1 5h-2l-1 2-1-3-4-2 6-3 3-1v-2h2z" fill="#AEB3B8"/>
<path transform="translate(668,1368)" d="m0 0h17l6 1v1l-8 1h-14l-2-2z" fill="#9FA9B3"/>
<path transform="translate(283,853)" d="m0 0h1l-1 9-2 9-9-2v-1l5-1 3-7 2-1z" fill="#767575"/>
<path transform="translate(550,620)" d="m0 0h2l-2 5-10 11-7 8v-3l9-11z" fill="#2F2E2F"/>
<path transform="translate(123,508)" d="m0 0 2 4 4 20-1 4-2-2-3-17z" fill="#434345"/>
<path transform="translate(272,1470)" d="m0 0h20v1l-12 1v2l2 1h-10v-3l-2-1z" fill="#1B1B1C"/>
<path transform="translate(634,1434)" d="m0 0h5l-1 5h-40v-1l37-1z" fill="#AA9987"/>
<path transform="translate(539,1318)" d="m0 0 9 4 1 3 2 2-5 1-1 2-1-5-6-3z" fill="#C5C7CA"/>
<path transform="translate(110,1546)" d="m0 0h11l4 2 1 2-12 1-4-4z" fill="#B69F87"/>
<path transform="translate(364,1445)" d="m0 0h6l-4 2h-3v2l-5 3h-4v-6z" fill="#99734E"/>
<path transform="translate(559,1338)" d="m0 0 3 3 1 13-3 3-1-2z" fill="#2F1C18"/>
<path transform="translate(189,796)" d="m0 0 10 2 14 5v2l-9-2-15-5z" fill="#A2A8AF"/>
<path transform="translate(180,796)" d="m0 0h9v2l9 2 1 2-11-1-9-3z" fill="#7C7E84"/>
<path transform="translate(429,341)" d="m0 0 6 2 14 9v2l-4-1-16-10z" fill="#191919"/>
<path transform="translate(525,1479)" d="m0 0 15 1v1h-5v4l-8-1-3-4z" fill="#4C423D"/>
<path transform="translate(566,465)" d="m0 0 7 6 3 4-4 4-2-1 1-4-7-6z" fill="#86878B"/>
<path transform="translate(283,1456)" d="m0 0 15 1-1 2v12l3 3v2l-5-1v-17h-16z" fill="#7F8084"/>
<path transform="translate(652,1433)" d="m0 0h4v2l2 1-5 1 5 1v1h-11l-3-3z" fill="#634D3F"/>
<path transform="translate(544,1369)" d="m0 0 4 2 2 6-4 3v-2h-2v-6h-5l-1-2z" fill="#909296"/>
<path transform="translate(543,1365)" d="m0 0h1v5l-5 1 4 1-1 4v-2l-8-1v-5l9-1z" fill="#77797D"/>
<path transform="translate(354,1287)" d="m0 0h7l1 3-5 5h-3z" fill="#050404"/>
<path transform="translate(360,1506)" d="m0 0 2 1 1 5-5 4h-8v-1l8-2-2-4 1-2z" fill="#8C7B6B"/>
<path transform="translate(508,1439)" d="m0 0h10l1 2-8 2v2h-5l-1-4z" fill="#A3978A"/>
<path transform="translate(610,1429)" d="m0 0 3 1v3h-2l3 4-1 1-20-1v-1l12-1 3-2z" fill="#6E513F"/>
<path transform="translate(503,432)" d="m0 0h2l1 4h3l3 12-1 3v-2h-2l-2-9-3-2z" fill="#383A3C"/>
<path transform="translate(714,1448)" d="m0 0h6v3h-16l-10-1v-1z" fill="#3A2823"/>
<path transform="translate(375,1322)" d="m0 0 1 2-1 6-11-4 2-2z" fill="#7D828A"/>
<path transform="translate(711,1277)" d="m0 0h9v3h-28v-1l18-1z" fill="#201B1B"/>
<path transform="translate(617,1207)" d="m0 0 2 1 2 5 11 1v1h-25l4-2 5 1z" fill="#2A2B2D"/>
<path transform="translate(503,622)" d="m0 0 4 1 1 4-2 3-5-1-2-3z" fill="#E3E5E8"/>
<path transform="translate(258,362)" d="m0 0 3 1-4 2-2 4-8 8-1 2h-2l1-4z" fill="#1A1A1B"/>
<path transform="translate(717,1471)" d="m0 0h3v5h-16l4-2z" fill="#CBBCAB"/>
<path transform="translate(679,1447)" d="m0 0h7v2h8v1h-30v-1l12-1z" fill="#8D725B"/>
<path transform="translate(555,1428)" d="m0 0h22v2l-22 1z" fill="#7C746E"/>
<path transform="translate(234,629)" d="m0 0 7 1-2 2-7 2-2 2-1 5h-3l1-6 5-5z" fill="#3E3D3E"/>
<path transform="translate(318,624)" d="m0 0 12 2 9 2v2l-11-1-10-3z" fill="#242425"/>
<path transform="translate(523,1479)" d="m0 0 2 1 2 4 8 1 1-4 6 2-1 3-4-2-1 2h-8l-5-3v-2l-2-1z" fill="#706D6C"/>
<path transform="translate(542,1471)" d="m0 0 6 1-1 8-2-3-1 2-1 9h-1z" fill="#9C7650"/>
<path transform="translate(525,1466)" d="m0 0h2l3 7-4 1h-5l1-6z" fill="#897C71"/>
<path transform="translate(518,1416)" d="m0 0h6l1 3 2 1v4l-1 2-7-6z" fill="#65554B"/>
<path transform="translate(290,662)" d="m0 0 6 1 1 5-1 1h-6l-1-3z" fill="#E7EAED"/>
<path transform="translate(132,402)" d="m0 0 2 4-5 17-2 2 1-10z" fill="#3D3E40"/>
<path transform="translate(558,1329)" d="m0 0 6 2 4 4-1 3h2v2l-4-1-7-8z" fill="#797676"/>
<path transform="translate(429,659)" d="m0 0h6l5 5v8l-2 2-3-1 2-2-1-7-3-3z" fill="#1E1D1D"/>
<path transform="translate(241,1501)" d="m0 0 7 1v2h4l1-3 1 4-1 1h-13z" fill="#D6DBE0"/>
<path transform="translate(545,1476)" d="m0 0 3 1-1 10-4 1v-9z" fill="#BD8D69"/>
<path transform="translate(558,1460)" d="m0 0 27 1v1l-14 1h-13z" fill="#34251E"/>
<path transform="translate(543,1420)" d="m0 0 4 4 19 1v1l-16 1-2 3v-2l-4-1z" fill="#926E4E"/>
<path transform="translate(341,1508)" d="m0 0h16l1 5-3 2-4-1h3v-4h-8l-5-1z" fill="#594C45"/>
<path transform="translate(571,1462)" d="m0 0h14l14 1v1l-24 1z" fill="#896447"/>
<path transform="translate(497,617)" d="m0 0 5 1-1 5-5 1-2-4z" fill="#E8EAED"/>
<path transform="translate(144,580)" d="m0 0h2l8 16 1 5-3-3-8-15z" fill="#2D2C2D"/>
<path transform="translate(511,495)" d="m0 0h1v10l-3 12-2 1 2-14z" fill="#222223"/>
<path transform="translate(0,1458)" d="m0 0h22v1h-9v3h-2v-3l-3 2-3 5h-2l2-6-5-1z" fill="#38393C"/>
<path transform="translate(517,1437)" d="m0 0 3 2v3h-3v3l-10 1 4-1-1-3 8-2-8-1v-1z" fill="#8A7D71"/>
<path transform="translate(530,1366)" d="m0 0h4v2h-3l-2 6-1 1h-5l-2-4h6z" fill="#91969D"/>
<path transform="translate(74,822)" d="m0 0 4 1h-3l-1 4-9 1v-2l-3-1z" fill="#323335"/>
<path transform="translate(414,619)" d="m0 0h2v3l-13 4-4-1 1-2 12-3z" fill="#212123"/>
<path transform="translate(578,573)" d="m0 0 1 3-5 11-3 5h-2l2-6z" fill="#363738"/>
<path transform="translate(548,526)" d="m0 0h3v2l8 1 5 2v1l-11-1-6-2z" fill="#222122"/>
<path transform="translate(695,1422)" d="m0 0h2v2l4 1h-23v-2z" fill="#AC8863"/>
<path transform="translate(476,1404)" d="m0 0 3 1-13 8 1 2h-7l3-3h2v-2h3v-2z" fill="#8F7158"/>
<path transform="translate(512,1389)" d="m0 0 7 6 3 4-3 3-4-6v-2h-2z" fill="#5A4F48"/>
<path transform="translate(223,843)" d="m0 0h6v2l4 1-4 1v4l-4-1z" fill="#4A4848"/>
<path transform="translate(513,1432)" d="m0 0 4 4v2l-9 2-3 1 2 6-4-3 1-4 7-4h2z" fill="#63605F"/>
<path transform="translate(561,1358)" d="m0 0h1l2 15 1 6-3 1-1-5z" fill="#141313"/>
<path transform="translate(538,1318)" d="m0 0 1 2-1 2 6 2 1 2-2 2-4-4 1 4-3 2v-5h-2l1-5z" fill="#84888E"/>
<path transform="translate(577,1282)" d="m0 0h9l8 4h-15l1-3z" fill="#908F90"/>
<path transform="translate(347,682)" d="m0 0 1 4-4 4-6-1-3-3v-3l3 1 2 3h4l2-4z" fill="#393A3B"/>
<path transform="translate(516,592)" d="m0 0h2l-2 4-2 5 5 2v2l-5-1-3-3 1-4z" fill="#272627"/>
<path transform="translate(680,1433)" d="m0 0h9v1l5 1v1h-24l2-2h7z" fill="#5C483C"/>
<path transform="translate(583,1207)" d="m0 0 14 2-3 1v2l3 1-8-1-6-3z" fill="#232324"/>
<path transform="translate(58,826)" d="m0 0h4l-1 4-9 1-3-3z" fill="#2E2F31"/>
<path transform="translate(540,546)" d="m0 0 7 1 10 4v2l-9-2-8-4z" fill="#262627"/>
<path transform="translate(534,1460)" d="m0 0 3 1-1 4-5 4-2-2 1-4 4-1z" fill="#79797B"/>
<path transform="translate(550,1200)" d="m0 0 21 3v1l-8 1-13-3z" fill="#414141"/>
<path transform="translate(544,1433)" d="m0 0 2 1 1 5h-2l2 3-1 3-5-6-3-2v-2l6 3-1-3z" fill="#B5A08B"/>
<path transform="translate(541,1377)" d="m0 0 5 1v2h2l-1 2-12-1-2-2 4-1z" fill="#5F5D5D"/>
<path transform="translate(709,1358)" d="m0 0h10l1 3-10 1z" fill="#A0AAB4"/>
<path transform="translate(150,474)" d="m0 0h2l3 5-5 3h-3l1-5z" fill="#181819"/>
<path transform="translate(649,1429)" d="m0 0h8l-1 2h-4v2h-5-3l-4 1 1-3z" fill="#C9BBAA"/>
<path transform="translate(554,1384)" d="m0 0h4l7 9-1 2-7-5-3-4z" fill="#9F8770"/>
<path transform="translate(519,1370)" d="m0 0h2l3 7-4 1-4-2 2-5z" fill="#DDE3EA"/>
<path transform="translate(618,1181)" d="m0 0 2 1-4 17h-1v-11z" fill="#3C3C3C"/>
<path transform="translate(256,847)" d="m0 0 1 2-5 13-2 1 1-7 3-7z" fill="#93989E"/>
<path transform="translate(531,643)" d="m0 0v3l-10 10-5 4-2-1z" fill="#282828"/>
<path transform="translate(534,565)" d="m0 0 4 1v2l-5 2-2 6h-3l1-6z" fill="#3E3E3F"/>
<path transform="translate(162,342)" d="m0 0 3 1-10 15-2-2z" fill="#363637"/>
<path transform="translate(136,1458)" d="m0 0h22l-4 1-1 3-4 2v-4l-13-1z" fill="#2F3032"/>
<path transform="translate(512,1432)" d="m0 0 1 4-7 4h-2l-1 2 1-4 5-5z" fill="#919296"/>
<path transform="translate(662,1430)" d="m0 0h15l-4 2-5 2-6-1z" fill="#AD9F90"/>
<path transform="translate(375,1400)" d="m0 0h7l2 2-2 3h-5l-2-2z" fill="#C9C5BF"/>
<path transform="translate(695,1322)" d="m0 0h21l-4 2-10-1v2h-6z" fill="#908F90"/>
<path transform="translate(265,595)" d="m0 0 5 2v2l5 2 4 4h-3l-7-2v-3l-4-3z" fill="#2C2E31"/>
<path transform="translate(212,447)" d="m0 0 1 4-1 6-5 4v-6l2-1z" fill="#2E3033"/>
<path transform="translate(590,412)" d="m0 0 2 2 2 9-1 5-2-3-2-11z" fill="#505153"/>
<path transform="translate(200,299)" d="m0 0 2 1-15 15-2-1 6-7 8-7z" fill="#202020"/>
<path transform="translate(479,271)" d="m0 0 6 2 12 8-2 2-10-7-6-4z" fill="#252425"/>
<path transform="translate(163,1457)" d="m0 0h24l3 1v2l-5-1h-22z" fill="#777575"/>
<path transform="translate(534,1438)" d="m0 0 8 6 3 3-1 3-10-9z" fill="#3D2C23"/>
<path transform="translate(536,1435)" d="m0 0 8 6 6 6-3 1-11-11z" fill="#8B7F75"/>
<path transform="translate(629,1429)" d="m0 0h12l-2 3-10 1z" fill="#C4B3A1"/>
<path transform="translate(556,1378)" d="m0 0 3 3-3 2-4 1-3-1-1-4z" fill="#BFC1C3"/>
<path transform="translate(293,660)" d="m0 0 5 2 1 1-1 7-4 1-2-2 4-1v-4l-5-2z" fill="#302F30"/>
<path transform="translate(541,567)" d="m0 0 8 4-3 1-1 2-1-2h-3l-1 2h-2l1-4z" fill="#242425"/>
<path transform="translate(643,1355)" d="m0 0h9v1l6 1v1h-16z" fill="#959BA4"/>
<path transform="translate(571,1336)" d="m0 0 7 1 1 2h-5v2h-5v-3l-2-1z" fill="#7B5840"/>
<path transform="translate(546,1328)" d="m0 0 6 1 1 4h-3l-1-3-1 4-4-1v-3h2z" fill="#7C7D80"/>
<path transform="translate(593,1213)" d="m0 0 14 1 6 1v1h-16l-4-1z" fill="#737579"/>
<path transform="translate(624,1174)" d="m0 0h18l-3 2-13 1v-2z" fill="#AFB2B6"/>
<path transform="translate(546,445)" d="m0 0 2 2 6 7v3l-5-5-5-2-2 1 2-5z" fill="#87888C"/>
<path transform="translate(360,1504)" d="m0 0v3l-3 1h-9l-5-1v-1l13-1z" fill="#423A34"/>
<path transform="translate(520,1470)" d="m0 0 1 4h2v2l12 2v1h-12v-2h-2l-2-5z" fill="#8B8B8C"/>
<path transform="translate(506,1453)" d="m0 0 6 2 9 1v3l-8-1-7-3z" fill="#78553F"/>
<path transform="translate(512,1376)" d="m0 0h3v2l-3 1v3l4 1-7 1-2-5z" fill="#E5EAF0"/>
<path transform="translate(505,621)" d="m0 0 4 1 1 1v5l-5 5h-3v-2l3-1 2-3-1-4z" fill="#1E1D1E"/>
<path transform="translate(155,599)" d="m0 0 4 5 5 8-1 3-8-12z" fill="#373737"/>
<path transform="translate(568,592)" d="m0 0h2l-2 6-6 9-2-1z" fill="#2E2D2E"/>
<path transform="translate(242,1498)" d="m0 0 9 1 1 5h-4v-2h-3v-2l-3-1z" fill="#CACED2"/>
<path transform="translate(510,1390)" d="m0 0 3 1v2l-12 3-2 2v-2l-2-1z" fill="#B19C85"/>
<path transform="translate(192,801)" d="m0 0h9l7 3v2l-16-4z" fill="#76787B"/>
<path transform="translate(393,669)" d="m0 0h3l1 5v9l-2-2z" fill="#2A2A2B"/>
<path transform="translate(227,638)" d="m0 0 3 4 2 3 7 1-1 2h-6l-5-5z" fill="#1F1F20"/>
<path transform="translate(178,631)" d="m0 0 5 5 6 7-4-1-7-8z" fill="#444445"/>
<path transform="translate(162,546)" d="m0 0 4 2h-3l2 10h-2l-3-8v-3z" fill="#373737"/>
<path transform="translate(562,520)" d="m0 0 1 3-8 3-4 1-2-2z" fill="#3A3A3C"/>
<path transform="translate(520,301)" d="m0 0 4 2 8 7 1 4-3-1-7-8z" fill="#1D1C1C"/>
<path transform="translate(344,1495)" d="m0 0 3 3-1 6v2h-4v-6h2z" fill="#C2C2C2"/>
<path transform="translate(506,1447)" d="m0 0 7 1v2l-7 1 1 4 2 2-4-1-1-1v-5z" fill="#797673"/>
<path transform="translate(0,839)" d="m0 0h12v2l-6 1-1-1-3 3h-2z" fill="#2D2F32"/>
<path transform="translate(303,620)" d="m0 0 7 1 6 2v2l-10-2-3-1z" fill="#232324"/>
<path transform="translate(453,596)" d="m0 0m-1 1m-1 1 2 1-1 3-7 4-2-2z" fill="#1D1D1E"/>
<path transform="translate(213,288)" d="m0 0 3 1-11 9-3 2v-3z" fill="#333232"/>
<path transform="translate(352,1496)" d="m0 0 2 1 2 9h-3v-2h-2z" fill="#8C8B8C"/>
<path transform="translate(533,1472)" d="m0 0 7 1 1 3-13-1 1-2z" fill="#4C4A4A"/>
<path transform="translate(527,1454)" d="m0 0 5 2 2 4-7-1-1-4z" fill="#906F50"/>
<path transform="translate(525,1431)" d="m0 0 6 2 4 5-2 2-8-7z" fill="#3D3430"/>
<path transform="translate(363,1290)" d="m0 0h7l2 6-6-1-1-3z" fill="#C2C2C2"/>
<path transform="translate(259,820)" d="m0 0 13 1 6 2v1h-8l-1-1-10-2z" fill="#9197A0"/>
<path transform="translate(446,699)" d="m0 0 3 1-2 2-8 3-5-1 4-2z" fill="#4A4B4C"/>
<path transform="translate(397,678)" d="m0 0 2 4 8 2-2 2h-7l-1-1z" fill="#3D3D3E"/>
<path transform="translate(291,613)" d="m0 0 11 5v2l-6-1-4-2z" fill="#212021"/>
<path transform="translate(486,562)" d="m0 0h2l-1 4-4 4-2-1 2-4z" fill="#202021"/>
<path transform="translate(464,366)" d="m0 0 4 2 9 9-1 2-11-10z" fill="#171718"/>
<path transform="translate(152,1580)" d="m0 0h3v2h17v1h-22l2-1z" fill="#78553F"/>
<path transform="translate(549,1426)" d="m0 0h5l1 4 6 2v1h-7z" fill="#3D342D"/>
<path transform="translate(374,1299)" d="m0 0 5 4-2 6-3-1z" fill="#343537"/>
<path transform="translate(521,1218)" d="m0 0h1v11l3 1-4 1-1-1v-10z" fill="#ABB2B9"/>
<path transform="translate(558,1204)" d="m0 0h5l5 5 4 3-6-1v-2l-6-2-2-1z" fill="#8D8C8D"/>
<path transform="translate(471,581)" d="m0 0h2l-2 4-6 6h-2l2-4z" fill="#1A1A1B"/>
<path transform="translate(529,573)" d="m0 0 1 3h2l4 4 4 3-7-1-4-5z" fill="#1A1A1B"/>
<path transform="translate(167,515)" d="m0 0h3l-1 3-5 1h-7l2-2z" fill="#2C2C2D"/>
<path transform="translate(528,1462)" d="m0 0 2 2 1 4 1 5-3-1-3-7h2z" fill="#909093"/>
<path transform="translate(553,1455)" d="m0 0 5 2v1l8 1v1l-9 1-4-2z" fill="#60544C"/>
<path transform="translate(451,1430)" d="m0 0h1v5l4-2v3l-7 1-3-3 5-1z" fill="#A9927A"/>
<path transform="translate(587,1416)" d="m0 0h7l2 1-1 3h-5z" fill="#979DA5"/>
<path transform="translate(378,1331)" d="m0 0 2 1 1 5v7h-2l-1-5z" fill="#313133"/>
<path transform="translate(362,1289)" d="m0 0 1 2 3 1v3h5v1h-8l-2-3z" fill="#9EA7B0"/>
<path transform="translate(151,809)" d="m0 0 4 1v3l-7 2-2-3z" fill="#46484A"/>
<path transform="translate(296,707)" d="m0 0 11 2-2 2-8-1-4-2z" fill="#646568"/>
<path transform="translate(137,389)" d="m0 0 2 1-3 10-3 4 1-7z" fill="#333334"/>
<path transform="translate(346,1145)" d="m0 0 5 5 1 3h-2l-1 2-4-8z" fill="#CFD4D9"/>
<path transform="translate(533,313)" d="m0 0 7 6 2 3-2 2-7-8z" fill="#3E3F41"/>
</svg>
